<svg xmlns="http://www.w3.org/2000/svg" width="3521.999" height="1626.689" viewBox="0 0 3521.999 1626.689">
  <g id="success" transform="translate(-32.395 -94.644)">
    <path id="Path_638" data-name="Path 638" d="M1043.7,247.876c-46.279-30.833-107.073-36.95-171.418-1.409-70.943,39.184-123.1,79.207-208.547,63.678-134.207-24.387-242.822-100.485-384.7-93.209-74.75,3.832-152.052,30.079-199.883,88.168-37.8,45.911-53.534,108.959-44.076,167.878S78.442,585.993,125.762,621.81c36.243,27.436,81.134,44.6,126.394,42.534C293.312,662.469,332,645.275,370.4,630.223c92.518-36.263,196.3-61.286,290.121-28.6,57.259,19.95,105.249,60.656,166.095,69.391,60.072,8.623,123.156-3.438,175.393-34.762,67.757-40.628,119.185-114.892,126.24-194.442C1135.44,360.8,1100.5,285.722,1043.7,247.876Z" transform="translate(0 501.12)" fill="#8ad3db"/>
    <path id="Path_639" data-name="Path 639" d="M282.3,321.547c-47.524,20.3-102.452,50.609-105.137,102.216-1.45,27.784,14.125,54.272,35,72.665s46.674,30.064,72.05,41.469q61.258,27.52,122.52,55.046c21.472,9.647,43.569,19.73,59.549,37.016,41.335,44.727,35.859,129.719,92.523,152.052,27.81,10.959,61.952-1.23,79.059-25.74s17.578-58.673,3.914-85.258c-23.9-46.51-80.114-64.288-121.2-96.632a193.624,193.624,0,0,1-67.3-103.446c-5.467-21.436-7.229-43.815-14.509-64.708-21.334-61.219-94.352-99.025-156.657-81.113" transform="translate(596.56 930.784)" fill="none" stroke="#8ad3db" stroke-miterlimit="10" stroke-width="0.412"/>
    <path id="Path_640" data-name="Path 640" d="M918.732,195.951c-11.686-32.3-36.007-60.712-69.473-68.981-61.921-5.036-94.234,10.687-126.25,41.571s-50.388,72.885-68.233,113.631-36.812,82.609-69.591,112.684c-55.947,51.326-142.22,59.4-196.681,112.3s-62.649,143.265-28.02,210.837S466.041,830.142,540.668,844.186c24.254,4.565,49.21,6.235,73.674,2.925,71.947-9.719,133.2-62.772,166.146-127.469s40.679-139.627,36.8-212.123c-1.885-35.326-6.092-72.429,8.469-104.676,28.865-63.93,102.636-85.909,100.725-166.474A128.883,128.883,0,0,0,918.732,195.951Z" transform="translate(1267.138 128.348)" fill="#8ad3db"/>
    <path id="Path_641" data-name="Path 641" d="M195.977,413.184c-10.539-24.592-1.1-54.8,18.531-72.982s47.483-25.494,74.233-24.874c33.225.763,66.783,12.614,99.055,4.688C421,311.859,445.91,284.2,463.535,254.9s30.254-61.655,50.788-88.988c24.71-32.892,69.919-58.063,106.366-39,27.774,14.525,39.025,50.66,32.318,81.272s-27.748,56.167-51.152,77.015-49.779,38.277-72.117,60.256c-38.517,37.908-63.719,88.045-104.046,124.027-38.6,34.439-92.866,54.072-143.2,42.119s-92.431-60.235-88.414-111.812" transform="translate(656.495 104.783)" fill="none" stroke="#8ad3db" stroke-miterlimit="10" stroke-width="0.439"/>
    <path id="Path_642" data-name="Path 642" d="M1168.188,256c-30.509-51.244-104.465-82.712-162.708-68.833-87.691,20.9-90.509,118.273-101.222,191.737-8.223,56.408-26.683,114.543-69.135,152.579-24.469,21.928-55.066,35.52-84.766,49.579-75.37,35.674-149.505,77.424-207.179,137.645s-97.6,141.5-92.8,224.747c1.2,20.944,5.241,41.883,13.659,61.1,18.393,42.017,56.28,72.685,97.011,93.773a358.921,358.921,0,0,0,186.921,39.214c59.866-3.843,120.594-24.28,162.821-66.9,60.527-61.081,72.536-153.855,79.909-239.528s15.98-177.981,72.439-242.838c17.466-20.058,38.784-36.458,56.465-56.326,52.924-59.462,79.156-149.311,65.712-227.944C1182.118,285.372,1176.232,269.515,1168.188,256Z" transform="translate(1721.875 366.843)" fill="#8ad3db"/>
    <path id="Path_643" data-name="Path 643" d="M733.006,96.3c-59.523-7.014-122.479,12.747-164.65,55.338s-61.3,107.842-45.168,165.567,68.551,104.532,128.192,110.5c41.171,4.119,81.856-9.857,123.1-13.131,70.047-5.564,142.015,21.692,190.8,72.265,14.022,14.535,26.344,30.981,42.667,42.883s38.282,18.7,56.91,10.892c14.889-6.24,24.751-20.345,33.507-33.907,10.851-16.81,21.549-34.6,23.859-54.477,5.559-47.888-38.169-86.8-81.123-108.682s-92.528-38.784-118.5-79.4c-9.944-15.549-15.514-33.425-23.3-50.163C866.937,144.325,792.7,96.216,715.894,95.11" transform="translate(2000.261 0)" fill="none" stroke="#8ad3db" stroke-miterlimit="10" stroke-width="0.439"/>
    <path id="Path_644" data-name="Path 644" d="M1248.11,272.131q-4.4-2.636-8.925-5c-91.657-47.883-204.833-6.517-267.21,69.673-64.093,78.285-72.265,207.312-158.584,265.647-28.752,19.433-60.989,18.951-93.087,28.435-86.918,25.678-205.17,133.064-133.172,229.758,62.438,83.849,214.977,33.876,273.394-30.474,30.008-33.056,48.682-75.314,79.719-107.406,68.751-71.077,173.288-78.311,258.193-120.179,57.679-28.445,111.72-73.561,131.158-137C1352.442,391.035,1313.208,311.12,1248.11,272.131Z" transform="translate(2195.615 625.688)" fill="none" stroke="#8ad3db" stroke-miterlimit="10" stroke-width="0.439"/>
    <path id="Path_645" data-name="Path 645" d="M90.669,154.8C73.255,162.87,57.6,175.745,48.847,192.826s-9.832,38.564-.333,55.245c6.963,12.23,18.89,21.026,31.77,26.7,30.6,13.485,73.218,6.333,87.2-24.044,4.2-9.125,5.441-19.438,4.56-29.444-3.545-40.1-45.362-72.444-85.063-65.794" transform="translate(38.879 246.185)" fill="none" stroke="#8ad3db" stroke-miterlimit="10" stroke-width="0.439"/>
    <g id="Group_261" data-name="Group 261" transform="translate(119.676 167.527)">
      <g id="Group_255" data-name="Group 255">
        <path id="Path_646" data-name="Path 646" d="M160.083,448.376c2.895-9.325,6.543-18.388,8.643-27.989,4.98-22.779,5.374-45.075-5.39-66.517,2.849-1.317,5.672-2.69,8.541-3.945,12.547-5.477,24.91-2.679,34.562,7.075,9.8,9.909,13.782,21.61,12.465,35.3-1,10.452-1.87,20.919-3.13,31.34a410.31,410.31,0,0,0-2.2,65.943c.225,5.564-.5,11.169-.871,16.754a19.315,19.315,0,0,1-2.321,8.008c-4.478,8.218-11.553,10.021-19.054,4.539-9.832-7.188-14.863-17.414-17.537-28.983-2.521-10.908-4.831-21.851-8.735-32.405A28.245,28.245,0,0,0,160.083,448.376Z" transform="translate(406.833 872.554)" fill="#6395ce"/>
        <g id="Group_233" data-name="Group 233" transform="translate(0 56.336)">
          <path id="Path_647" data-name="Path 647" d="M814.332,356.546c-7.439-7.316-16.953-12.568-28.25-16.354-21.667-7.26-45.977-6.952-67.167,1.788-33.461,13.792-56.521,45.337-88.573,62.146-31.34,16.436-69.719,17.963-98.42,38.671-17.02,12.281-29.905,30.858-49.533,38.3-13.182,5-27.84,4.268-41.75,1.947-38.3-6.394-77.148-27.287-91.78-63.253-10-24.551-7.813-53.585-21.908-76.036-8.884-14.146-23.665-24.582-29.449-40.254-8.192-22.189,4.186-46.028,8.7-69.242,5.21-26.775-.769-55.753-17.035-77.65s-42.79-36.1-70.067-36.443c0,0-19.694-2.085-49.845,14.515-37.4,25.842-50.04,77.219-42.119,121.982s32.61,84.536,57.387,122.648,50.6,76.856,61.3,121.035c1.721,7.1,2.992,14.766.246,21.528-3.084,7.588-10.477,12.332-16.963,17.338C171.85,583.45,169.5,669.538,126.975,728.072c-13.782,18.972-31.606,34.716-45.449,53.642-16.856,23.045-26.38,52.668-13.413,79.822,10.636,22.271,34.619,38.159,59.487,37.877.994-.015,1.988-.051,2.982-.113,10.2-.651,20.166-3.73,30.382-3.9,10.242-.174,20.278,2.572,30.151,5.292,40.116,11.066,80.329,22.159,119,37.549,40.4,16.082,79.12,36.852,121.091,48.242s89.177,12.378,126.588-9.8c32.247-19.11,53.606-53.99,60.2-90.883s-.635-75.447-16.205-109.543c-11.287-24.72-26.9-47.56-35.167-73.443s-7.726-57.023,10.641-77.051c10.513-11.456,25.315-17.742,38.851-25.4a194.512,194.512,0,0,0,52.75-43.692c8.013-9.478,15.175-19.786,24.485-28,17.3-15.263,40.336-21.918,60.63-32.887a159.4,159.4,0,0,0,58.909-55.317c14.151-22.579,25.366-50.137,9.089-74.719A56.952,56.952,0,0,0,814.332,356.546Z" transform="translate(2.713 -120.085)" fill="#6395ce"/>
          <path id="Path_648" data-name="Path 648" d="M616.346,824.232c-1.716,2.618-3.52,5.185-5.139,7.864-18.552,30.658-51.874,43.964-86.6,34.665-7.127-1.906-14.422-3.945-20.463-7.864-11.753-7.619-23.112-5.769-34.87-1-11.446,2.966-22.855,6.051-34.342,8.838-3.837.927-5.077,3.212-5.011,6.732.333,17.291-5.523,32.738-14.084,47.386-.287.195-.676.323-.856.589-24.664,36.965-75.939,31.58-103.548,5.759-8.433-7.89-16.174-16.508-24.321-24.705-5.923-5.964-11.809-11.978-18.039-17.614-14.586-13.193-30.095-24.854-48.19-33.251-32.41-15.037-64.027-31.683-93.7-51.756A213.642,213.642,0,0,1,71.25,745.01c-22.164-31.683-26.508-66.327-17.245-103.262,5.871-23.388,16.374-44.661,29.905-64.457,12.25-17.922,24.234-36.089,37.524-53.227,26.985-34.8,48.851-72.639,68.074-112.038,11.835-24.254,24.141-48.2,37.785-71.476,1.23-2.1,2.177-4.37,3.253-6.563,8.92-12.224,15.365-25.786,21.405-39.578,5.887-13.444,11.307-27.164,21.19-38.4,3.007,2.4,6.04,4.76,9.012,7.193,22.671,18.567,47.473,33.553,75.6,42.022,39.5,11.9,79.392,22.3,120.712,25.9,4.447.389,9.212-.082,12.855,3.448a22.443,22.443,0,0,0,.01,4.15c5.451,30.033,11.184,60.02,13.731,90.494,1.624,41.894-9.422,81.159-25.1,119.375-5.984,14.571-13.341,28.537-19.643,43-7.1,16.272-9.627,32.989-6.886,50.312,3.914,24.792,4.872,49.471.4,74.279-1.1,6.1-.456,6.107,6.051,5.871a271.779,271.779,0,0,0,81.318-15.2c7.967-2.823,16.344-3.74,24.787-4.263,20.985-1.3,37.472,6.8,50.137,23.3,1.05,1.373,2.316,2.577,3.484,3.853,10.764,21.441,10.37,43.738,5.39,66.517C622.889,805.844,619.241,814.908,616.346,824.232ZM272.85,609.686c-7.26,7.014-12.45,12.143-17.778,17.133-5.1,4.785-10.508,9.248-15.473,14.161-8.443,8.351-8.366,18.065-.138,26.227,7.444,7.388,14.832,14.832,22.3,22.194,6.9,6.8,8.249,6.542,11.912-2.3a11.08,11.08,0,0,0,1.035-5.011C272.568,658.875,271.072,635.636,272.85,609.686Z" transform="translate(-49.43 440.362)" fill="#e17c37"/>
          <path id="Path_649" data-name="Path 649" d="M228.279,187.814c-.82-3.463-3.125-6.466-6.584-7.224a4.078,4.078,0,0,0-2.177.015,5.113,5.113,0,0,0-2.429,2.285c-2.388,3.7-4.15,7.972-7.6,10.7s-9.5,2.89-11.487-1.035c-.451-.886-.815-2.049-1.793-2.234a2.569,2.569,0,0,0-2.019.922A214.236,214.236,0,0,1,151.931,220.8c-.553.292-1.173.692-1.2,1.312-.026.548.436.979.789,1.4,1.9,2.316.9,5.769-.272,8.53-3.433,8.064-8.674,16.671-17.266,18.4a9.555,9.555,0,0,0-3.868,1.178,6.65,6.65,0,0,0-2.106,3.5c-4.719,14.591.656,31.4,11.553,41.9,5.892,5.682,14.146,9.284,22.261,8.228a29.5,29.5,0,0,0,14.125-6.414c10.57-8.3,25.858-24.116,16.349-32.933-15.7-14.556-5.3-49.323,13.5-58.781,2.249-1.127,4.806-1.414,7.265-1.931,5.943-1.255,11.958-4.375,14.54-9.878A11.647,11.647,0,0,0,228.279,187.814Z" transform="translate(267.499 128.823)" fill="#d77062"/>
          <path id="Path_650" data-name="Path 650" d="M120.947,436.439c8.561-14.648,14.417-30.095,14.084-47.386-.067-3.52,1.173-5.8,5.011-6.732,11.487-2.787,22.9-5.871,34.342-8.838,10.529,8.126,13.09,19.669,12.511,31.888-.558,11.845-2.347,23.609-4.129,35.382-1.921,12.685-1.388,25.771-1.537,38.681-.092,8.377.63,16.754.763,25.135.087,5.671-.825,11.174-4.334,15.928-4.35,5.907-10.349,7.07-16.456,2.92-9.253-6.286-14.31-15.785-16.282-26.14-3.924-20.581-10.073-39.983-23-56.813C121.152,439.462,121.254,437.8,120.947,436.439Z" transform="translate(245.461 924.772)" fill="#6395ce"/>
          <path id="Path_651" data-name="Path 651" d="M375.694,324.591c4.462-8.074,4.708-15.549-.251-23.691-7.757-12.726-11.61-26.718-12.834-41.7-.861-10.585.359-20.939.763-31.4.4-10.411-3.433-14.709-13.833-15.806-5.549-.584-11.159-.6-16.738-.881-.4,14.709-7.121,26.191-18.7,34.706-8.966,6.594-19.853,6.2-28.6.548-17.419-11.271-23.306-35.561-15.175-49.82-12.06-5.18-18.608-3.571-26.785,7.982-15.278,21.585-33.579,40.265-53.606,57.356l-.251.21c-1.02.769-2,1.588-2.936,2.444-1.1.912-2.2,1.839-3.3,2.751.051.164.082.338.128.5-4.047,4.693-6.732,10.19-7.091,15.76-2.326,36.284,5.876,75.688-12.624,106.991-8.915,15.088-23.045,26.221-36.355,37.631S100.974,452.26,94.99,468.737c-4.811,13.234-3.474,29.5,4.908,40.249a55.955,55.955,0,0,0,.912,7.029c1.639,1.3,3.294,2.6,4.918,3.924,22.666,18.567,47.473,33.553,75.59,42.022,39.5,11.9,79.392,22.3,120.712,25.9,4.447.389,9.212-.082,12.855,3.448,7.608-3.771,12.537-10,15.585-17.7,6.64-16.8,10.216-34.245,8.735-52.34a452.086,452.086,0,0,1,.517-84.833c2.065-19.51,4.985-38.7,11.42-57.428A342.98,342.98,0,0,1,375.694,324.591ZM130.234,468.553c-2.188,1.65-4.58,3.32-7.024,5.047a156.47,156.47,0,0,1,16.18-12.757A116.852,116.852,0,0,1,130.234,468.553Z" transform="translate(127.001 183.619)" fill="#f8ebe5"/>
          <path id="Path_652" data-name="Path 652" d="M206.452,235.917c-7.321,33.343-30.1,56.834-50.793,52.13-29.572-6.727-31.6-35.28-24.274-68.622s30.069-56.68,50.8-52.125S213.778,202.574,206.452,235.917Z" transform="translate(273.757 72.257)" fill="#d77062"/>
          <path id="Path_653" data-name="Path 653" d="M207.865,306.589c-7.654-2.48-15.329-4.883-22.953-7.455-37.068-12.522-62.29-36.32-68.438-76.057-4.437-28.686,2.869-54.436,26.329-73.551,12.8-10.431,27.579-15.124,44.158-11.712,33.717,6.937,42.457,34.619,39.061,57.761-1.629,11.092-5.436,21.713-9.683,32.1-1.066,2.608-2.183,4.98-1.68,8.008,3.663,21.959,11.738,41.033,32.677,52.233a64.123,64.123,0,0,1,15.37,10.918c5.339,5.333,7.834,11.722,6.1,19.105a29.965,29.965,0,0,0,.379,14.381c2.4,10.047-1.675,19.269-5.006,28.481-2.664,4.468-4.913,9.258-8.951,12.727-4.893,4.206-8.366,3.8-12.245-1.445a23.894,23.894,0,0,1-4.534-17.763,50.808,50.808,0,0,1,11.092-25.479c5.262-6.655,5.087-7.285-2.685-11.061C234.517,311.779,221.088,309.525,207.865,306.589Z" transform="translate(221.95 -51.514)" fill="#212443"/>
          <path id="Path_654" data-name="Path 654" d="M170.285,206.9c-6.2,12.306-16.738,19.5-23.537,16.082s-7.291-16.18-1.091-28.486,16.733-19.51,23.537-16.082S176.484,194.591,170.285,206.9Z" transform="translate(329.418 116.902)" fill="#d77062"/>
          <path id="Path_655" data-name="Path 655" d="M150.722,194.327c1.645,12.25-2.567,22.927-9.412,23.844s-13.726-8.264-15.37-20.514,2.567-22.927,9.406-23.849S149.072,182.077,150.722,194.327Z" transform="translate(264.583 101.176)" fill="#d77062"/>
        </g>
        <path id="Path_656" data-name="Path 656" d="M158.461,190.109a14.534,14.534,0,0,1-27.507-9.084Z" transform="translate(285.413 187.531)" fill="#fff"/>
        <path id="Path_657" data-name="Path 657" d="M270.493,190.03c-3.427-4.544-22.251,11.789-22.251,11.789s23.188-22.84,21.211-26.734c-3.12-6.148-29.07,20.232-29.07,20.232s27.518-29.434,21.385-33.85-30.054,27.81-30.054,27.81,20.632-31.7,14.74-34.552-30.93,39.061-30.93,39.061-3.678-24.423-8.7-23.993c-8.474.722-2.833,52.924-2.833,52.924l22.2,18.316S273.915,194.58,270.493,190.03Z" transform="translate(580.3 78.512)" fill="#d77062"/>
        <path id="Path_658" data-name="Path 658" d="M78.875,139.425c4.2-3.843,19.7,15.672,19.7,15.672S79.986,128.39,82.645,124.926c4.2-5.472,24.854,25.233,24.854,25.233s-21.636-33.994-14.8-37.206,24.433,32.861,24.433,32.861-14.453-34.957-8.141-36.678,23.229,44.081,23.229,44.081,8.1-23.332,12.957-21.984c8.2,2.27-6.942,52.545-6.942,52.545L113.048,197.7S74.673,143.268,78.875,139.425Z" transform="translate(70.656 -109.089)" fill="#d77062"/>
        <g id="Group_234" data-name="Group 234" transform="translate(772.841 294.304)">
          <path id="Path_659" data-name="Path 659" d="M202.084,177.516c10.887,11.4,21.964,19.679,38.01,21.549,8.151.948,8.085-11.83,0-12.773-12.409-1.45-20.724-9.161-28.983-17.809-5.687-5.958-14.709,3.084-9.027,9.033Z" transform="translate(-200.276 -166.532)" fill="#4f7ca6"/>
        </g>
        <g id="Group_235" data-name="Group 235" transform="translate(170.41 71.509)">
          <path id="Path_660" data-name="Path 660" d="M134.215,123.122c-20.125-1.009-38.2,8.095-50.271,23.993-4.97,6.548,6.117,12.921,11.026,6.45,9.376-12.347,23.947-18.439,39.245-17.671,8.213.41,8.192-12.363,0-12.773Z" transform="translate(-82.691 -123.046)" fill="#4f7ca6"/>
        </g>
        <g id="Group_236" data-name="Group 236" transform="translate(188.016 413.331)">
          <path id="Path_661" data-name="Path 661" d="M281.991,191.381A215.384,215.384,0,0,1,177.9,290.975c-37.385,16.856-85.939,32.631-91.749,79.935-.5,4.068,5.892,4.032,6.389,0,6.532-53.217,72.7-63.351,110.731-85.791A220.354,220.354,0,0,0,287.5,194.6c1.85-3.658-3.658-6.9-5.513-3.223Z" transform="translate(-86.128 -189.764)" fill="#4f7ca6"/>
        </g>
        <g id="Group_237" data-name="Group 237" transform="translate(174.249 612.049)">
          <path id="Path_662" data-name="Path 662" d="M96.922,230.806a134,134,0,0,1-13.029,30.884c-2.06,3.561,3.458,6.783,5.513,3.223A141.11,141.11,0,0,0,103.08,232.5c1.117-3.96-5.047-5.656-6.158-1.7Z" transform="translate(-83.441 -228.551)" fill="#4f7ca6"/>
        </g>
        <g id="Group_238" data-name="Group 238" transform="translate(487.829 434.92)">
          <path id="Path_663" data-name="Path 663" d="M145.623,197.9c5.989,19.013-1.143,37.5-.973,56.741.128,14.289,4.37,28.02,9.816,41.1,11.6,27.871,29.931,54.856,26.185,86.36-.482,4.073,5.907,4.042,6.389,0,3.54-29.792-12.045-55.845-23.783-82.025-7.091-15.821-12.911-32.333-12.117-49.917.83-18.408,6.358-35.8.64-53.959-1.23-3.9-7.4-2.239-6.158,1.7Z" transform="translate(-144.646 -193.978)" fill="#4f7ca6"/>
        </g>
        <g id="Group_239" data-name="Group 239" transform="translate(530.159 656.561)">
          <path id="Path_664" data-name="Path 664" d="M153.116,240.3a57.255,57.255,0,0,0,3.151,24.218c1.368,3.843,7.542,2.188,6.158-1.7A52.845,52.845,0,0,1,159.5,240.3c.343-4.1-6.046-4.073-6.384,0Z" transform="translate(-152.909 -237.239)" fill="#4f7ca6"/>
        </g>
        <g id="Group_240" data-name="Group 240" transform="translate(471.72 751.826)">
          <path id="Path_665" data-name="Path 665" d="M144.586,413.6c32.339-.553,68.494-18.972,80.1-50.46,13.167-35.715-1.675-72.644-15.6-105.629-1.593-3.776-7.1-.523-5.513,3.223,12.347,29.254,25.622,61.388,17.194,93.573-8.6,32.815-43.579,52.351-76.185,52.909-4.1.067-4.119,6.455,0,6.384Z" transform="translate(-141.502 -255.833)" fill="#4f7ca6"/>
        </g>
        <g id="Group_241" data-name="Group 241" transform="translate(115.645 688.163)">
          <path id="Path_666" data-name="Path 666" d="M119.111,244c-24.234,17.343-43.754,44.7-46.838,75-1.312,12.875,1.978,27.149,13.495,34.619,14.207,9.212,32.344-2.1,45.911,7.485,3.366,2.377,6.558-3.161,3.223-5.518-7.68-5.426-15.657-4.99-24.73-4.406-8.812.564-18.132.953-24.787-6.133-6.942-7.393-7.741-18.285-6.389-27.784,3.884-27.369,21.185-51.895,43.339-67.746,3.315-2.372.128-7.916-3.223-5.518Z" transform="translate(-72.002 -243.407)" fill="#4f7ca6"/>
        </g>
        <g id="Group_242" data-name="Group 242" transform="translate(247.358 313.154)">
          <path id="Path_667" data-name="Path 667" d="M102.376,319.684a223.477,223.477,0,0,0,94.788-145.468c.717-4.017-5.436-5.743-6.158-1.7A217.193,217.193,0,0,1,99.154,314.166c-3.387,2.29-.195,7.828,3.223,5.518Z" transform="translate(-97.71 -170.211)" fill="#4f7ca6"/>
        </g>
        <g id="Group_243" data-name="Group 243" transform="translate(535.197 369.738)">
          <path id="Path_668" data-name="Path 668" d="M157.566,183.568c-6.548,37.488-4.232,74.735,6.046,111.326,7.639,27.195,16.774,58.063,43.077,72.752,3.591,2,6.814-3.51,3.223-5.518-25.96-14.494-34.311-46.884-41.438-73.669a238.6,238.6,0,0,1-4.749-103.2c.7-4.022-5.451-5.748-6.158-1.7Z" transform="translate(-153.892 -181.256)" fill="#4f7ca6"/>
        </g>
        <g id="Group_244" data-name="Group 244" transform="translate(374.735 447.368)">
          <path id="Path_669" data-name="Path 669" d="M123.058,199.442c-3.212,24.869,9.688,49.113,33.548,58.258,26.852,10.293,45.475-4.488,58.007-27.123,1.993-3.6-3.52-6.824-5.513-3.223-4.683,8.459-9.6,17.763-18.132,22.968-10.621,6.481-24.541,5.164-35.392.021-19.679-9.325-28.839-29.936-26.134-50.9.528-4.063-5.866-4.027-6.384,0Z" transform="translate(-122.572 -196.408)" fill="#eac2b0"/>
        </g>
        <g id="Group_245" data-name="Group 245" transform="translate(221.366 607.869)">
          <path id="Path_670" data-name="Path 670" d="M100.163,372.7c-7.009-20.985,21.329-32.375,34.865-42.273a284.278,284.278,0,0,0,32.139-27.384A286.389,286.389,0,0,0,219,232.556c1.911-3.632-3.6-6.865-5.518-3.223a280.342,280.342,0,0,1-66.081,83.224c-12.6,10.739-26.729,18.813-39.814,28.773C96.9,349.471,89.439,360.733,94,374.4c1.3,3.879,7.465,2.219,6.158-1.7Z" transform="translate(-92.637 -227.735)" fill="#eac2b0"/>
        </g>
        <g id="Group_246" data-name="Group 246" transform="translate(348.202 568.348)">
          <path id="Path_671" data-name="Path 671" d="M123.027,223.1a28.9,28.9,0,0,1-5.082,17.122c-2.306,3.417,3.228,6.62,5.513,3.223A34.9,34.9,0,0,0,129.41,223.1c-.077-4.1-6.466-4.119-6.384,0Z" transform="translate(-117.394 -220.021)" fill="#eac2b0"/>
        </g>
        <g id="Group_247" data-name="Group 247" transform="translate(342.728 810.205)">
          <path id="Path_672" data-name="Path 672" d="M178.569,272.106C210.6,342,191.69,420.653,153.931,484.137c-6.645,11.169-19.208,23.634-19.781,37.211-.64,15.006,6.963,31.775,9.263,46.638,5.7,36.852,1.9,77-26.16,104.256a3.222,3.222,0,0,0,1.409,5.333c16.82,5.18,26.9,20.806,25.294,38.2-.231,2.485,2.859,3.883,4.806,2.761a99.612,99.612,0,0,1,105.378,3.571,3.259,3.259,0,0,0,3.868-.5,77.447,77.447,0,0,1,89.254-7.992c3.556,2.08,6.773-3.438,3.223-5.513a83.278,83.278,0,0,0-51.393-11.036,84.483,84.483,0,0,0-23.1,5.887c-7.224,2.992-16.451,12.517-23.45,10.513-8.53-2.444-16.344-8.428-25.212-10.913a107.248,107.248,0,0,0-27.282-3.914,105.335,105.335,0,0,0-54.513,14.381q2.405,1.375,4.806,2.756a42.134,42.134,0,0,0-29.987-44.358q.707,2.675,1.409,5.339c23.788-23.1,31.98-56.224,30.207-88.578-1.055-19.32-5.83-37.688-9.729-56.531-2.68-12.916,2.239-20.673,8.93-30.976q7.923-12.2,14.935-24.976c34.578-63.222,48.944-139.233,17.978-206.81-1.711-3.735-7.219-.492-5.518,3.223Z" transform="translate(-116.325 -267.228)" fill="#f8ebe5"/>
        </g>
        <g id="Group_248" data-name="Group 248" transform="translate(189.567 1034.571)">
          <path id="Path_673" data-name="Path 673" d="M122.9,379.513c-16.246-18.823-32.595-38.979-29.741-65.446.441-4.078-5.948-4.047-6.384,0-3.028,28.015,14.351,49.963,31.606,69.965,2.69,3.115,7.193-1.419,4.519-4.519Z" transform="translate(-86.43 -311.02)" fill="#cc5b1c"/>
        </g>
        <g id="Group_249" data-name="Group 249" transform="translate(218.541 1101.065)">
          <path id="Path_674" data-name="Path 674" d="M96.632,327.042c-6.87,58.478-10.913,118.519,25.914,168.436,2.413,3.269,7.957.087,5.513-3.223-36.176-49.041-31.775-107.893-25.038-165.214.477-4.073-5.912-4.042-6.389,0Z" transform="translate(-92.086 -323.999)" fill="#cc5b1c"/>
        </g>
        <g id="Group_250" data-name="Group 250" transform="translate(285.81 1307.069)">
          <path id="Path_675" data-name="Path 675" d="M106.037,369.773c9.038,10.457,18.357,21.134,30.448,28.158,12.819,7.444,27.881,11.143,42,15.216,12.921,3.73,26.708,8.7,40.352,6.389,14.033-2.382,37.974-16.733,50.87-6.655,3.2,2.505,7.752-1.988,4.514-4.514-8.725-6.819-18.4-4.924-28.635-2.756-17.886,3.786-31.591,10.323-50.25,5.61-15.088-3.812-30.556-8.039-45.034-13.787-16.7-6.635-28.255-18.88-39.752-32.18-2.69-3.115-7.193,1.419-4.514,4.519Z" transform="translate(-105.216 -364.208)" fill="#cc5b1c"/>
        </g>
        <g id="Group_251" data-name="Group 251" transform="translate(128.295 1071.288)">
          <path id="Path_676" data-name="Path 676" d="M143.042,319.3a395.492,395.492,0,0,1-67.659,67.915c-1.137.892-1.1,2.715-.5,3.868a121.724,121.724,0,0,1,9.74,87.779c-1.04,3.981,5.118,5.677,6.158,1.7a128.471,128.471,0,0,0,3.981-44.835c-1.363-14.469-7.178-26.549-10.611-40.29-1.414-5.667-2.157-4.3,2.582-9.145,2.51-2.567,5.651-4.683,8.366-7.024q9.091-7.854,17.681-16.272a396.742,396.742,0,0,0,34.772-39.178c2.5-3.207-1.988-7.757-4.514-4.519Z" transform="translate(-74.471 -318.187)" fill="#cc5b1c"/>
        </g>
        <g id="Group_252" data-name="Group 252" transform="translate(142.494 1234.731)">
          <path id="Path_677" data-name="Path 677" d="M79.555,356.291c97.262,14.14,118.242,170.685,226.909,154.142,4.047-.615,2.326-6.768-1.7-6.158-56.921,8.669-95.274-42.924-125.794-82.379-25.1-32.452-54.933-65.543-97.713-71.768-4.022-.584-5.759,5.569-1.7,6.163Z" transform="translate(-77.243 -350.088)" fill="#cc5b1c"/>
        </g>
        <g id="Group_253" data-name="Group 253" transform="translate(90.641 728.319)">
          <path id="Path_678" data-name="Path 678" d="M256.78,313.607c-14.023-28.568-44.245-60.871-78.362-62.326-15.58-.666-27.589,7.89-39.383,16.943-7.07,5.421-14.52,11.5-23.465,13.341-13.556,2.787-27.062-4.258-38.758-10.119-7.332-3.673-13.807,7.342-6.445,11.031,14.945,7.49,31.463,15.247,48.6,11.4,14.223-3.2,24.428-13.884,36.063-21.805,35.664-24.269,75.77,17.517,90.72,47.975,3.622,7.383,14.643.917,11.031-6.445Z" transform="translate(-67.122 -251.245)" fill="#cc5b1c"/>
        </g>
        <g id="Group_254" data-name="Group 254" transform="translate(160.55 792.3)">
          <path id="Path_679" data-name="Path 679" d="M254.747,272.4c-11.087-11.743-28.194-11.5-39.035.42-15.15,16.646-18.675,40.582-29.921,59.5-5.953,10.011-14.863,20.145-26.554,23.2-12.475,3.264-24.382-3.925-36.545-5.6-17.163-2.372-33.092,6.481-41.12,21.6-3.853,7.26,7.168,13.72,11.031,6.45,4.672-8.8,12.194-14.771,22.3-15.59,10.605-.856,20.611,4.816,30.961,6.312,13.213,1.911,25.427-2.587,35.469-11.133,11.584-9.852,18.475-23.245,24.2-37.062,5.026-12.127,20.3-60.128,40.183-39.066,5.656,5.989,14.673-3.053,9.032-9.032Z" transform="translate(-80.767 -263.733)" fill="#cc5b1c"/>
        </g>
      </g>
      <g id="Group_256" data-name="Group 256" transform="translate(308.548 798.853)">
        <path id="Path_680" data-name="Path 680" d="M181.342,274.788c28.834,65.1,17.834,140.934-24.966,197.071-9.652,12.665-18.08,25.279-18.434,41.725-.425,19.561,4.734,39.491,5.754,59.072,2.055,39.358-4.206,80.57-32.236,110.245a6.457,6.457,0,0,0,2.818,10.672,50.924,50.924,0,0,1,36.017,52.069c-.471,8.213,12.3,8.182,12.773,0,1.7-29.352-17.379-55.937-45.393-64.385q1.406,5.341,2.818,10.677c26.15-27.687,35.992-65.016,36.376-102.365.231-22.594-3.75-44.522-5.7-66.916-2.039-23.419,10.959-36.171,23.383-54,40.521-58.13,46.326-135.974,17.824-200.314-3.325-7.5-14.335-1.009-11.031,6.445Z" transform="translate(-109.654 -265.012)" fill="#f8ebe5"/>
      </g>
      <g id="Group_257" data-name="Group 257" transform="translate(355.226 1265.415)">
        <path id="Path_681" data-name="Path 681" d="M126.478,377.235c42.678-16.133,91.56-8.623,126.783,20.683,6.276,5.226,15.36-3.766,9.032-9.032C223.7,356.777,170.226,347.1,123.081,364.918c-7.618,2.879-4.314,15.232,3.4,12.317Z" transform="translate(-118.764 -356.077)" fill="#f8ebe5"/>
      </g>
      <g id="Group_258" data-name="Group 258" transform="translate(490.913 1272.723)">
        <path id="Path_682" data-name="Path 682" d="M157.927,388.168c3.8-11.343,17.67-14.059,28.107-15.755,15.78-2.557,31.811-3.212,47.391.779,7.967,2.039,11.364-10.278,3.392-12.317-19.592-5.016-40.818-4.058-60.5.389-13.638,3.084-26.047,9.581-30.71,23.511-2.618,7.813,9.714,11.164,12.317,3.392Z" transform="translate(-145.248 -357.504)" fill="#f8ebe5"/>
      </g>
      <g id="Group_259" data-name="Group 259" transform="translate(595.941 1221.78)">
        <path id="Path_683" data-name="Path 683" d="M168.5,353.188c8.618,10.99,8.474,24.889,8.121,38.174-.379,14.376-.943,28.742-1.414,43.113l-1.337,40.577c-.394,12.076,2.664,32.446-7.111,41.315-3.053,2.772,1.476,7.275,4.514,4.519,8.151-7.4,8.033-17.8,8.4-28.081.7-19.438,1.281-38.886,1.916-58.33.579-17.588,1.88-35.331,1.532-52.929-.241-12.163-2.5-23.168-10.1-32.877-2.536-3.233-7.024,1.317-4.519,4.519Z" transform="translate(-165.748 -347.561)" fill="#f8ebe5"/>
      </g>
      <g id="Group_260" data-name="Group 260" transform="translate(403.78 1354.465)">
        <path id="Path_684" data-name="Path 684" d="M136.114,378.328c11.077,23.726,4.345,49.051,1.926,73.823-2.3,23.552,5.994,51.141-9.186,71.543-2.454,3.3,3.089,6.491,5.518,3.228,16.087-21.626,7.6-49.907,10.057-74.771,2.587-26.232,8.874-52.048-2.8-77.045-1.742-3.72-7.25-.482-5.518,3.223Z" transform="translate(-128.241 -373.458)" fill="#f8ebe5"/>
      </g>
    </g>
    <g id="Group_265" data-name="Group 265" transform="translate(790.531 226.595)">
      <g id="Group_264" data-name="Group 264">
        <g id="Group_263" data-name="Group 263" transform="translate(0 67.706)">
          <path id="Path_685" data-name="Path 685" d="M414.083,257.245c-4.232-41.689-11.85-82.681-26.908-121.982C377,135,366.84,134.448,356.68,133.833a222.155,222.155,0,0,1,1.947,23.317c.646,13.987,1.266,28,2.71,41.919,3.356,32.385,7.147,64.729,10.9,97.078a26.359,26.359,0,0,1-2.823,15.191c-11.9,24.182-21.866,49.3-35.484,72.66-2.449,4.191-3.919,8.956-5.836,13.454a9.467,9.467,0,0,0,.548,3.028c10.426,17.87,21.129,35.582,29.716,54.461.261.569,1.009.912,1.527,1.363,9-7.716,14.458-17.891,19.546-28.3,8.623-17.645,15.842-35.9,22.784-54.246,7.578-20.027,13.418-40.505,15.078-62.065C418.7,293.354,415.917,275.33,414.083,257.245Z" transform="translate(428.763 -133.833)" fill="#d77062"/>
          <g id="Group_262" data-name="Group 262" transform="translate(0 5.421)">
            <path id="Path_686" data-name="Path 686" d="M1119.844,541.762c-3.453-30.366-18.777-61.788-52.2-66.327-18.454-2.5-37.257,3.443-53.237,13-36.8,21.995-96.417,92.139-132.619,30.213-12.322-21.077-18.449-46.894-23.583-70.544-11.548-53.181-21.979-106.6-34.982-159.46q-2.72-7.6-5.257-15.263c-43.021,8.034-86.6,10.882-130.246,12.68-40.992,1.691-81.047-4.309-120.112-16.912-6.988-2.249-14.084-4.165-21.129-6.235-59.749,73.541-100.418,156.827-143.834,240.332-39.4,75.78-99.455,137.747-146.39,208.552-41.566,62.7-93.122,158.164-38.707,228.5,7.639,8.561,14.694,17.66,23.547,25.094a114.335,114.335,0,0,0,30.074,18.5c5.185.779,10.349,1.916,15.57,2.28,52.146,3.607,92.584-19.013,124.037-58.335,20.14-25.181,35.4-53.667,48.4-83.419,24.008-54.948,43.917-111.464,65.687-167.268,14.766-37.836,33.742-73.034,59.036-104.891a98.428,98.428,0,0,1,31.078-26.181c32.17-17.184,58.237,5.323,69.914,34.819,24.177,61.076,43.559,125.5,91.032,173.483,26.836,27.133,62.772,46.9,100.92,47.9,80.181,2.09,163.543-70.892,211.242-129.155C1108.593,648.072,1125.218,588.979,1119.844,541.762Z" transform="translate(-123.999 392.987)" fill="#1f2241"/>
            <path id="Path_687" data-name="Path 687" d="M617.43,184.165a44.6,44.6,0,0,0-3.4,3.095c-4.934,4.929-9.791,10.011-15.211,14.371A250.749,250.749,0,0,0,565.9,233.759c-2.91,3.392-6.061,4.083-10.047,4.176-12.562.282-25.125.461-37.667,1.516-6.937.584-18.162-6.025-22.22,1.445-.476.876,1.737,6.886.446,7.321-1.2,16.794-13.418,28.081-30.223,27.912-15.647-.159-26.232-11.855-26.816-29.644-2.239-4.6-6.092-5.005-10.6-4.375-19.479,2.7-39.122.8-58.6,2.008-12.347.763-24.8-11.866-33.491-19.223-17.922-15.165-34.752-19.161-53.657-32.959-1.88-1.373-3.561-3.576-7.137-2.234-3,11.743-6.1,23.9-9.207,36.043q-6.294,32.369-12.593,64.739c-2.808,9.555,1.783,16.036,8.95,21.406,3.079,2.311,6.194,4.57,9.371,6.747,16.636,11.415,35.034,19.069,54.323,24.5,5.912,1.665,7.685,4.35,7.383,10.293-.84,16.451-1.855,32.887-4.155,49.184-4.063,28.783-8.592,57.464-19.043,84.858-9.473,24.828-17.276,50.291-29.147,74.2-4.5,9.073-2.485,14,6.532,18.911,4.591,2.5,9.34,4.7,14.018,7.034,7.045,2.07,14.141,3.986,21.129,6.235,39.066,12.6,79.12,18.6,120.112,16.912,46.91-1.932,93.748-5.072,139.9-14.566,24.044-11.625,26.181-16.584,19.6-42.791-7.593-30.269-13.29-60.866-14.243-92.169-1.04-33.978,1.865-67.885,1.926-101.832.016-8.8,3.361-13.182,10.795-16.748,9.75-4.673,19.377-9.658,28.122-16.262,18.173-13.715,29.408-32.513,39.67-52.192,3.33-6.379,4.734-12.511,2.838-18.557C655.45,230.747,636.771,207.1,617.43,184.165Z" transform="translate(120.161 68.284)" fill="#e8a628"/>
            <path id="Path_688" data-name="Path 688" d="M354.763,416.733a389.667,389.667,0,0,0-30.663-36c-9.273-9.6-17.394-20.161-26-30.32-3.509-4.145-5.9-8.628-6.112-14.146-.968-24.879-6.112-49.287-8.274-74.069-2.4-27.533-6.763-54.9-10.518-82.3-1.2-8.766.277-36.632,3.238-45.009-9.33,3.54-21.574,23.906-30.786,21.969a39.445,39.445,0,0,1-.564,8.73c-5.518,30.325-11.312,60.609-14.443,91.324-3.386,33.22-1.783,65.789,11.861,96.863,7.045,16.036,14.335,31.97,21.672,47.878a70.268,70.268,0,0,0,5.882,9.919c22.41,32.877,51.495,58.98,83.521,82.087q6.294-32.362,12.588-64.739C361.173,425.975,358.114,421.17,354.763,416.733Z" transform="translate(20.677 -134.891)" fill="#d77062"/>
            <path id="Path_689" data-name="Path 689" d="M367.553,297.323c-1.194,16.794-13.413,28.081-30.218,27.912-15.647-.159-26.232-11.855-26.816-29.639a26.274,26.274,0,0,0,13.756-27.7c-.466-2.761-2.1-4.232-4.217-5.559a41.677,41.677,0,0,1-13.2-13.193c-3.894-6.184-5.605-13.628-15.38-14.714-5.318-.589-7.111-7.275-6.963-12.778.19-7.06,2.4-13.085,10.3-15.011,5.072,3.335,8.715,2.1,10.3-3.7,1.311-4.811,3.965-6.845,9.027-6.706,3.069.082,6.153-1.481,9.263-1.609,14.32-.6,23.588-7.613,27.953-21.241.143-.456,1.107-.651,1.988-1.132,5.979,2.664,8.1,8.156,9.329,14.053,1.573,7.531,2.557,15.186,4.206,22.691,2.106,9.56,4.954,10.99,14.873,8.238,7.9,4.355,8.6,11.379,6.435,18.941-2.029,7.1-7.05,11.22-14.663,10.933-4.042-.149-6.558,1.271-8.392,4.719a55.95,55.95,0,0,1-3.617,5.108c-2.459,3.571-7.977,5.185-7.27,10.759,1,7.936,1.793,16,7.163,22.548C363.383,292.66,365.5,294.966,367.553,297.323Z" transform="translate(249.018 19.179)" fill="#d77062"/>
            <path id="Path_690" data-name="Path 690" d="M273.922,405.591c7.639,8.556,14.694,17.655,23.547,25.089a114.335,114.335,0,0,0,30.074,18.5c-2.736.584-4.073,2.172-4.345,5.062a138,138,0,0,1-2.065,15.6c-4.509,21.18-18.152,29.788-38.558,20.161-11.369-5.364-19.29-15.063-28.317-23.2-9.755-8.787-20-16.374-31.857-21.923-10.155-4.754-20.16-9.816-29.27-16.472-4-2.92-7.787-6.046-10.262-10.385-6.312-11.077-.133-23.573,12.522-25.135a43.442,43.442,0,0,1,14.617.84c16.759,3.633,33.579,6.988,50.342,10.616A75.742,75.742,0,0,0,273.922,405.591Z" transform="translate(-180.37 927.695)" fill="#6297d4"/>
            <path id="Path_691" data-name="Path 691" d="M425.264,386.414c-1.563-7.485-2.782-15.057-4.739-22.435-7.516-28.317-23.767-44.83-54.61-44.927a27.886,27.886,0,0,1-4.114-.615c9.627-12.5,22.348-18.7,38.077-17.655a55.751,55.751,0,0,1,27.482,9.458c7.583,5.041,14.8,10.539,22.036,16.041,12.885,9.791,27.948,15.888,41.914,23.849,5.482,3.125,11.154,5.928,15.754,10.318,11.364,10.831,11.307,22.333-.733,32.277a33.932,33.932,0,0,1-28.455,7.46C459.939,397.092,442.1,393.7,425.264,386.414Z" transform="translate(567.737 548.673)" fill="#6297d4"/>
            <path id="Path_692" data-name="Path 692" d="M378.716,223.806a9.7,9.7,0,0,0-3.627.794c-.512-30.315-17.537-54.672-38.507-54.672-18.823,0-34.47,19.628-37.857,45.567a9.056,9.056,0,0,0-1.932-.277c-6.963,0-12.6,8.013-12.6,17.9s5.641,17.9,12.6,17.9a9.43,9.43,0,0,0,4.862-1.388c5.042,22.307,19.448,32.436,34.926,32.436,13.7,0,25.7-10.416,32.533-26.073,2.434,3.566,5.83,5.8,9.6,5.8,7.383,0,13.367-8.5,13.367-18.992S386.1,223.806,378.716,223.806Z" transform="translate(247.718 9.584)" fill="#d77062"/>
          </g>
          <path id="Path_693" data-name="Path 693" d="M391.177,298.993a10.256,10.256,0,0,0-11.615,5.339,252.042,252.042,0,0,1-6.373-32.554c-3.725,6.666-11.722,10.016-19.356,10.237s-15.073-2.188-22.333-4.56a20.084,20.084,0,0,1-3.366,15.314,14.447,14.447,0,0,1-25.494-3.243,20.545,20.545,0,0,1,.113-15.058c-7.567-.579-14.356-5.825-17.732-12.619s-3.6-14.889-1.588-22.21a16.955,16.955,0,0,1,3.556-7.157c3.453-3.735,8.971-4.539,14.033-5.005a23.216,23.216,0,0,1-9.1-23.824,23.8,23.8,0,0,1,18.967-17.568,17.745,17.745,0,0,1,10.109,1.137,12.047,12.047,0,0,1,6.676,7.449c-1.609-5.748-2.961-12.481-2.772-18.449s2.018-12.05,6.035-16.472a24.757,24.757,0,0,1,13.771-7.26,33.185,33.185,0,0,1,33.912,15.324c7.147,12.117,5.692,27.3,3.3,41.161q-2.19,12.688-5.164,25.227c1.849-4.006,7.531-4.432,11.159-1.916s5.364,6.937,6.594,11.174C399.918,262.11,398.237,280.9,391.177,298.993Z" transform="translate(239.299 -59.091)" fill="#e8a628"/>
        </g>
        <path id="Path_694" data-name="Path 694" d="M401.608,156.067c-3.422-4.55-22.246,11.784-22.246,11.784s23.183-22.84,21.211-26.734c-3.125-6.148-29.07,20.237-29.07,20.237s27.518-29.439,21.385-33.85-30.059,27.81-30.059,27.81,20.632-31.7,14.745-34.557-30.93,39.061-30.93,39.061-3.678-24.423-8.7-23.993c-8.474.722-2.833,52.924-2.833,52.924l22.2,18.316S405.035,160.612,401.608,156.067Z" transform="translate(450.101 -120.618)" fill="#d77062"/>
        <path id="Path_695" data-name="Path 695" d="M225.523,158c3.868-4.176,20.939,13.987,20.939,13.987s-20.75-25.074-18.388-28.747c3.73-5.8,26.867,23.076,26.867,23.076s-24.387-32.072-17.84-35.843,27.077,30.72,27.077,30.72-17.307-33.635-11.159-35.879,26.811,42,26.811,42,6.133-23.921,11.087-22.983c8.356,1.578-2.557,52.94-2.557,52.94L264.42,213.237S221.655,162.183,225.523,158Z" transform="translate(4.792 -101.588)" fill="#d77062"/>
        <path id="Path_696" data-name="Path 696" d="M282.06,184.042a737.8,737.8,0,0,1-29.946,119.282" transform="translate(115.456 140.904)" fill="none" stroke="#d88f25" stroke-miterlimit="10" stroke-width="0.997"/>
        <path id="Path_697" data-name="Path 697" d="M325.049,181.922q28.7,45.788,57.4,91.575-1.237-1.2-2.464-2.4" transform="translate(416.195 132.162)" fill="none" stroke="#d88f25" stroke-miterlimit="10" stroke-width="0.997"/>
        <path id="Path_698" data-name="Path 698" d="M319.573,186.541a14.534,14.534,0,0,1-28.932-1.445Z" transform="translate(274.318 145.25)" fill="#fff"/>
        <path id="Path_699" data-name="Path 699" d="M352.341,233.173a338.533,338.533,0,0,1-73.3,64.872" transform="translate(226.486 343.489)" fill="none" stroke="#d88f25" stroke-miterlimit="10" stroke-width="0.499"/>
        <path id="Path_700" data-name="Path 700" d="M325.353,221.315a239.627,239.627,0,0,1-25.96,30.366" transform="translate(310.405 294.594)" fill="none" stroke="#d88f25" stroke-miterlimit="10" stroke-width="0.499"/>
        <path id="Path_701" data-name="Path 701" d="M297,266.8a179.934,179.934,0,0,0-13.587,34c-4.585,16.036-6.917,32.626-8.694,49.21a768.641,768.641,0,0,0-2.3,138.152" transform="translate(190.659 482.142)" fill="none" stroke="#6395ce" stroke-miterlimit="10" stroke-width="0.249"/>
        <path id="Path_702" data-name="Path 702" d="M292.883,267.847c-16.841,72.25-16.128,156.847-3.422,229.932" transform="translate(230.725 486.463)" fill="none" stroke="#6395ce" stroke-miterlimit="10" stroke-width="0.249"/>
        <path id="Path_703" data-name="Path 703" d="M266.951,311.922c18.526-2.372,36.479-2.367,54.728,1.655,46.49,10.237,67.839,70.293,77.527,110.711" transform="translate(176.635 661.556)" fill="none" stroke="#6395ce" stroke-miterlimit="10" stroke-width="0.249"/>
        <path id="Path_704" data-name="Path 704" d="M298.966,268.079c15.5,34.588,32.416,70.913,63.627,92.415,15.585,10.739,35.951,17.092,53.56,10.155" transform="translate(308.645 487.42)" fill="none" stroke="#6395ce" stroke-miterlimit="10" stroke-width="0.249"/>
        <path id="Path_705" data-name="Path 705" d="M354.266,265.676c-10.605,20.34-21.349,40.879-36.325,58.253s-34.8,31.54-57.418,35.351c-4.145.7-8.746,1.25-11.533,4.4" transform="translate(102.579 477.511)" fill="none" stroke="#6395ce" stroke-miterlimit="10" stroke-width="0.249"/>
        <path id="Path_706" data-name="Path 706" d="M579.644,312.05c-66.5,52.479-108.328,129.668-143.839,206.585-20.442,44.271-39.547,89.475-66.424,130.165s-62.495,77.173-107.391,96.212c-19.269,8.177-41.1,12.967-61.132,6.881" transform="translate(-95.891 668.729)" fill="none" stroke="#6395ce" stroke-miterlimit="10" stroke-width="0.249"/>
        <path id="Path_707" data-name="Path 707" d="M316.03,288.484q13.226,68.151,26.457,136.307c.523,2.695,1.081,5.477,2.659,7.716,1.972,2.8,5.221,4.355,8.295,5.861,38.963,19.095,74.386,54.948,74.811,98.338" transform="translate(379.006 571.557)" fill="none" stroke="#6395ce" stroke-miterlimit="10" stroke-width="0.249"/>
        <path id="Path_708" data-name="Path 708" d="M337.008,421.909A412.7,412.7,0,0,1,468.53,321.63c14.346-6.911,29.434-13.075,45.327-14.151s32.861,3.632,43.441,15.534" transform="translate(465.506 649.266)" fill="none" stroke="#6395ce" stroke-miterlimit="10" stroke-width="0.249"/>
        <path id="Path_709" data-name="Path 709" d="M180.55,395.324A366.45,366.45,0,0,1,280.5,453.869c10.6,8.73,22.855,18.7,36.361,16.19" transform="translate(-179.629 1012.099)" fill="none" stroke="#f8ebe5" stroke-miterlimit="10" stroke-width="0.249"/>
        <path id="Path_710" data-name="Path 710" d="M190.186,390.951a128.328,128.328,0,0,1,7.168,32.328" transform="translate(-139.896 994.067)" fill="none" stroke="#f8ebe5" stroke-miterlimit="10" stroke-width="0.249"/>
        <path id="Path_711" data-name="Path 711" d="M192.84,390.952a148.918,148.918,0,0,0,12,37.442" transform="translate(-128.952 994.071)" fill="none" stroke="#f8ebe5" stroke-miterlimit="10" stroke-width="0.249"/>
        <path id="Path_712" data-name="Path 712" d="M365.362,300.933c19.182-.077,32.907,17.46,48.242,28.983,25.663,19.295,61.137,23.7,83.839,46.4" transform="translate(582.42 622.889)" fill="none" stroke="#f8ebe5" stroke-miterlimit="10" stroke-width="0.249"/>
        <path id="Path_713" data-name="Path 713" d="M259.461,188.9a409.073,409.073,0,0,1,72.306,51.377" transform="translate(145.751 160.952)" fill="none" stroke="#f8ebe5" stroke-miterlimit="10" stroke-width="0.249"/>
        <path id="Path_714" data-name="Path 714" d="M273.456,199.922a603.049,603.049,0,0,1,90.7,1.353" transform="translate(203.458 201.854)" fill="none" stroke="#f8ebe5" stroke-miterlimit="10" stroke-width="0.249"/>
        <path id="Path_715" data-name="Path 715" d="M260.05,186.233a281.541,281.541,0,0,1,69.714,48.119" transform="translate(148.179 149.938)" fill="none" stroke="#f8ebe5" stroke-miterlimit="10" stroke-width="0.249"/>
        <path id="Path_716" data-name="Path 716" d="M273.956,195.573h77.916" transform="translate(205.519 188.451)" fill="none" stroke="#f8ebe5" stroke-miterlimit="10" stroke-width="0.249"/>
        <path id="Path_717" data-name="Path 717" d="M300.629,196.027q33.322-1.468,66.7-.738l-1.532,1.183" transform="translate(315.502 186.28)" fill="none" stroke="#f8ebe5" stroke-miterlimit="10" stroke-width="0.249"/>
        <path id="Path_718" data-name="Path 718" d="M313.4,238.709a213.029,213.029,0,0,1,58.284-54.169" transform="translate(368.166 142.957)" fill="none" stroke="#f8ebe5" stroke-miterlimit="10" stroke-width="0.249"/>
        <path id="Path_719" data-name="Path 719" d="M300.135,202.22l77.937-4.831" transform="translate(313.465 195.939)" fill="none" stroke="#f8ebe5" stroke-miterlimit="10" stroke-width="0.249"/>
        <path id="Path_720" data-name="Path 720" d="M314.658,239.788a209.465,209.465,0,0,1,62.393-52.4" transform="translate(373.349 154.713)" fill="none" stroke="#f8ebe5" stroke-miterlimit="10" stroke-width="0.249"/>
        <path id="Path_721" data-name="Path 721" d="M289.46,198.955c2.121,7.188.466,15.539,4.529,21.841,4.319,6.691,13.29,8.341,21.241,8.8,6.881.395,14.223.241,20.012-3.5,4.985-3.217,8.12-8.735,9.663-14.463s1.655-11.733,1.757-17.66" transform="translate(269.448 181.841)" fill="none" stroke="#f8ebe5" stroke-miterlimit="10" stroke-width="0.499"/>
      </g>
      <path id="Path_722" data-name="Path 722" d="M380.33,313.5v34.06" transform="translate(644.139 674.699)" fill="none" stroke="#f8ebe5" stroke-miterlimit="10" stroke-width="0.249"/>
      <path id="Path_723" data-name="Path 723" d="M387.563,317.454a165.662,165.662,0,0,0-3.366,17.875" transform="translate(660.084 691.012)" fill="none" stroke="#f8ebe5" stroke-miterlimit="10" stroke-width="0.249"/>
    </g>
    <g id="Group_269" data-name="Group 269" transform="translate(1704.814 250.281)">
      <path id="Path_724" data-name="Path 724" d="M503.985,378.781c-14.018-6.845-26.478-15.606-36.038-28.219-13.633-17.993-20.98-38.005-19.249-60.707,1.6-20.985,15.821-35.695,36.637-38.584a61.311,61.311,0,0,1,33.9,4.924c6.4,2.849,12.86,5.605,19.105,8.766,8.956,4.529,16.933,2.6,24.592-2.936a65.64,65.64,0,0,0,23.655-31.442c4.929-13.495,9.7-27.051,14.847-40.464,6.4-16.687,16.2-31.027,30.541-41.971,23.485-17.911,52.376-18.8,74.11-2.326,9.529,7.219,16.144,16.431,19.269,28.061,1.184,4.4,2.265,8.848,3.817,13.121,5.866,16.128,19.372,23.142,36.028,18.736,10.4-2.746,19.054-8.756,27.323-15.309a164.235,164.235,0,0,0,18.9-18.244c11.656-12.742,24.433-24.054,39.634-32.564,46.239-25.888,100-17.553,136.953,30.935,29.705,38.973,12.921,90.889-12.368,113.923a111.691,111.691,0,0,1-33.45,21.426c-24.362,9.852-48.79,19.546-73.162,29.367-3.9,1.568-7.711,3.361-11.492,5.2-19.479,9.447-29.1,25.53-31.176,46.623-1.24,12.557-2.177,25.145-3.668,37.672-3.018,25.34-15.247,45.608-35.039,61.347-18.772,14.924-40.546,15.877-60.43,2.352-9.842-6.691-19.018-14.356-28.435-21.656a133.326,133.326,0,0,0-21.016-13.91c-9.991-5.082-14.325-4.258-22.364,3.9-3.689,3.74-7.116,7.767-11.031,11.256-16.01,14.274-34.419,13.843-49.835-.881-8.459-8.074-14.566-17.922-21.093-27.461,4.842-6.281,9.483-11.937,18.567-13.331,7.572-1.158,12.383-7.429,13.495-15.565.666-4.852-.44-9.079-4.857-11.8-3.863-2.377-7.291-1.173-10.534,1.511-.979.809-2.075,2.024-4.539.374-4.411-7.193-2.557-15.211.021-23.276.635-1.983,1.47-4.345-.22-5.907-2.024-1.87-3.9.118-5.441,1.347-14.151,11.276-39.87,4.611-49.441-7.567-1.46-1.86-2.7-4.124-6.02-4.929-3.325,3.591-6.712,7.7-8.551,12.521C513.591,379.227,510.01,381.169,503.985,378.781Z" transform="translate(10.733 -125.241)" fill="#1f2241"/>
      <path id="Path_725" data-name="Path 725" d="M578.462,283.737a15.2,15.2,0,0,1-.692,1.9c-4.293,9.658-10.175,18.29-16.431,26.734-2.71,3.648-6.327,3.807-10.293,3.576-24.915-1.47-90.366,8.735-114.5,14.228C456.767,355.925,543.823,394.7,575.7,398.864c63.525,8.29,118.7-12.506,152.569-26.647-17.3-9.832-88.3-41.622-107.381-47.535-5.267-1.634-8.382-4.263-9.35-9.8-1.194-6.876-3.1-13.633-4.257-20.514-.871-5.175-1.343-8.336-.9-10.657,9.012-3.7,17.307-10.728,23.778-20.16.3-.251.64-.466.958-.7.1.077.164.185.261.261,8.146,6.286,20.965,3.33,28.645-6.609s7.3-23.091-.845-29.383c-4.416-3.407-10.19-4.017-15.79-2.352,2.065-28.681-11.656-53.631-33.481-58.145-24.51-5.072-49.907,17.532-56.721,50.491C547.025,246.894,558.179,274.868,578.462,283.737Z" transform="translate(-38.328 42.453)" fill="#d77062"/>
      <path id="Path_726" data-name="Path 726" d="M465.4,235.842c1.132,3.207,2.372,6.476,4.642,9.012,3.9,4.355,10.139,5.764,15.985,5.964,12.839.451,27.067-5.062,32.021-16.917a18.8,18.8,0,0,0,24.228,20.6c-5.549,9.437.031,23.424,10.544,26.457.584-16.579,13.895-31.837,30.238-34.654a163.691,163.691,0,0,0-16.964-58.637c-3.607-7.111-7.833-14.079-13.823-19.341-18.69-16.431-43.006-9.852-65.344-9.519-6.532.1-13.526-.128-18.865,4.258-7.757,6.389-10.062,18.977-10.651,28.353C456.453,206.572,460.4,221.661,465.4,235.842Z" transform="translate(47.095 6.637)" fill="#1f2241"/>
      <path id="Path_727" data-name="Path 727" d="M461.849,380.915c12.829-2.239,25.627-5.154,38.656-1.347a16.9,16.9,0,0,0,.743,4.1c5.856,13.018,1.706,23.629-7.455,33.389a128.513,128.513,0,0,1-17.947,16.016C460.317,444.4,444.855,455.8,431.36,469.627a40.136,40.136,0,0,1-16.656,10.58c-4.145,1.3-8.356,1.424-11.691-2.111-3.438-3.643-4.083-7.951-2.69-12.66,1.235-4.176,4-7.337,6.953-10.329,7.367-7.455,14.55-15.109,22.256-22.2C445.152,418.526,453.672,399.857,461.849,380.915Z" transform="translate(-190.538 915.841)" fill="#e7a729"/>
      <g id="Group_267" data-name="Group 267" transform="translate(36.553 126.419)">
        <g id="Group_266" data-name="Group 266">
          <path id="Path_728" data-name="Path 728" d="M448.432,866.006c-10.585-2.557-11.517-3.427-12.742-12.363-5.953-43.39-49.261-283.748-25.981-369.569,4.867-18.936,13.792-35.981,25.12-51.725,11.282-15.672,85.622-94.357,106.6-114.589a514.4,514.4,0,0,0,50.762-57.418c3.484-.087,6.978-.359,10.457-.225,17.5.651,35.008,2.142,52.494,1.978,42.775-.41,85.386,3,128.074,4.457,2.044.067,4.053.932,6.082,1.424,12.906,28.855,23.942,58.186,25.248,90.335.528,13.1-2.136,25.791-3.868,38.564-2.767,20.442-6.1,40.823-11.738,60.743-2.085,7.388-.953,8.761,7,7.557,11.753-1.778,23.624-3.335,35.09-6.327,36.857-9.622,74.658-15.626,110.6-28.788,3.294-1.2,6.625-2.193,9.535-4.206,2.8,1.875,3.894,4.816,4.785,7.839Q971.4,452.181,976.8,470.7c-.64,2.582-2.475,4.011-4.663,5.349-34.378,21.016-68.2,43.011-103.21,62.91-34.665,19.7-68.387,41.433-106.223,55.112-18.137,6.558-39.609,15.011-58.862,8.571-41.3-13.807-34.691-89.249-37.683-123.268-1.353-15.4-5.6-56.916-8.976-62.213-4.391,1.742-7.1,5.036-10.155,7.808C606.186,461.956,562.668,495.6,518,527.771c-20.022,14.422-20.073,14.14-20.652,38.845-1.557,66.563-1.024,133.115.205,199.678.538,29.408.943,58.868-.625,88.276-.456,8.551-.681,8.541-9.842,10.088C474.059,860.852,461.261,863.767,448.432,866.006Z" transform="translate(-213.674 304.331)" fill="#dd6a3e"/>
          <path id="Path_729" data-name="Path 729" d="M937.028,305.046a22.62,22.62,0,0,0-4.565-1.885c-2.664-.794-5.472-1.107-8.213-1.655-13.7-2.741-27.42-5.369-41.084-8.254-18.347-3.873-35.607-10.831-52.689-18.214-.21.149-.4.3-.62.441-51.249,32.8-110.562,45.429-170.654,34.982C614,302.6,565.563,279.706,549.44,235.02c-.2-.01-.41-.031-.62-.036-3.837-.169-7.659-.825-11.5-.917-14.863-.359-27.738-6.01-39.983-14-14.079-9.2-27.159-19.689-40.439-29.936-11.292-8.71-16.369-7.178-21.549,6.276q-7.593,32.4-15.191,64.8c.241,5.292-8.372,54.272-9.35,73.9-.528,10.6.651,12.716,11.328,15.437C446.9,356.854,471.7,363,497.1,366.255c8.249,1.05,8.453,1.153,9.115,9.642.271,3.474-4.421,143.49-7.608,178.411-.871,9.524-.287,10.4,9.181,10.928,57.177,10.6,302.115,18.8,313.991,13.751,10.006-.533,14.55-4.877,15.519-14.75,1.435-14.6,9.458-119.7,9.494-125.277.026-4.57,2.275-7.3,7.157-6.922,19.623,1.5,72.358-2.29,79.889-13.51A684.773,684.773,0,0,1,937.028,305.046Z" transform="translate(-181.433 -6.502)" fill="#f9efe6"/>
          <path id="Path_730" data-name="Path 730" d="M565.713,305.656c-17.87-13.592-34.5-28.655-51.541-43.226C483.5,236.224,389.059,153.943,390.079,149.916c-14.407,5.707-9.9,8.9-24.121,15.011,5.487,7.47,10.354,15.4,15.9,22.789,45.767,61.06,95.74,118.145,154.065,167.6,10.155,8.607,21.072,16.364,30.792,25.417a114.163,114.163,0,0,0,37.974,23.88q7.6-32.4,15.191-64.8A390.645,390.645,0,0,1,565.713,305.656Z" transform="translate(-365.958 -149.916)" fill="#d77062"/>
          <path id="Path_731" data-name="Path 731" d="M804.235,208.787c-2.039,5.651-5.518,8.571-11.523,10.236-21.006,5.82-42.427,9.458-63.94,12.434-30.238,4.181-60.768,4.626-91.2,6.256-26.247,1.4-52.509,2.956-78.751.4-14.294-1.388-28.517-3.479-42.775-5.251-1.983,21.682-4.227,43.359-2,65.169.656,6.466,95.648,3.54,170.562-12.24,40.6-8.551,79.325-23.229,118.7-40.434C809.358,235.792,812.5,223.127,804.235,208.787Z" transform="translate(240.842 92.831)" fill="#d77062"/>
          <path id="Path_732" data-name="Path 732" d="M527.489,356.236q-5.418-18.506-10.846-37.006c-.892-3.023-1.983-5.964-4.785-7.839,2.085-4.406,3.73-9.094,6.338-13.167,8.213-12.829,21.006-13.8,31.463-2.751,5.4,5.707,9.729,12.322,11.235,19.863,3.868,19.356,16.441,32.769,29.782,45.716,6.291,6.107,12.46,12.235,17.215,19.653,3.325,5.185,4.969,10.759,3.853,16.943-1.409,7.808-6.63,11.389-14.381,9.729a19.348,19.348,0,0,1-11.344-7.08,106.312,106.312,0,0,1-8-11.01,47.586,47.586,0,0,0-16.846-16.9C550.42,366.047,540.609,357.65,527.489,356.236Z" transform="translate(235.638 418.792)" fill="#e7a729"/>
          <path id="Path_733" data-name="Path 733" d="M520.132,207.679A685.941,685.941,0,0,0,513.42,327.52" transform="translate(240.664 88.262)" fill="none" stroke="#f4d9c6" stroke-miterlimit="10" stroke-width="0.855"/>
        </g>
        <path id="Path_734" data-name="Path 734" d="M441.595,182.719a715.465,715.465,0,0,0-30.151,174.625" transform="translate(-178.402 -14.657)" fill="none" stroke="#f4d9c6" stroke-miterlimit="10" stroke-width="0.855"/>
      </g>
      <path id="Path_735" data-name="Path 735" d="M359.047,170.2c3.709-4.258,21.18,13.244,21.18,13.244S358.9,159.2,361.132,155.482c3.525-5.866,27.333,22.082,27.333,22.082s-25.146-31.078-18.767-35.013S397.477,172.2,397.477,172.2s-18.173-32.836-12.143-35.239S413.18,177.8,413.18,177.8s5.364-23.906,10.308-23.127c8.336,1.317-.953,52.581-.953,52.581L399.27,223.812S355.332,174.459,359.047,170.2Z" transform="translate(-358.824 -77.315)" fill="#d77062"/>
      <path id="Path_736" data-name="Path 736" d="M638.2,236.576c-3.064-4.744-22.85,10.088-22.85,10.088s24.562-20.96,22.881-24.951c-2.654-6.307-30.2,17.963-30.2,17.963S637.35,212.5,631.6,207.69s-31.719,25.391-31.719,25.391,22.666-29.91,17.035-33.153S583.54,236.4,583.54,236.4s-1.911-24.428-6.912-24.362c-8.438.118-6.553,52.177-6.553,52.177l-.318,18.454S641.27,241.32,638.2,236.576Z" transform="translate(510.938 181.948)" fill="#d77062"/>
      <g id="Group_268" data-name="Group 268" transform="translate(379.798 331.798)">
        <path id="Path_737" data-name="Path 737" d="M639.657,202.895c-3.294-2.142-15.934-6.461-17.312-6.466.512,2.849,1.419,6.814,1.419,6.814s1.6.487,2.147.62c22.835,5.62,35.049,31.57,20.55,51.859-10.206,14.289-31.365,18.193-45.654,27.385-30.008,19.31-49.266,64.406-87.1,69.534-43.969,5.958-76.215-49.333-74.279-87.563a63.726,63.726,0,0,1,26.227-48.559c17.051-12.127,35.208-9.755,54.461-5.871,14.463,2.915,29.756,5.62,43-2.669,4.76-2.977,8.31-6.835,13.526-9.135A27.5,27.5,0,0,1,587.68,196.6q1.614-3.22,3.156-6.481c-6.532-.394-13.034.118-18.864,3.33-11.251,6.2-17.542,14.289-31.806,13.787-11.82-.415-23.2-4.268-34.865-5.846-40.085-5.436-72.26,28.138-72.347,67.378-.082,38.174,29.562,88.214,71.4,90.684,20.98,1.24,39.2-11.415,53.273-25.694,18.342-18.608,33.061-39.035,56.905-51.219,19.428-9.924,41.156-16.5,44.251-41.5C660.765,225.038,652.6,210.723,639.657,202.895Z" transform="translate(-432.954 -190.003)" fill="#d88f25"/>
      </g>
      <path id="Path_738" data-name="Path 738" d="M493.6,193.358a9.392,9.392,0,1,1-8.7-10.037A9.391,9.391,0,0,1,493.6,193.358Z" transform="translate(119.545 114.147)" fill="#d88f25"/>
      <path id="Path_739" data-name="Path 739" d="M491.684,186.28a14.536,14.536,0,0,1-28.757-3.51Z" transform="translate(70.434 111.977)" fill="#fff"/>
      <path id="Path_740" data-name="Path 740" d="M474.513,261.9c16.543,24.331,17.425,55.686,17.6,85.109.348,57.833.087,116.47-15.119,172.268" transform="translate(118.208 438.271)" fill="none" stroke="#c34622" stroke-miterlimit="10" stroke-width="0.249"/>
      <path id="Path_741" data-name="Path 741" d="M475.774,352.647Q575.4,328.47,673.321,297.832" transform="translate(123.407 586.416)" fill="none" stroke="#c34622" stroke-miterlimit="10" stroke-width="0.249"/>
      <path id="Path_742" data-name="Path 742" d="M467.42,340.249a210.065,210.065,0,0,0-18.285-59.277" transform="translate(13.565 516.896)" fill="none" stroke="#c34622" stroke-miterlimit="10" stroke-width="0.249"/>
      <path id="Path_743" data-name="Path 743" d="M593.131,287.764c-27.682,19.2-86.319,53.319-150.371,105.531a69.508,69.508,0,0,0-25.627,54.754l3.945,300.978" transform="translate(-118.417 544.902)" fill="none" stroke="#c34622" stroke-miterlimit="10" stroke-width="0.249"/>
      <line id="Line_2" data-name="Line 2" y1="84.279" x2="101.123" transform="translate(212.473 1309.656)" fill="none" stroke="#d88f25" stroke-miterlimit="10" stroke-width="1.496"/>
      <path id="Path_744" data-name="Path 744" d="M515.259,288.238c13.915,8.971,16.728,27.63,23.414,42.77,8.146,18.424,23.137,32.856,38.441,45.957,7.618,6.522,16.246,15.242,13.654,24.93" transform="translate(286.218 546.857)" fill="none" stroke="#d88f25" stroke-miterlimit="10" stroke-width="0.249"/>
    </g>
    <g id="Group_271" data-name="Group 271" transform="translate(2787.807 152.133)">
      <path id="Path_745" data-name="Path 745" d="M591.1,126.752c5.149-2.316,13.7,20.888,13.7,20.888s-9.227-30.94-5.651-33.379c5.656-3.853,15.59,31.488,15.59,31.488S604.9,107,612.344,106.1s12.829,38.548,12.829,38.548-2.772-37.426,3.709-37.088,8.208,48.749,8.208,48.749,14.873-19.469,19.033-16.7c7.024,4.683-22.855,47.361-22.855,47.361l-28.051,5.308S585.948,129.067,591.1,126.752Z" transform="translate(-487.658 -106.084)" fill="#d77062"/>
      <path id="Path_746" data-name="Path 746" d="M774.571,192.977c-3.935-4.053-20.442,14.356-20.442,14.356s19.991-25.35,17.563-28.937c-3.833-5.666-26.109,23.516-26.109,23.516s23.444-32.385,16.861-35.971-26.145,31.1-26.145,31.1,16.385-33.763,10.231-35.843-25.607,42.283-25.607,42.283-6.645-23.583-11.538-22.538c-8.254,1.762,3.771,52.448,3.771,52.448l24.121,15.283S778.505,197.03,774.571,192.977Z" transform="translate(-8.249 120.875)" fill="#d77062"/>
      <g id="Group_270" data-name="Group 270" transform="translate(0 65.41)">
        <path id="Path_747" data-name="Path 747" d="M1276.864,415.853c-12.358-8.479-24.316-17.517-36.243-26.59-.523.815-1.066,1.686-1.665,2.705-19.458,32.887-39.844,65.128-63.2,95.438-6.189,8.033-11.389,16.83-18.075,24.52-5.421,6.235-5.513,6.261-10.734-.22-12.127-15.032-22.671-31.165-32.687-47.637-11.343-18.654-24.213-36.151-40.09-51.152-22.768-21.5-49.461-35.633-80.9-38.845-17.414-1.783-35.013-1.122-52.52.128-3.084,12.865-5.738,25.853-14.884,36.289-10.728,12.24-26.431,14.679-40.541,6.394-12.127-7.116-17.568-18.372-20.412-31.4-.743-3.392-1.255-6.829-1.87-10.247-17.127-.83-34.178-3.171-51.372-2.7-3.714.1-6.691-1.465-9.77-3.248a308.165,308.165,0,0,0-52.453-23.9c-24.593-8.612-45.952-23.742-69.489-34.475-3.6-1.645-3.935-4.006-3.259-7.618,5.559-29.567,10.79-59.2,16.374-88.762s13.6-58.622,18.434-88.358c.113-.676.195-1.317.256-1.921-20.468-1.455-40.925-2.772-61.219-5.41-.436.825-.851,1.691-1.25,2.618-11.8,27.738-22.835,55.742-32,84.464-8.2,25.694-16.743,51.264-26.155,76.548-5.743,15.426-11.246,30.94-14.3,47.212a51.426,51.426,0,0,0,3.177,30.832c6.783,15.642,16.948,28.952,27.943,41.761,29.854,34.767,62.572,61.4,98.907,89.111,5.3,4.042,10.667,8.151,14.689,13.464,16.892,22.333,16.144,74.863,18.531,102.754,2.531,29.526-25.847,55.107-30,83.552-2.618,17.968,1.614,36.176,10.805,51.741,9.637,16.318,25.791,35.208,42.078,45.27,26.083,16.118,54.554,25.058,84.946,28.1,17.122,1.716,34.311,2.347,51.377-.087,28.722-4.094,52.433-18.705,74.407-36.668,2.162-1.768,4.242-3.632,6.363-5.451,3.766-5.031,7.793-9.9,11.256-15.135,13.771-20.837,17.788-43.928,14.469-68.315-4.914-36.094-1.6-71.942,2.234-107.821.62-5.764,2.987-9.9,8.715-11.825,5.421-1.819,7.5,2.71,10.3,5.456q31.194,30.471,64.519,58.591a174.6,174.6,0,0,0,36.965,23.8c13.987,6.717,27.077,4.719,39.671-3.648,8.392-5.574,14.35-13.3,19.33-21.815,13.941-23.865,28.327-47.463,40.3-72.45,12.547-26.185,26-51.936,38.625-78.08,9.33-19.315,17.04-39.25,20.939-60.5C1283.77,420.274,1280.22,418.153,1276.864,415.853Z" transform="translate(-547.097 -118.851)" fill="#1f2241"/>
        <path id="Path_748" data-name="Path 748" d="M786.083,260.845c26.083,16.118,54.554,25.058,84.951,28.1,17.117,1.716,34.306,2.347,51.372-.087,28.722-4.094,52.433-18.705,74.407-36.668,2.162-1.768,4.242-3.632,6.363-5.451,9.575,18.588,20.939,36.238,26.16,56.951,12.476,49.487,3.638,94.219-28.337,134.2-25.232,31.555-53.011,60.569-84.812,85.622-2.977,2.347-5.364,5.436-8.028,8.182-2.572.251-4.468,1.716-6.415,3.289-8.141,6.589-16.144,13.387-24.618,19.53-26.042,18.875-51.644,38.39-79.878,54.067-10.359,5.749-10.109,6.3-3.294,16.759,12.419,19.049,25.622,37.585,37.2,57.182,10.488,11.835,19.31,24.92,28.025,38.031,11.83,17.793,22.794,36.161,34.68,53.918,4.14,6.184,5.851,11.584,1.209,17.911-11.031,12.414-20.427,26.011-29.214,40.06-4.775,3.74-7.562,9.094-11.082,13.833-2.48,3.34-4.708,3.586-7.69.907q-14.041-12.619-28.153-25.166c-6.512-5.815-12.8-11.9-20.125-16.738q-29.3-23.739-58.6-47.483c-19.008-15.38-37.856-30.961-57.115-46.018-12.931-10.1-24.2-22.256-38.3-30.894-12.87-12.86-25.673-25.781-38.63-38.543a213.257,213.257,0,0,1-24.372-28.9c-15.57-22-15.488-39.086.481-60.594,17.189-23.147,37.073-43.918,57.653-63.986,12.3-12,24.592-23.977,36.13-36.709,28.009-30.92,57.392-60.538,86.216-90.684,3.848-4.022,5.774-7.905,5.728-13.772C767.772,317.5,775.211,288.793,786.083,260.845Z" transform="translate(-570.206 408.483)" fill="#e8a628"/>
        <path id="Path_749" data-name="Path 749" d="M590.864,331.478c14.1,8.638,25.366,20.791,38.3,30.894,19.259,15.057,38.108,30.638,57.115,46.018q29.311,23.724,58.6,47.483c.6,12.306,4.442,23.952,7.352,35.782,9.673,39.3,19.049,78.659,27.036,118.34,1.558,7.747,1.26,7.854-5.9,10.365-3.945,1.383-7.951,2.587-11.927,3.873L711.862,639.6c-4.56,1.742-9.094,3.556-13.685,5.221-8.669,3.135-8.73,3.115-12-5.1-6.328-15.923-12.44-31.934-18.931-47.791-13.505-33.015-26.964-66.056-40.875-98.9-16.256-38.4-28.424-78.224-40.679-117.971C581.2,360.5,583.035,345.286,590.864,331.478Z" transform="translate(-516.274 757.89)" fill="#e28a21"/>
        <path id="Path_750" data-name="Path 750" d="M654.977,453.186c-11.578-19.6-24.781-38.133-37.2-57.182-6.814-10.457-7.065-11.01,3.294-16.759,28.235-15.677,53.836-35.192,79.878-54.067,8.474-6.143,16.477-12.942,24.618-19.53,1.947-1.573,3.843-3.038,6.415-3.289-7.491,14.95-14.781,30.008-22.507,44.84-16.6,31.878-33.456,63.627-50.132,95.469C657.585,446.018,655.054,449.108,654.977,453.186Z" transform="translate(-394.03 637.821)" fill="#e28a21"/>
        <path id="Path_751" data-name="Path 751" d="M646.426,403.989l49.569-15.37c.461,4.514.861,9.032,1.4,13.541,1.281,10.734-1.194,20.55-9.2,27.846-22.748,20.734-44.03,43.113-68.576,61.854-3.059,2.336-6.056,4.873-9.842,5.9-6.875,1.875-11.072-1.383-10.585-8.556.615-9.058,5.144-16.682,10.359-23.726a100.525,100.525,0,0,1,12.66-13.987c13.116-12.091,18.285-28.737,25.822-44.03C648.783,405.941,647.492,404.911,646.426,403.989Z" transform="translate(-450.838 993.503)" fill="#dd6a3e"/>
        <path id="Path_752" data-name="Path 752" d="M627.912,393.3c8.787-14.048,18.183-27.646,29.214-40.06,14.11,8.525,19.684,21,17.46,37.247-1.6,11.753-2.751,23.573-4.473,35.31a204.08,204.08,0,0,0-2.018,34.45,36.5,36.5,0,0,1-2.075,13.387c-2.628,7.229-9.2,8.771-14.858,3.52a27.825,27.825,0,0,1-7.859-13.408,152.206,152.206,0,0,1-4.278-20.458A266.636,266.636,0,0,0,627.912,393.3Z" transform="translate(-332.264 847.627)" fill="#dd6a3e"/>
        <path id="Path_753" data-name="Path 753" d="M722.843,161.089c-7.926-1.486-15.846,4.524-19.008,13.8-.584-.384-1.209-.83-1.911-1.383a27.5,27.5,0,0,1-9.017-11.815,25.67,25.67,0,0,1-1.655-7.726c-.174-2.936-.307-5.917-.435-9.683l-.087.041a24.335,24.335,0,0,0-8.986,6.266c-.774.779-1.968-1.962-2.726-1.2-10.826,10.913-21.185,12.235-37.862,13.393-2.09.143-4.032-1.055-6.045-1.578-1.4-1.142-2.721-2.239-3.945-3.376a68.137,68.137,0,0,0-1.752,15.473c0,13.516,3.878,25.822,10.221,35.223.1.149.2.292.3.441,5.943,8.612,13.977,14.673,23.076,16.794,1.855,2.316,2.429,5.241,1.952,9.217-.246,2.065.041,4.206-.323,6.24-2.177,12.168-6.2,22.942-20.212,25.95-1.542.328-1.747,2.024-2.408,3.207.615,3.417,1.127,6.855,1.87,10.247,2.844,13.024,8.285,24.28,20.412,31.4,14.11,8.285,29.813,5.846,40.541-6.394,9.146-10.436,11.8-23.424,14.884-36.289-16.933-11.056-26.478-26.416-27.467-46.853-.066-1.358-.353-2.746-.353-4.073a51.168,51.168,0,0,0,14.9-21.718,13.959,13.959,0,0,0,8.366,5.328c8.92,1.67,17.87-6.133,19.986-17.435S731.763,162.764,722.843,161.089Z" transform="translate(-326.075 -13.981)" fill="#d77062"/>
        <path id="Path_754" data-name="Path 754" d="M750.419,133.015c-9.9-8.725-22.174-9.909-34.45-3.95-12.229,5.964-18.188,15.78-18.321,29.413a82.242,82.242,0,0,0,1.932,16.5,68.269,68.269,0,0,0-23.645-8.105c-13.311-1.814-27.579,1.291-37.846,9.955s-15.805,23.188-12.255,36.14c3.9,14.228,17.225,22.635,30.551,26.785,19.955,6.2,37.447-5.226,53.7-15.514.108,2.874.22,5.339.364,7.741.482,8.2,4.34,14.6,10.652,19.546,4.6,3.6,6.4,3.643,9.073-.435.215-.395.482-.789.743-1.225,1.271-2.065,2.239-4.34,3.335-6.486a103.321,103.321,0,0,0,2.408-24.505c21-2.1,31.729-16.215,34.229-32.431C774.3,164.7,766.286,146.95,750.419,133.015Z" transform="translate(-345.269 -91.992)" fill="#212443"/>
      </g>
      <path id="Path_755" data-name="Path 755" d="M827.088,253.1c22.374,38.133,9.668,87.63-12.8,125.707C766.6,459.619,682.5,510.74,601.762,558.562" transform="translate(-440.09 500.122)" fill="none" stroke="#d88f25" stroke-miterlimit="10" stroke-width="0.249"/>
      <path id="Path_756" data-name="Path 756" d="M599.11,309.809A2512.438,2512.438,0,0,0,769.647,534.218" transform="translate(-451.025 733.95)" fill="none" stroke="#d88f25" stroke-miterlimit="10" stroke-width="0.249"/>
      <path id="Path_757" data-name="Path 757" d="M694.334,394c-24.649,34.4-59.657,59.718-94.03,84.4" transform="translate(-446.098 1081.097)" fill="none" stroke="#f9efe6" stroke-miterlimit="10" stroke-width="0.249"/>
      <path id="Path_758" data-name="Path 758" d="M603.419,400.868q11.274,8.807,22.1,18.183" transform="translate(-433.258 1109.421)" fill="none" stroke="#f9efe6" stroke-miterlimit="10" stroke-width="0.249"/>
      <path id="Path_759" data-name="Path 759" d="M604.419,398.738q15.593,8.469,30.382,18.316" transform="translate(-429.134 1100.638)" fill="none" stroke="#f9efe6" stroke-miterlimit="10" stroke-width="0.249"/>
      <path id="Path_760" data-name="Path 760" d="M668.026,365.033a330.553,330.553,0,0,1-38.841,22.451" transform="translate(-327.011 961.659)" fill="none" stroke="#f9efe6" stroke-miterlimit="10" stroke-width="0.249"/>
      <path id="Path_761" data-name="Path 761" d="M668.944,368.307q-19.366,11.9-39.639,22.235" transform="translate(-326.52 975.159)" fill="none" stroke="#f9efe6" stroke-miterlimit="10" stroke-width="0.249"/>
      <path id="Path_762" data-name="Path 762" d="M649.305,356.753q-2.121,45.918-8.495,91.5c-.943,6.753-2.07,13.787-6.046,19.33" transform="translate(-304.006 927.518)" fill="none" stroke="#f9efe6" stroke-miterlimit="10" stroke-width="0.249"/>
      <ellipse id="Ellipse_6" data-name="Ellipse 6" cx="47.65" cy="54.759" rx="47.65" ry="54.759" transform="translate(338.035 86.194)" fill="#212443"/>
      <path id="Path_763" data-name="Path 763" d="M662.293,154.263a14.534,14.534,0,0,1-28.931-1.445Z" transform="translate(-309.792 86.618)" fill="#fff"/>
    </g>
  </g>
</svg>
