<svg xmlns="http://www.w3.org/2000/svg" xmlns:xlink="http://www.w3.org/1999/xlink" width="3464" height="1084" viewBox="0 0 3464 1084">
  <defs>
    <clipPath id="clip-path">
      <rect id="Rectangle_128" data-name="Rectangle 128" width="3464" height="1084" transform="translate(5100 -1464)" fill="#fff" stroke="#707070" stroke-width="1"/>
    </clipPath>
  </defs>
  <g id="bg_contact" data-name="bg contact" transform="translate(-5100 1464)" clip-path="url(#clip-path)">
    <g id="bg_contact-2" data-name="bg contact">
      <path id="Path_771" data-name="Path 771" d="M65.042,2686.888c21.943-3.657,95.086,80.457,1236.117-62.172s2234.52,0,2234.52,0,51.2,479.088,18.286,585.145-957,186.515-1750.607,91.429S591.672,3465.861,65.042,3392.718,65.042,2686.888,65.042,2686.888Z" transform="translate(5040 -3938)" fill="#69b047"/>
      <g id="Group_279" data-name="Group 279" transform="translate(5172.481 -971.648)">
        <path id="Path_62" data-name="Path 62" d="M243.826,576.461c-15.386-51.013-11.158-111.424,0-162.916,1.577-7.281-9.6-10.393-11.188-3.088-11.655,53.8-16.078,115.792,0,169.086C234.792,586.672,245.992,583.633,243.826,576.461Z" transform="translate(-222.173 -300.761)" fill="#529732"/>
        <path id="Path_63" data-name="Path 63" d="M239.2,411.91c-.115-7.457-11.716-7.481-11.6,0,.886,57.984,11.218,115.489,7.548,173.546-.473,7.457,11.127,7.432,11.6,0C250.414,527.4,240.088,469.894,239.2,411.91Z" transform="translate(-194.7 -300.673)" fill="#529732"/>
        <path id="Path_64" data-name="Path 64" d="M257.961,558.127c-11.8-47.712-11.789-96.753-11.115-145.594.1-7.469-11.5-7.469-11.6,0-.692,49.884-.522,99.981,11.522,148.682C248.563,568.459,259.751,565.389,257.961,558.127Z" transform="translate(-157.077 -297.521)" fill="#529732"/>
        <path id="Path_65" data-name="Path 65" d="M254.788,415.641c.133-7.469-11.467-7.469-11.6,0-.928,50.546,10.2,100.345,7.542,150.909-.394,7.463,11.212,7.444,11.606,0C265,515.987,253.865,466.187,254.788,415.641Z" transform="translate(-115.971 -281.767)" fill="#529732"/>
        <path id="Path_66" data-name="Path 66" d="M262.208,408.8c-.018-7.463-11.625-7.475-11.606,0,.188,71.7,3.5,143.349,3.774,215.045.03,7.469,11.631,7.481,11.606,0C265.7,552.151,262.4,480.5,262.208,408.8Z" transform="translate(-78.119 -316.427)" fill="#529732"/>
        <path id="Path_67" data-name="Path 67" d="M268.782,409.839c-1.511-7.3-12.7-4.211-11.188,3.088a738.9,738.9,0,0,1,14.883,183.32c-.346,7.463,11.255,7.451,11.6,0C286.971,533.786,281.414,471.051,268.782,409.839Z" transform="translate(-43.399 -303.917)" fill="#529732"/>
        <path id="Path_68" data-name="Path 68" d="M275.884,413.778c-.1-7.463-11.7-7.481-11.6,0,.728,53.033,8.585,105.533,11.315,158.457.382,7.426,11.989,7.475,11.6,0C284.469,519.311,276.612,466.811,275.884,413.778Z" transform="translate(-8.796 -291.22)" fill="#529732"/>
        <path id="Path_69" data-name="Path 69" d="M283.728,407.963c-1.656-7.281-12.844-4.2-11.188,3.082,13.639,60.15,7.663,122.229,7.335,183.326-.042,7.463,11.564,7.475,11.6,0C291.81,532.17,297.616,469.193,283.728,407.963Z" transform="translate(32.201 -313.356)" fill="#529732"/>
        <path id="Path_70" data-name="Path 70" d="M288.96,410.047c.085-7.469-11.515-7.475-11.6,0-.7,62.534,15.022,123.146,22.637,184.861.9,7.317,12.517,7.408,11.6,0C303.989,533.235,288.262,472.527,288.96,410.047Z" transform="translate(57.354 -310.125)" fill="#529732"/>
        <path id="Path_71" data-name="Path 71" d="M295.781,409.425c-.012-7.463-11.618-7.481-11.6,0,.121,55.842,16.418,110.1,15.089,166-.176,7.469,11.431,7.463,11.606,0C312.205,519.5,295.909,465.268,295.781,409.425Z" transform="translate(92.032 -313.277)" fill="#529732"/>
        <path id="Path_72" data-name="Path 72" d="M303.244,406.938c-.049-7.463-11.655-7.481-11.6,0,.455,63.068,8.112,125.7,11.315,188.635.382,7.432,11.989,7.475,11.606,0C311.355,532.638,303.7,470.007,303.244,406.938Z" transform="translate(129.843 -325.879)" fill="#529732"/>
        <path id="Path_73" data-name="Path 73" d="M327.579,551.221c-12.31-47.106-4-96.723-18.863-143.361-2.263-7.087-13.469-4.059-11.188,3.082,14.828,46.547,6.553,96.262,18.863,143.367C318.278,561.523,329.472,558.465,327.579,551.221Z" transform="translate(158.122 -313.252)" fill="#529732"/>
        <path id="Path_74" data-name="Path 74" d="M317.545,405.07c-.024-7.463-11.631-7.475-11.6,0a1245.9,1245.9,0,0,0,11.528,167.545c1.025,7.366,12.207,4.229,11.188-3.088C321.046,514.935,317.764,460.178,317.545,405.07Z" transform="translate(202.314 -335.333)" fill="#529732"/>
        <path id="Path_75" data-name="Path 75" d="M324.386,401.339c-.115-7.457-11.722-7.481-11.6,0,1.068,65.738,15.5,130.378,15.089,196.182-.042,7.469,11.558,7.481,11.606,0C339.888,531.717,325.454,467.077,324.386,401.339Z" transform="translate(236.973 -354.238)" fill="#529732"/>
        <path id="Path_76" data-name="Path 76" d="M331.233,399.476c.018-7.469-11.582-7.475-11.606,0-.212,69.578,16.193,137.889,15.089,207.5-.115,7.469,11.485,7.475,11.606,0C347.42,537.365,331.015,469.055,331.233,399.476Z" transform="translate(271.631 -363.69)" fill="#529732"/>
        <path id="Path_77" data-name="Path 77" d="M352.767,577.782c-19.718-57.584-14.95-119.651-14.883-179.552.006-7.463-11.594-7.475-11.607,0-.06,60.939-4.763,124.044,15.3,182.634C343.982,587.89,355.194,584.875,352.767,577.782Z" transform="translate(302.706 -369.992)" fill="#529732"/>
        <path id="Path_78" data-name="Path 78" d="M346.216,395.121c.133-7.469-11.467-7.469-11.6,0-1.238,69.451,12.438,138.053,11.315,207.5-.115,7.469,11.485,7.469,11.606,0C358.659,533.174,344.984,464.572,346.216,395.121Z" transform="translate(347.189 -385.746)" fill="#529732"/>
        <path id="Path_79" data-name="Path 79" d="M364.175,596.023c-18.887-63.96-11.249-132.659-11.109-198.415.012-7.463-11.588-7.475-11.607,0-.139,66.848-7.681,136.451,11.528,201.5C355.1,606.253,366.3,603.213,364.175,596.023Z" transform="translate(374.297 -373.144)" fill="#529732"/>
        <path id="Path_80" data-name="Path 80" d="M377.379,593.486c-18.135-62.474-21.539-129.917-18.657-194.641.334-7.463-11.273-7.45-11.6,0-2.925,65.665.661,134.309,19.069,197.723C368.266,603.727,379.466,600.681,377.379,593.486Z" transform="translate(406.367 -366.833)" fill="#529732"/>
        <path id="Path_81" data-name="Path 81" d="M366.053,400.722c-.036-7.469-11.637-7.481-11.606,0a1206.468,1206.468,0,0,0,11.528,159.992c1.02,7.365,12.2,4.235,11.188-3.082A1182.554,1182.554,0,0,1,366.053,400.722Z" transform="translate(448.082 -357.389)" fill="#529732"/>
        <path id="Path_82" data-name="Path 82" d="M387.123,615.551c-18.7-72.1-11.261-147.433-11.115-221.052.018-7.463-11.588-7.475-11.6,0-.152,74.711-7.445,150.976,11.528,224.134C377.8,625.859,389,622.8,387.123,615.551Z" transform="translate(490.943 -388.898)" fill="#529732"/>
        <path id="Path_83" data-name="Path 83" d="M381.3,396.175c-1.31-7.335-12.5-4.229-11.188,3.088,11.309,63.135,11.145,126.95,11.115,190.867-.006,7.463,11.594,7.475,11.6,0C392.868,525.139,392.8,460.353,381.3,396.175Z" transform="translate(526.94 -373.251)" fill="#529732"/>
      </g>
      <g id="Group_280" data-name="Group 280" transform="translate(8271.199 -1214.495)">
        <path id="Path_84" data-name="Path 84" d="M205.285,404.081c-7.658.924-16.136,5.285-23.773,11.208-12.527,2.8-24.614,8.125-28.457,20.627-6.688,21.757,14.355,33,32.932,31.684,18.787-1.327,33.242-10.809,40.439-28.592C232.777,423.317,225.572,401.636,205.285,404.081Z" transform="translate(-64.293 -293.64)" fill="#529732"/>
        <path id="Path_85" data-name="Path 85" d="M179.662,436.921a7.338,7.338,0,0,0,.718,2.185c5.726,31,60.788,39.762,66.468,3.457C253.889,397.515,173.314,396.713,179.662,436.921Z" transform="translate(23.795 -281.365)" fill="#529732"/>
        <path id="Path_86" data-name="Path 86" d="M226.76,446.634c-.781-11.679-8.293-18.157-17.758-20.278a7.808,7.808,0,0,0-6.209-4.39c-13.519-1.651-27.617,3.142-34.448,15.586-5.655,10.3-5.117,23.845,2.6,32.961C189.8,492.794,228.634,474.68,226.76,446.634Z" transform="translate(-23.396 -236.789)" fill="#529732"/>
        <path id="Path_87" data-name="Path 87" d="M223.769,386.792c-8.394-4.331-17.821-5.915-25.668-2.911-7.2,2.756-12.456,8.931-17.388,14.872-31.419,37.868,36.065,62.158,59.952,32.5C253.437,415.392,240.695,395.517,223.769,386.792Z" transform="translate(2.1 -362.643)" fill="#529732"/>
        <path id="Path_88" data-name="Path 88" d="M237.71,399.977c-4.428-30.453-36.536-23.967-56.911-14.229-19.858,9.49-54.613,41.686-26.743,62.754,6.6,4.982,14.985,5.919,23.614,4.318a7.657,7.657,0,0,0,7.789.718C209.257,442.721,242.512,432.988,237.71,399.977Z" transform="translate(-90.336 -377.647)" fill="#529732"/>
        <path id="Path_89" data-name="Path 89" d="M170.113,422.828c-14.888-1.764-33.885,4.9-33.637,22.66.391,27.865,59.062,35.423,65.56,10.834a16.651,16.651,0,0,0-.55-8.919C197.243,433.175,184.409,424.521,170.113,422.828Z" transform="translate(-113.308 -233.9)" fill="#529732"/>
        <path id="Path_90" data-name="Path 90" d="M146.1,404.316c-10.729,4.68-16.6,14.876-14.825,26.5,4.617,30.285,40.548,22.963,53.029,2.218C198.43,409.55,163.159,396.872,146.1,404.316Z" transform="translate(-130.959 -299.092)" fill="#529732"/>
      </g>
    </g>
  </g>
</svg>
