<svg xmlns="http://www.w3.org/2000/svg" width="202.617" height="87.016" viewBox="0 0 202.617 87.016">
  <g id="iceaa_logo" data-name="iceaa logo" transform="translate(-39.779 -37.812)">
    <path id="Path_404" data-name="Path 404" d="M782.184,398.314a2.451,2.451,0,1,1-1.657-3.2A2.558,2.558,0,0,1,782.184,398.314Z" transform="translate(-657.979 -318.663)" fill="#fff"/>
    <path id="Path_405" data-name="Path 405" d="M39.779,463.549h9.7A84.313,84.313,0,0,1,63.53,433.085c1.15-1.582.382-2.654-1.456-1.442C46.741,441.745,40.724,458.671,39.779,463.549Z" transform="translate(0 -350.858)" fill="#fff"/>
    <path id="Path_406" data-name="Path 406" d="M252.745,40.614C202,66.623,189.055,93.581,185.582,112.691H171.705c10.834-46.19,51.985-65.57,80.252-74.343C256.676,36.888,256.556,38.665,252.745,40.614Z" transform="translate(-117.687)" fill="#fff"/>
    <path id="Path_407" data-name="Path 407" d="M388.507,197.393c-19.288,13.765-32.451,35.57-33.477,55.836H339.821c5.668-31.341,33.513-50.961,48.152-57.44C390.61,194.617,390.411,196.038,388.507,197.393Z" transform="translate(-267.657 -140.538)" fill="#fff"/>
    <path id="Path_408" data-name="Path 408" d="M531.971,367.492c-8.106,10.639-10.556,25.66-11.648,37.213H507.939c4.384-25.719,15.069-33.334,22.335-38.7C532.852,364.113,533.315,365.732,531.971,367.492Z" transform="translate(-417.629 -292.014)" fill="#fff"/>
    <path id="Path_409" data-name="Path 409" d="M674.8,453.4c-3.45,8.1-4.425,18.1-1.513,28.939h-9.607c1.292-16.419,6.263-25.4,9.824-29.423C674.723,451.534,675.246,452.344,674.8,453.4Z" transform="translate(-556.557 -369.646)" fill="#fff"/>
    <g id="Group_147" data-name="Group 147" transform="translate(107.175 117.389)">
      <path id="Path_410" data-name="Path 410" d="M666.583,775.517h.6v2.7h-.6Z" transform="translate(-666.325 -775.47)" fill="#fff"/>
      <path id="Path_411" data-name="Path 411" d="M693.433,775.517h.548l1.266,1.664v-1.664h.588v2.7h-.506L694.02,776.5v1.719h-.587Z" transform="translate(-690.277 -775.47)" fill="#fff"/>
      <path id="Path_412" data-name="Path 412" d="M735.833,776.065h-.823v-.547h2.24v.547h-.823v2.156h-.594Z" transform="translate(-727.366 -775.47)" fill="#fff"/>
      <path id="Path_413" data-name="Path 413" d="M775.079,775.517h2.039v.529h-1.449v.549h1.275v.529h-1.275v.568h1.467v.529h-2.058Z" transform="translate(-763.11 -775.47)" fill="#fff"/>
      <path id="Path_414" data-name="Path 414" d="M814.147,775.517h1.236a1.081,1.081,0,0,1,.788.274.846.846,0,0,1,.231.618v.008a.841.841,0,0,1-.579.839l.66.965h-.7l-.579-.865h-.468v.865h-.595Zm1.2,1.313c.29,0,.456-.155.456-.382v-.008c0-.255-.177-.387-.467-.387h-.591v.776Z" transform="translate(-797.962 -775.47)" fill="#fff"/>
      <path id="Path_415" data-name="Path 415" d="M855.115,775.517h.548l1.266,1.664v-1.664h.588v2.7h-.506L855.7,776.5v1.719h-.587Z" transform="translate(-834.508 -775.47)" fill="#fff"/>
      <path id="Path_416" data-name="Path 416" d="M897.487,775.341h.548l1.158,2.722h-.622l-.247-.607h-1.143l-.247.607h-.607Zm.626,1.591-.36-.878-.359.878Z" transform="translate(-871.272 -775.313)" fill="#fff"/>
      <path id="Path_417" data-name="Path 417" d="M937.655,776.065h-.823v-.547h2.24v.547h-.823v2.156h-.594Z" transform="translate(-907.405 -775.47)" fill="#fff"/>
      <path id="Path_418" data-name="Path 418" d="M977.147,775.517h.6v2.7h-.6Z" transform="translate(-943.368 -775.47)" fill="#fff"/>
      <path id="Path_419" data-name="Path 419" d="M1002.889,776.488v-.008a1.437,1.437,0,0,1,2.873-.008v.008a1.437,1.437,0,0,1-2.873.008Zm2.251,0v-.008a.821.821,0,0,0-.818-.849.808.808,0,0,0-.811.842v.008a.821.821,0,0,0,.818.85A.808.808,0,0,0,1005.14,776.488Z" transform="translate(-966.332 -775.082)" fill="#fff"/>
      <path id="Path_420" data-name="Path 420" d="M1049.516,775.517h.548l1.266,1.664v-1.664h.587v2.7h-.506l-1.31-1.719v1.719h-.587Z" transform="translate(-1007.926 -775.47)" fill="#fff"/>
      <path id="Path_421" data-name="Path 421" d="M1091.9,775.341h.548l1.159,2.722h-.621l-.247-.607h-1.144l-.247.607h-.607Zm.626,1.591-.36-.878-.358.878Z" transform="translate(-1044.698 -775.313)" fill="#fff"/>
      <path id="Path_422" data-name="Path 422" d="M1136.249,775.517h.6v2.162h1.347v.541h-1.943Z" transform="translate(-1085.298 -775.47)" fill="#fff"/>
      <path id="Path_423" data-name="Path 423" d="M1198.183,776.488v-.008a1.374,1.374,0,0,1,1.409-1.4,1.392,1.392,0,0,1,1.065.418l-.379.436a1,1,0,0,0-.691-.305.8.8,0,0,0-.784.842v.008a.8.8,0,0,0,.784.85.979.979,0,0,0,.712-.316l.379.382a1.386,1.386,0,0,1-1.109.483A1.365,1.365,0,0,1,1198.183,776.488Z" transform="translate(-1140.547 -775.082)" fill="#fff"/>
      <path id="Path_424" data-name="Path 424" d="M1240.4,777.061v-1.544H1241v1.53c0,.44.22.668.583.668s.584-.221.584-.649v-1.549h.594v1.525a1.089,1.089,0,0,1-1.186,1.22A1.073,1.073,0,0,1,1240.4,777.061Z" transform="translate(-1178.21 -775.47)" fill="#fff"/>
      <path id="Path_425" data-name="Path 425" d="M1282.943,775.517h.6v2.162h1.347v.541h-1.943Z" transform="translate(-1216.158 -775.47)" fill="#fff"/>
      <path id="Path_426" data-name="Path 426" d="M1315.639,776.065h-.823v-.547h2.24v.547h-.823v2.156h-.595Z" transform="translate(-1244.591 -775.47)" fill="#fff"/>
      <path id="Path_427" data-name="Path 427" d="M1354.486,777.061v-1.544h.594v1.53c0,.44.221.668.584.668s.584-.221.584-.649v-1.549h.594v1.525a1.089,1.089,0,0,1-1.186,1.22A1.073,1.073,0,0,1,1354.486,777.061Z" transform="translate(-1279.979 -775.47)" fill="#fff"/>
      <path id="Path_428" data-name="Path 428" d="M1397.027,775.517h1.236a1.082,1.082,0,0,1,.788.274.849.849,0,0,1,.232.618v.008a.84.84,0,0,1-.579.839l.66.965h-.694l-.581-.865h-.466v.865h-.6Zm1.2,1.313c.289,0,.455-.155.455-.382v-.008c0-.255-.178-.387-.468-.387h-.59v.776Z" transform="translate(-1317.929 -775.47)" fill="#fff"/>
      <path id="Path_429" data-name="Path 429" d="M1437.016,775.341h.548l1.159,2.722h-.621l-.247-.607h-1.144l-.247.607h-.607Zm.626,1.591-.36-.878-.358.878Z" transform="translate(-1352.568 -775.313)" fill="#fff"/>
      <path id="Path_430" data-name="Path 430" d="M1481.368,775.517h.6v2.162h1.347v.541h-1.943Z" transform="translate(-1393.166 -775.47)" fill="#fff"/>
      <path id="Path_431" data-name="Path 431" d="M1544.4,775.517h2.04v.529h-1.449v.549h1.275v.529h-1.275v.568h1.467v.529H1544.4Z" transform="translate(-1449.396 -775.47)" fill="#fff"/>
      <path id="Path_432" data-name="Path 432" d="M1584.142,775.517l-.9,1.32.943,1.383h-.7l-.605-.926-.61.926h-.676l.942-1.375-.9-1.328h.7l.563.876.576-.876Z" transform="translate(-1482.574 -775.47)" fill="#fff"/>
      <path id="Path_433" data-name="Path 433" d="M1621.873,776.488v-.008a1.374,1.374,0,0,1,1.41-1.4,1.392,1.392,0,0,1,1.065.418l-.378.436a1,1,0,0,0-.692-.305.8.8,0,0,0-.784.842v.008a.8.8,0,0,0,.784.85.979.979,0,0,0,.712-.316l.379.382a1.386,1.386,0,0,1-1.109.483A1.365,1.365,0,0,1,1621.873,776.488Z" transform="translate(-1518.506 -775.082)" fill="#fff"/>
      <path id="Path_434" data-name="Path 434" d="M1664.472,775.517h.6v1.07h1.1v-1.07h.594v2.7h-.594v-1.086h-1.1v1.086h-.6Z" transform="translate(-1556.507 -775.47)" fill="#fff"/>
      <path id="Path_435" data-name="Path 435" d="M1705.78,775.341h.548l1.159,2.722h-.621l-.247-.607h-1.144l-.247.607h-.607Zm.626,1.591-.36-.878-.358.878Z" transform="translate(-1592.322 -775.313)" fill="#fff"/>
      <path id="Path_436" data-name="Path 436" d="M1750.147,775.517h.549l1.267,1.664v-1.664h.587v2.7h-.505l-1.309-1.719v1.719h-.588Z" transform="translate(-1632.935 -775.47)" fill="#fff"/>
      <path id="Path_437" data-name="Path 437" d="M1792.41,776.488v-.008a1.389,1.389,0,0,1,1.417-1.4,1.486,1.486,0,0,1,1.062.371l-.375.452a1,1,0,0,0-.706-.274.812.812,0,0,0-.778.842v.008a.811.811,0,0,0,.82.857.955.955,0,0,0,.56-.163v-.386h-.6v-.513h1.175v1.175a1.765,1.765,0,0,1-1.156.429A1.353,1.353,0,0,1,1792.41,776.488Z" transform="translate(-1670.636 -775.082)" fill="#fff"/>
      <path id="Path_438" data-name="Path 438" d="M1836.661,775.517h2.04v.529h-1.449v.549h1.275v.529h-1.275v.568h1.467v.529h-2.059Z" transform="translate(-1710.111 -775.47)" fill="#fff"/>
      <path id="Path_439" data-name="Path 439" d="M665.35,818.346h.548l1.158,2.722h-.622l-.247-.607h-1.143l-.247.607h-.606Zm.626,1.591-.36-.878-.359.878Z" transform="translate(-664.192 -813.676)" fill="#fff"/>
      <path id="Path_440" data-name="Path 440" d="M706.985,819.491v-.008a1.388,1.388,0,0,1,1.417-1.4,1.485,1.485,0,0,1,1.062.371l-.375.452a1,1,0,0,0-.707-.274.811.811,0,0,0-.776.842v.008a.809.809,0,0,0,.818.857.949.949,0,0,0,.56-.163v-.386h-.6v-.513h1.174v1.175a1.759,1.759,0,0,1-1.155.429A1.353,1.353,0,0,1,706.985,819.491Z" transform="translate(-702.366 -813.443)" fill="#fff"/>
      <path id="Path_441" data-name="Path 441" d="M751.242,818.52h2.039v.529h-1.449v.549h1.275v.529h-1.275v.568H753.3v.529h-2.058Z" transform="translate(-741.846 -813.832)" fill="#fff"/>
      <path id="Path_442" data-name="Path 442" d="M790.311,818.52h.548l1.267,1.665V818.52h.587v2.7h-.506L790.9,819.5v1.719h-.587Z" transform="translate(-776.698 -813.832)" fill="#fff"/>
      <path id="Path_443" data-name="Path 443" d="M832.569,819.491v-.008a1.374,1.374,0,0,1,1.409-1.4,1.4,1.4,0,0,1,1.066.418l-.379.436a1,1,0,0,0-.691-.3.8.8,0,0,0-.784.842v.008a.8.8,0,0,0,.784.849.976.976,0,0,0,.71-.316l.379.382a1.382,1.382,0,0,1-1.108.483A1.365,1.365,0,0,1,832.569,819.491Z" transform="translate(-814.395 -813.443)" fill="#fff"/>
      <path id="Path_444" data-name="Path 444" d="M875.428,818.52h.6v2.7h-.6Z" transform="translate(-852.628 -813.832)" fill="#fff"/>
      <path id="Path_445" data-name="Path 445" d="M902.278,818.52h2.039v.529h-1.449v.549h1.275v.529h-1.275v.568h1.468v.529h-2.058Z" transform="translate(-876.58 -813.832)" fill="#fff"/>
      <path id="Path_446" data-name="Path 446" d="M939.63,820.506l.351-.421a1.244,1.244,0,0,0,.807.329c.243,0,.39-.1.39-.255v-.008c0-.15-.093-.228-.545-.344-.544-.139-.9-.289-.9-.826v-.008a.846.846,0,0,1,.947-.815,1.562,1.562,0,0,1,1,.344l-.309.448a1.269,1.269,0,0,0-.7-.266c-.228,0-.348.1-.348.236v.006c0,.178.117.236.584.357.548.142.857.34.857.81v.008c0,.537-.409.839-.992.839A1.722,1.722,0,0,1,939.63,820.506Z" transform="translate(-909.901 -813.509)" fill="#fff"/>
      <path id="Path_447" data-name="Path 447" d="M1004.149,818.346h.548l1.158,2.722h-.622l-.247-.607h-1.143l-.247.607h-.607Zm.626,1.591-.36-.878-.359.878Z" transform="translate(-966.422 -813.676)" fill="#fff"/>
      <path id="Path_448" data-name="Path 448" d="M1046.437,820.506l.351-.421a1.244,1.244,0,0,0,.807.329c.243,0,.39-.1.39-.255v-.008c0-.15-.093-.228-.545-.344-.544-.139-.9-.289-.9-.826v-.008a.846.846,0,0,1,.946-.815,1.562,1.562,0,0,1,1,.344l-.309.448a1.269,1.269,0,0,0-.7-.266c-.228,0-.348.1-.348.236v.006c0,.178.117.236.584.357.548.142.857.34.857.81v.008c0,.537-.409.839-.993.839A1.722,1.722,0,0,1,1046.437,820.506Z" transform="translate(-1005.179 -813.509)" fill="#fff"/>
      <path id="Path_449" data-name="Path 449" d="M1084.07,820.506l.352-.421a1.239,1.239,0,0,0,.806.329c.244,0,.391-.1.391-.255v-.008c0-.15-.092-.228-.544-.344-.545-.139-.9-.289-.9-.826v-.008a.846.846,0,0,1,.947-.815,1.565,1.565,0,0,1,1,.344l-.31.448a1.267,1.267,0,0,0-.7-.266c-.228,0-.347.1-.347.236v.006c0,.178.116.236.583.357.547.142.857.34.857.81v.008c0,.537-.41.839-.993.839A1.719,1.719,0,0,1,1084.07,820.506Z" transform="translate(-1038.75 -813.509)" fill="#fff"/>
      <path id="Path_450" data-name="Path 450" d="M1122.668,819.491v-.008a1.438,1.438,0,0,1,2.874-.008v.008a1.438,1.438,0,0,1-2.874.008Zm2.251,0v-.008a.821.821,0,0,0-.818-.85.809.809,0,0,0-.812.842v.008a.822.822,0,0,0,.82.849A.808.808,0,0,0,1124.919,819.491Z" transform="translate(-1073.182 -813.443)" fill="#fff"/>
      <path id="Path_451" data-name="Path 451" d="M1168.194,819.491v-.008a1.374,1.374,0,0,1,1.41-1.4,1.392,1.392,0,0,1,1.065.418l-.379.436a1,1,0,0,0-.692-.3.8.8,0,0,0-.784.842v.008a.8.8,0,0,0,.784.849.98.98,0,0,0,.712-.316l.379.382a1.386,1.386,0,0,1-1.109.483A1.365,1.365,0,0,1,1168.194,819.491Z" transform="translate(-1113.795 -813.443)" fill="#fff"/>
      <path id="Path_452" data-name="Path 452" d="M1211.053,818.52h.595v2.7h-.595Z" transform="translate(-1152.028 -813.832)" fill="#fff"/>
      <path id="Path_453" data-name="Path 453" d="M1236.909,818.346h.547l1.159,2.722h-.621l-.247-.607H1236.6l-.247.607h-.607Zm.626,1.591-.36-.878-.358.878Z" transform="translate(-1174.059 -813.676)" fill="#fff"/>
      <path id="Path_454" data-name="Path 454" d="M1277.071,819.068h-.823v-.547h2.24v.547h-.823v2.156h-.594Z" transform="translate(-1210.186 -813.832)" fill="#fff"/>
      <path id="Path_455" data-name="Path 455" d="M1316.57,818.52h.595v2.7h-.595Z" transform="translate(-1246.156 -813.832)" fill="#fff"/>
      <path id="Path_456" data-name="Path 456" d="M1342.311,819.491v-.008a1.438,1.438,0,0,1,2.874-.008v.008a1.438,1.438,0,0,1-2.874.008Zm2.251,0v-.008a.821.821,0,0,0-.818-.85.809.809,0,0,0-.812.842v.008a.822.822,0,0,0,.82.849A.808.808,0,0,0,1344.562,819.491Z" transform="translate(-1269.118 -813.443)" fill="#fff"/>
      <path id="Path_457" data-name="Path 457" d="M1388.925,818.52h.549l1.267,1.665V818.52h.587v2.7h-.505l-1.31-1.719v1.719h-.588Z" transform="translate(-1310.701 -813.832)" fill="#fff"/>
    </g>
    <g id="Group_148" data-name="Group 148" transform="translate(120.205 84.204)">
      <path id="Path_458" data-name="Path 458" d="M802.326,467.625a11.719,11.719,0,0,1,8.455,3.316,2.4,2.4,0,0,1,.733,2.369,3.456,3.456,0,0,1-1.184,2.013,3.119,3.119,0,0,1-2.085.829,2.634,2.634,0,0,1-1.8-.77,6.824,6.824,0,0,0-5.186-1.954,9.644,9.644,0,0,0-6.481,2.487,10.773,10.773,0,0,0-3.608,6.276,7.361,7.361,0,0,0,1.24,6.248,6.677,6.677,0,0,0,5.58,2.517A9.976,9.976,0,0,0,803.96,489a3.534,3.534,0,0,1,2.029-.77,2.213,2.213,0,0,1,1.8.829,2.343,2.343,0,0,1,.451,2.013,3.476,3.476,0,0,1-1.634,2.368,16.715,16.715,0,0,1-9.695,3.317,11.467,11.467,0,0,1-9.469-4.2q-3.382-4.205-2.254-10.364a17.353,17.353,0,0,1,6.087-10.363A16.669,16.669,0,0,1,802.326,467.625Z" transform="translate(-784.909 -467.625)" fill="#fff"/>
      <path id="Path_459" data-name="Path 459" d="M1052.337,496.76a11.583,11.583,0,0,1-9.5-4.174q-3.411-4.175-2.283-10.394a17.563,17.563,0,0,1,6.032-10.333,16.05,16.05,0,0,1,10.708-4.234,10.975,10.975,0,0,1,8.934,4,12.244,12.244,0,0,1,2.508,9.859,2.8,2.8,0,0,1-.846,1.629,2.367,2.367,0,0,1-1.746.74h-19.784a6.354,6.354,0,0,0,1.973,5.241,7.487,7.487,0,0,0,5.184,1.866,10.067,10.067,0,0,0,7.271-3.376,3.379,3.379,0,0,1,2.48-1.184,2.22,2.22,0,0,1,1.888.859,2.683,2.683,0,0,1,.422,2.16,3.772,3.772,0,0,1-1.07,2.013Q1059.043,496.762,1052.337,496.76Zm-4.792-17.528H1063.1a5.312,5.312,0,0,0-1.945-4.324,7.678,7.678,0,0,0-4.875-1.48,9.145,9.145,0,0,0-4.9,1.569A10.583,10.583,0,0,0,1047.545,479.232Z" transform="translate(-1012.713 -467.625)" fill="#fff"/>
      <path id="Path_460" data-name="Path 460" d="M1337.15,472.244l.282-1.48a3.74,3.74,0,0,1,1.269-2.221,3.382,3.382,0,0,1,2.282-.918,2.319,2.319,0,0,1,1.945.918,2.729,2.729,0,0,1,.479,2.221l-4.283,22.858a3.758,3.758,0,0,1-1.269,2.221,3.393,3.393,0,0,1-2.282.917,2.318,2.318,0,0,1-1.945-.917,2.718,2.718,0,0,1-.479-2.221l.281-1.48a14.165,14.165,0,0,1-10.652,4.618,10.368,10.368,0,0,1-8.794-4.2q-3.156-4.205-2.029-10.364a17.788,17.788,0,0,1,5.862-10.363,15.3,15.3,0,0,1,10.37-4.2Q1334.5,467.625,1337.15,472.244Zm-5.805,16.4a11.229,11.229,0,0,0,3.776-6.455,7.616,7.616,0,0,0-1.325-6.425,6.737,6.737,0,0,0-5.608-2.634,9.789,9.789,0,0,0-6.566,2.634,11.159,11.159,0,0,0-3.749,6.425,7.612,7.612,0,0,0,1.325,6.425,6.726,6.726,0,0,0,5.608,2.636A9.739,9.739,0,0,0,1331.344,488.647Z" transform="translate(-1254.803 -467.625)" fill="#fff"/>
      <path id="Path_461" data-name="Path 461" d="M1647.845,472.244l.282-1.48a3.741,3.741,0,0,1,1.269-2.221,3.382,3.382,0,0,1,2.282-.918,2.318,2.318,0,0,1,1.945.918,2.728,2.728,0,0,1,.479,2.221l-4.283,22.858a3.755,3.755,0,0,1-1.269,2.221,3.394,3.394,0,0,1-2.283.917,2.318,2.318,0,0,1-1.945-.917,2.718,2.718,0,0,1-.479-2.221l.282-1.48a14.166,14.166,0,0,1-10.652,4.618,10.367,10.367,0,0,1-8.793-4.2q-3.156-4.205-2.029-10.364a17.788,17.788,0,0,1,5.862-10.363,15.3,15.3,0,0,1,10.37-4.2Q1645.2,467.625,1647.845,472.244Zm-5.806,16.4a11.228,11.228,0,0,0,3.776-6.455,7.617,7.617,0,0,0-1.325-6.425,6.737,6.737,0,0,0-5.609-2.634,9.79,9.79,0,0,0-6.566,2.634,11.161,11.161,0,0,0-3.748,6.425,7.612,7.612,0,0,0,1.325,6.425,6.726,6.726,0,0,0,5.608,2.636A9.739,9.739,0,0,0,1642.039,488.647Z" transform="translate(-1531.964 -467.625)" fill="#fff"/>
    </g>
  </g>
</svg>
