<?xml version="1.0" encoding="utf-8"?>
<!-- Generator: Adobe Illustrator 17.0.0, SVG Export Plug-In . SVG Version: 6.00 Build 0)  -->
<!DOCTYPE svg PUBLIC "-//W3C//DTD SVG 1.1//EN" "http://www.w3.org/Graphics/SVG/1.1/DTD/svg11.dtd">
<svg version="1.1" id="Layer_1" xmlns="http://www.w3.org/2000/svg" xmlns:xlink="http://www.w3.org/1999/xlink" x="0px" y="0px"
	 width="511px" height="511px" viewBox="0 0 511 511" enable-background="new 0 0 511 511" xml:space="preserve">
<path fill="#FFFFFF" d="M510.5,150.235c-1.197-27.151-5.588-45.818-11.878-61.992c-6.489-17.169-16.471-32.54-29.55-45.319
	c-12.778-12.977-28.251-23.061-45.221-29.448c-16.268-6.29-34.837-10.68-61.988-11.878C334.509,0.3,325.825,0,256.448,0
	s-78.062,0.3-105.315,1.497c-27.151,1.197-45.818,5.592-61.988,11.878C71.972,19.863,56.6,29.846,43.822,42.924
	C30.845,55.703,20.765,71.175,14.374,88.146c-6.29,16.272-10.68,34.837-11.878,61.988c-1.298,27.354-1.599,36.038-1.599,105.416
	s0.3,78.062,1.497,105.315c1.197,27.151,5.592,45.818,11.881,61.992c6.489,17.169,16.568,32.54,29.546,45.319
	c12.778,12.977,28.251,23.061,45.221,29.448c16.272,6.29,34.837,10.68,61.992,11.878c27.249,1.201,35.937,1.497,105.315,1.497
	s78.062-0.296,105.315-1.497c27.151-1.197,45.818-5.588,61.988-11.878c34.342-13.277,61.493-40.429,74.771-74.767
	c6.286-16.272,10.68-34.841,11.878-61.992c1.197-27.253,1.497-35.937,1.497-105.315S511.697,177.488,510.5,150.235z
	 M464.483,358.868c-1.1,24.956-5.291,38.432-8.785,47.416c-8.586,22.262-26.255,39.93-48.516,48.516
	c-8.984,3.494-22.558,7.686-47.417,8.781c-26.953,1.201-35.036,1.497-103.217,1.497s-76.365-0.296-103.221-1.497
	c-24.956-1.096-38.432-5.288-47.416-8.781c-11.078-4.094-21.162-10.583-29.347-19.068c-8.485-8.286-14.974-18.269-19.068-29.347
	c-3.494-8.984-7.686-22.562-8.781-47.416c-1.201-26.953-1.497-35.04-1.497-103.221s0.296-76.365,1.497-103.217
	c1.096-24.956,5.288-38.432,8.781-47.416c4.094-11.082,10.583-21.162,19.169-29.351c8.282-8.485,18.265-14.974,29.347-19.064
	c8.984-3.494,22.562-7.686,47.416-8.785c26.953-1.197,35.04-1.497,103.217-1.497c68.282,0,76.365,0.3,103.221,1.497
	c24.956,1.1,38.432,5.291,47.417,8.785c11.078,4.09,21.162,10.579,29.347,19.064c8.485,8.286,14.974,18.269,19.068,29.351
	c3.494,8.984,7.686,22.558,8.785,47.416c1.197,26.953,1.497,35.036,1.497,103.217S465.681,331.915,464.483,358.868z"/>
<path fill="#FFFFFF" d="M256.448,124.281c-72.47,0-131.269,58.795-131.269,131.269s58.799,131.269,131.269,131.269
	c72.474,0,131.269-58.795,131.269-131.269S328.921,124.281,256.448,124.281z M256.448,340.701
	c-47.015,0-85.151-38.132-85.151-85.151s38.136-85.151,85.151-85.151c47.019,0,85.151,38.132,85.151,85.151
	S303.466,340.701,256.448,340.701z"/>
<path fill="#FFFFFF" d="M423.556,119.091c0,16.923-13.722,30.645-30.649,30.645c-16.923,0-30.645-13.722-30.645-30.645
	c0-16.927,13.722-30.645,30.645-30.645C409.834,88.446,423.556,102.164,423.556,119.091z"/>
</svg>
