<svg xmlns="http://www.w3.org/2000/svg" width="184" height="36.679" viewBox="0 0 184 36.679">
  <g id="navbar_shance" data-name="navbar shance" transform="translate(-26.857 -31.712)">
    <path id="Path_7" data-name="Path 7" d="M153,51.521a10.271,10.271,0,0,0-3.393-2.239q-.41-.179-.829-.342c-5.166-2.013-10.567-3.049-15.945-4.168q-.91-.189-1.822-.371c-6.166-1.229-12.374-2.216-18.549-3.392l-.989-.19c-3.125-.606-6.24-1.266-9.336-2.037a42.5,42.5,0,0,1-4.687-1.53c-.8-.3-1.928-.614-1.846-1.683a1.082,1.082,0,0,1,.033-.19l.393-.556a4.445,4.445,0,0,1,1.532-.5,39.176,39.176,0,0,1,3.9-.737,135.552,135.552,0,0,1,15.723-.839l1.131-.01c1.316-.01,2.633-.018,3.949-.03h9.959a42.27,42.27,0,0,0-9.943-.672q-1.678-.093-3.356-.159-.547-.022-1.095-.041c-5.958-.207-11.915-.161-17.873.175-.673.038-1.346.074-2.018.113q-.66.038-1.32.082a37.877,37.877,0,0,0-9.564,1.61c-.947.315-2.074.628-2.234,1.871-.157,1.224.811,1.875,1.637,2.471a25.38,25.38,0,0,0,4.239,2.411q.476.221.958.43c.754.33,1.515.644,2.276.957,4.284,1.763,8.513,3.653,12.615,5.819q.409.216.815.436c1.7.918,3.379,1.883,5.029,2.912a56.15,56.15,0,0,1,9.083,6.747,29.038,29.038,0,0,1,5.912,7.744c1.57,3.03,2.372,3.348,5.473,2.068q2.779-1.147,5.471-2.473a69.483,69.483,0,0,0,11.649-7.2,30.4,30.4,0,0,0,3.137-2.866C154.293,53.939,154.135,52.705,153,51.521Z" transform="translate(-57.944 0)" fill="#69b047"/>
    <g id="Group_22" data-name="Group 22" transform="translate(112.481 32.692)">
      <g id="Group_21" data-name="Group 21" transform="translate(0.161 0)">
        <path id="Path_91" data-name="Path 91" d="M23.788,510.1a10.293,10.293,0,0,0,5.4,1.6c3.079,0,4.879-1.707,4.879-4.178,0-2.288-1.246-3.6-4.394-4.868-3.806-1.417-6.158-3.487-6.158-6.938,0-3.814,3.01-6.648,7.542-6.648a10.191,10.191,0,0,1,5.155,1.2l-.831,2.579a8.944,8.944,0,0,0-4.428-1.163c-3.183,0-4.394,2-4.394,3.669,0,2.288,1.419,3.415,4.636,4.722,3.944,1.6,5.951,3.6,5.951,7.193,0,3.778-2.664,7.047-8.166,7.047a11.6,11.6,0,0,1-5.95-1.562Z" transform="translate(-23.027 -489.07)"/>
        <path id="Path_92" data-name="Path 92" d="M208.906,542.855v8.3h9.138v-8.3h2.466V562.69h-2.466v-9.3h-9.138v9.3h-2.439V542.855Z" transform="translate(-189.014 -537.738)"/>
        <path id="Path_93" data-name="Path 93" d="M388.042,556.451l-1.962,6.239h-2.522l6.418-19.835h2.943l6.447,19.835h-2.607l-2.019-6.239Zm6.194-2-1.849-5.71c-.421-1.294-.7-2.472-.981-3.62h-.056c-.28,1.177-.589,2.384-.953,3.591l-1.85,5.739Z" transform="translate(-349.256 -537.738)"/>
        <path id="Path_94" data-name="Path 94" d="M578.909,562.69V542.855h2.663l6.055,10.035a57.018,57.018,0,0,1,3.391,6.445l.056-.03c-.224-2.648-.279-5.062-.279-8.152v-8.3h2.3V562.69h-2.467l-6-10.064A64.055,64.055,0,0,1,581.1,546l-.084.029c.141,2.5.2,4.885.2,8.181v8.475Z" transform="translate(-526.022 -537.738)"/>
        <path id="Path_95" data-name="Path 95" d="M775.323,558.964a11.6,11.6,0,0,1-4.989.942c-5.326,0-9.334-3.532-9.334-10.035,0-6.21,4.008-10.418,9.866-10.418a9.713,9.713,0,0,1,4.485.883l-.589,2.089a8.529,8.529,0,0,0-3.812-.824c-4.428,0-7.372,2.972-7.372,8.181,0,4.856,2.663,7.976,7.26,7.976a9.365,9.365,0,0,0,3.98-.824Z" transform="translate(-690.788 -534.659)"/>
        <path id="Path_96" data-name="Path 96" d="M953.459,553.39h-7.344v7.151H954.3v2.148H943.676V542.855h10.2V545h-7.764v6.268h7.344Z" transform="translate(-856.084 -537.738)"/>
      </g>
      <path id="Path_97" data-name="Path 97" d="M22.157,773.623v6.7h-.824v-6.7Z" transform="translate(-21.333 -746.55)"/>
      <path id="Path_98" data-name="Path 98" d="M45.118,780.323v-6.7h.9l2.045,3.389a19.25,19.25,0,0,1,1.146,2.177l.019-.01c-.076-.895-.094-1.71-.094-2.753v-2.8h.776v6.7h-.833l-2.026-3.4a21.6,21.6,0,0,1-1.193-2.236l-.028.01c.047.845.066,1.65.066,2.763v2.863Z" transform="translate(-42.855 -746.55)"/>
      <path id="Path_99" data-name="Path 99" d="M104.881,774.359H102.94v-.736h4.724v.736h-1.95v5.964h-.833Z" transform="translate(-95.176 -746.55)"/>
      <path id="Path_100" data-name="Path 100" d="M163.367,777.182h-2.48V779.6h2.764v.726h-3.588v-6.7h3.446v.726h-2.622v2.117h2.48Z" transform="translate(-146.864 -746.55)"/>
      <path id="Path_101" data-name="Path 101" d="M209.026,773.239a8.176,8.176,0,0,1,1.581-.139,2.524,2.524,0,0,1,1.846.547,1.711,1.711,0,0,1,.5,1.272,1.75,1.75,0,0,1-1.2,1.71v.03a1.663,1.663,0,0,1,.937,1.352,11.115,11.115,0,0,0,.492,1.839h-.852a9.017,9.017,0,0,1-.426-1.6c-.189-.924-.53-1.272-1.278-1.3h-.776v2.9h-.824Zm.824,3.052h.842a1.278,1.278,0,0,0,1.439-1.272c0-.865-.6-1.243-1.467-1.252a3.233,3.233,0,0,0-.814.079Z" transform="translate(-191.169 -746.077)"/>
      <path id="Path_102" data-name="Path 102" d="M263.726,779.063a3.921,3.921,0,0,1-1.685.318,3.06,3.06,0,0,1-3.153-3.39,3.443,3.443,0,0,1,4.847-3.221l-.2.706a2.878,2.878,0,0,0-1.288-.278c-1.5,0-2.49,1-2.49,2.763a2.385,2.385,0,0,0,2.452,2.694,3.162,3.162,0,0,0,1.345-.278Z" transform="translate(-236.287 -745.51)"/>
      <path id="Path_103" data-name="Path 103" d="M317.426,778.215l-.663,2.107h-.852l2.168-6.7h.994l2.177,6.7h-.88l-.682-2.107Zm2.092-.676-.625-1.929c-.142-.437-.237-.835-.331-1.222h-.019c-.095.4-.2.805-.322,1.213l-.625,1.938Z" transform="translate(-287.884 -746.55)"/>
      <path id="Path_104" data-name="Path 104" d="M385.247,777.381c-.047-.935-.1-2.058-.095-2.893h-.028c-.218.785-.483,1.62-.8,2.545l-1.127,3.251h-.625l-1.032-3.191c-.3-.944-.559-1.809-.739-2.6h-.019c-.019.835-.067,1.958-.123,2.962l-.171,2.873H379.7l.445-6.7h1.051l1.089,3.24c.265.825.483,1.561.644,2.257h.029c.161-.676.388-1.411.672-2.257l1.136-3.24h1.051l.4,6.7h-.8Z" transform="translate(-345.604 -746.55)"/>
      <path id="Path_105" data-name="Path 105" d="M461.508,773.239a7.593,7.593,0,0,1,1.505-.139,2.547,2.547,0,0,1,1.752.487,1.432,1.432,0,0,1,.53,1.183,1.581,1.581,0,0,1-1.079,1.471v.02a1.7,1.7,0,0,1,1.316,1.68,1.85,1.85,0,0,1-.54,1.342,3.1,3.1,0,0,1-2.206.626,9.194,9.194,0,0,1-1.278-.08Zm.824,2.743h.748c.871,0,1.382-.477,1.382-1.123,0-.785-.568-1.093-1.4-1.093a3.371,3.371,0,0,0-.729.06Zm0,3.211a4.185,4.185,0,0,0,.691.04c.852,0,1.638-.328,1.638-1.3,0-.914-.748-1.292-1.647-1.292h-.682Z" transform="translate(-419.629 -746.077)"/>
      <path id="Path_106" data-name="Path 106" d="M516.269,773.623v6.7h-.824v-6.7Z" transform="translate(-468.435 -746.55)"/>
      <path id="Path_107" data-name="Path 107" d="M541.084,775.863c0,2.306-1.335,3.529-2.963,3.529-1.685,0-2.869-1.372-2.869-3.4,0-2.127,1.259-3.519,2.963-3.519C539.957,772.473,541.084,773.875,541.084,775.863Zm-4.951.109c0,1.432.738,2.714,2.035,2.714s2.045-1.262,2.045-2.783c0-1.332-.663-2.724-2.036-2.724S536.132,774.5,536.132,775.972Z" transform="translate(-486.357 -745.51)"/>
      <path id="Path_108" data-name="Path 108" d="M629.759,779.063a3.921,3.921,0,0,1-1.685.318,3.06,3.06,0,0,1-3.153-3.39,3.443,3.443,0,0,1,4.847-3.221l-.2.706a2.877,2.877,0,0,0-1.287-.278c-1.5,0-2.49,1-2.49,2.763a2.385,2.385,0,0,0,2.452,2.694,3.161,3.161,0,0,0,1.344-.278Z" transform="translate(-567.495 -745.51)"/>
      <path id="Path_109" data-name="Path 109" d="M687.353,773.623v3.966c0,1.5.634,2.137,1.486,2.137.947,0,1.553-.656,1.553-2.137v-3.966h.833v3.906c0,2.058-1.032,2.9-2.414,2.9-1.307,0-2.291-.785-2.291-2.863v-3.946Z" transform="translate(-623.233 -746.55)"/>
      <path id="Path_110" data-name="Path 110" d="M751.007,773.623h.824V779.6h2.726v.726h-3.55Z" transform="translate(-681.585 -746.55)"/>
      <path id="Path_111" data-name="Path 111" d="M783.5,774.359h-1.941v-.736h4.724v.736h-1.95v5.964H783.5Z" transform="translate(-709.23 -746.55)"/>
      <path id="Path_112" data-name="Path 112" d="M839.415,773.623v3.966c0,1.5.634,2.137,1.486,2.137.947,0,1.553-.656,1.553-2.137v-3.966h.833v3.906c0,2.058-1.032,2.9-2.414,2.9-1.307,0-2.291-.785-2.291-2.863v-3.946Z" transform="translate(-760.828 -746.55)"/>
      <path id="Path_113" data-name="Path 113" d="M903.074,773.239a8.175,8.175,0,0,1,1.581-.139,2.524,2.524,0,0,1,1.846.547,1.71,1.71,0,0,1,.5,1.272,1.75,1.75,0,0,1-1.2,1.71v.03a1.663,1.663,0,0,1,.937,1.352,11.111,11.111,0,0,0,.493,1.839h-.852a9.029,9.029,0,0,1-.426-1.6c-.189-.924-.53-1.272-1.278-1.3H903.9v2.9h-.824Zm.824,3.052h.843a1.278,1.278,0,0,0,1.439-1.272c0-.865-.6-1.243-1.467-1.252a3.233,3.233,0,0,0-.814.079Z" transform="translate(-819.184 -746.077)"/>
      <path id="Path_114" data-name="Path 114" d="M953.551,778.215l-.663,2.107h-.852l2.168-6.7h.994l2.177,6.7h-.88l-.682-2.107Zm2.092-.676-.625-1.929c-.142-.437-.236-.835-.331-1.222h-.019c-.095.4-.2.805-.322,1.213l-.625,1.938Z" transform="translate(-863.487 -746.55)"/>
      <path id="Path_115" data-name="Path 115" d="M1018.018,773.623h.824V779.6h2.726v.726h-3.55Z" transform="translate(-923.192 -746.55)"/>
    </g>
  </g>
</svg>
