<svg xmlns="http://www.w3.org/2000/svg" xmlns:xlink="http://www.w3.org/1999/xlink" width="3976" height="2143" viewBox="0 0 3976 2143">
  <defs>
    <clipPath id="clip-path">
      <rect id="Rectangle_129" data-name="Rectangle 129" width="3976" height="2143" transform="translate(13135 -2146)" fill="#fff" stroke="#707070" stroke-width="1"/>
    </clipPath>
  </defs>
  <g id="testimonial_bg" data-name="testimonial bg" transform="translate(-13135 2146)" clip-path="url(#clip-path)">
    <path id="Path_772" data-name="Path 772" d="M310.778,107.385c1040.75-359.615,4163,0,4163,0s1040.75,1078.845,0,1438.461-4163,0-4163,0S-729.972,467,310.778,107.385Z" transform="translate(12641 -2010.894)" fill="#f6f6f6"/>
    <g id="Group_283" data-name="Group 283" transform="translate(13088.497 -1533.089)">
      <path id="Path_84" data-name="Path 84" d="M357.486,404.621c-29.446,3.554-62.041,20.32-91.406,43.094-48.166,10.758-94.637,31.239-109.416,79.309C130.95,610.677,211.857,653.9,283.283,648.845c72.233-5.1,127.813-41.56,155.483-109.933C463.188,478.583,435.486,395.221,357.486,404.621Z" transform="translate(184.615 20.014)" fill="#e8e8e8"/>
      <path id="Path_85" data-name="Path 85" d="M180.676,519.978a28.216,28.216,0,0,0,2.762,8.4C205.454,647.566,417.163,681.26,439,541.671,466.072,368.469,156.27,365.384,180.676,519.978Z" transform="translate(601.595 78.118)" fill="#e8e8e8"/>
      <path id="Path_86" data-name="Path 86" d="M403.708,517.708c-3-44.9-31.885-69.81-68.276-77.967a30.02,30.02,0,0,0-23.873-16.879c-51.978-6.348-106.186,12.082-132.449,59.925-21.741,39.606-19.674,91.681,10,126.731C261.583,695.19,410.912,625.541,403.708,517.708Z" transform="translate(378.208 289.125)" fill="#e8e8e8"/>
      <path id="Path_87" data-name="Path 87" d="M369.547,399.475c-32.272-16.652-68.518-22.743-98.691-11.194-27.7,10.6-47.892,34.34-66.855,57.18-120.8,145.6,138.668,238.99,230.51,124.954C483.615,509.441,434.625,433.023,369.547,399.475Z" transform="translate(498.897 -306.625)" fill="#e8e8e8"/>
      <path id="Path_88" data-name="Path 88" d="M505.3,463.5c-17.025-117.088-140.477-92.15-218.816-54.708C210.133,445.283,76.5,569.074,183.659,650.078c25.359,19.157,57.616,22.758,90.793,16.6a29.439,29.439,0,0,0,29.946,2.763C395.9,627.852,523.763,590.428,505.3,463.5Z" transform="translate(61.337 -377.647)" fill="#e8e8e8"/>
      <path id="Path_89" data-name="Path 89" d="M265.815,423.607c-57.244-6.784-130.285,18.833-129.332,87.126,1.5,107.139,227.086,136.2,252.074,41.657,2.956-11.209,1.2-23.163-2.116-34.291C370.127,463.391,320.781,430.117,265.815,423.607Z" transform="translate(-47.406 302.802)" fill="#e8e8e8"/>
      <path id="Path_90" data-name="Path 90" d="M189.169,410.371c-41.253,17.995-63.834,57.2-57,101.905,17.751,116.443,155.9,88.289,203.891,8.529C390.379,430.5,254.763,381.749,189.169,410.371Z" transform="translate(-130.959 -5.797)" fill="#e8e8e8"/>
    </g>
    <g id="Group_284" data-name="Group 284" transform="translate(16601.717 -1677.988)" opacity="0.11">
      <path id="Path_46" data-name="Path 46" d="M370.546,377.454c-5.493-12.164-15.952-16.919-26.68-18.764a12.687,12.687,0,0,0-9.571-5.144c-22.652-1.256-45.983,14.9-55.634,39.721-10.927,28.076,3.509,53.59,27.957,58.227,24.666,4.676,50.14-10.639,62.115-37.14C373.806,403.138,375.821,389.139,370.546,377.454Zm-61.317,40.579a17.336,17.336,0,0,1-5.793-2.811,2.122,2.122,0,0,0-.708-.479c.06-.07.11-.339-.05-1.157.469,2.313-.01-.907.04-1.665.11-1.336-.179.389.438-1.974a23.689,23.689,0,0,1,2.622-6.2c5.474-9.612,14.218-15.325,23.64-16.421a12.887,12.887,0,0,0,8.525,4.177,26.75,26.75,0,0,1,7.777,2.124,37.134,37.134,0,0,1-4.547,9.911C333.477,414.932,321.363,421.642,309.229,418.033Z" transform="translate(-225.219 -129.138)" fill="#707070"/>
      <path id="Path_47" data-name="Path 47" d="M410.685,402.064c-14.028-44.318-58.814-49.911-90.091-30.449a14.371,14.371,0,0,0-6.022,7.268,73.453,73.453,0,0,0-19.851,81.058c11.236,30.4,39.153,48,66.332,39.333C393.766,488.846,423.637,443.022,410.685,402.064Zm-61.566,65.893c-13.061,1.585-25.075-9.2-29.572-23.51-6.251-19.861,4.8-35.016,18.844-43.829a14.534,14.534,0,0,0,3.9-3.629c16.59-6.122,38.814-3.131,43.121,20.469C389.568,440.26,366.985,465.794,349.119,467.958Z" transform="translate(-90.967 -61.902)" fill="#707070"/>
      <path id="Path_48" data-name="Path 48" d="M446.685,347.048c-.249-8.145-4.716-16.012-13.49-15.912-50.42.568-118.3,9.282-141.149,74.109-19.631,55.7,35.145,80.659,71.477,84.389C409.386,494.339,467.144,481,488.8,426.142,507.025,379.99,479.1,354.974,446.685,347.048Zm-2.463,90.959c-23.2,18.794-55.824,21.406-82.843,17.687-12.513-1.725-29.273-4.536-38.7-15.524-15.175-17.677,3.8-38.854,16.55-50.25,20.33-18.176,45.126-23.052,69.922-24.517,1.277,6.76,5.6,12.513,13.111,12.433,10.957-.13,28.933-1.057,37.767,8.235C475.659,402.553,457.413,427.328,444.222,438.007Z" transform="translate(-108.981 -329.554)" fill="#707070"/>
      <path id="Path_49" data-name="Path 49" d="M399.242,412c-9.771-24.108-26.94-33.988-45.584-34.7a12.306,12.306,0,0,0-10.359-2.472,77.081,77.081,0,0,0-29.781,13.28c-.917.509-1.845.977-2.742,1.515a14.316,14.316,0,0,0-4.835,4.706c-12.443,11.486-22.064,27.189-27.05,46.013-7.268,27.478-3.19,61.936,18.146,78.845C349.491,560.734,426.79,479.925,399.242,412ZM331.434,495.11c-19.651,2.891-30.11-13.261-27.567-35.8,2.2-19.522,12.054-33.989,25.165-42.912,19.153-9.581,44.308-9.671,47.867,21.316C380.518,469.267,355.074,491.64,331.434,495.11Z" transform="translate(-219.716 59.902)" fill="#707070"/>
      <path id="Path_50" data-name="Path 50" d="M389.5,339.478c-13.879-7.647-29.323-7.627-44.478-7.209-17.478-3.629-35.165.189-50.31,13.919-16.591,15.045-29.183,41.566-23.261,67.05,7.119,30.609,35.016,39.612,58.615,38.485,29.791-1.406,73.351-14.556,82.015-54.537C417.142,373.9,407.611,349.458,389.5,339.478Zm-12.493,61.756C360.5,416.558,323.641,426.9,304.6,413.158c-5.224-3.779-6.56-7.827-6.5-13.32.06-5.663,2.453-12.862,6.421-18.883,5.723-8.675,13.63-13.949,22.134-15.883a12.273,12.273,0,0,0,4.985,1.077c3.9-.01,7.986-.259,12.124-.488a36.8,36.8,0,0,1,6.331,2.562c5.673,2.961,11.067,1.366,15.045-2.263a40.49,40.49,0,0,1,9.671,2.552C388.747,374.284,387.491,391.5,377.012,401.234Z" transform="translate(-269.97 -330.976)" fill="#707070"/>
    </g>
  </g>
</svg>
