<svg id="testimonial_shance" data-name="testimonial shance" xmlns="http://www.w3.org/2000/svg" width="2512.365" height="2225.529" viewBox="0 0 2512.365 2225.529">
  <g id="Group_204" data-name="Group 204" transform="translate(1293.518 0)">
    <g id="Group_198" data-name="Group 198">
      <path id="Path_519" data-name="Path 519" d="M244.684,492.134c-4.146-13.355-9.371-26.337-12.38-40.089-7.133-32.626-7.7-64.562,7.72-95.272-4.08-1.886-8.123-3.853-12.233-5.651-17.971-7.845-35.679-3.838-49.5,10.134-14.038,14.192-19.74,30.953-17.854,50.56,1.431,14.97,2.678,29.962,4.484,44.888,3.794,31.4,4.432,62.874,3.156,94.451-.323,7.969.712,16,1.247,24a27.664,27.664,0,0,0,3.324,11.469c6.414,11.771,16.548,14.354,27.291,6.5,14.082-10.3,21.288-24.943,25.119-41.512,3.61-15.623,6.92-31.3,12.512-46.415C239.341,500.4,241.337,495.965,244.684,492.134Z" transform="translate(162.166 1399.845)" fill="#6395ce"/>
      <g id="Group_176" data-name="Group 176" transform="translate(26.124 80.69)">
        <path id="Path_520" data-name="Path 520" d="M84.541,458.77c10.655-10.479,24.282-18,40.463-23.424,31.033-10.4,65.853-9.958,96.2,2.561,47.926,19.755,80.956,64.936,126.864,89.013,44.888,23.541,99.859,25.728,140.968,55.389,24.378,17.59,42.833,44.2,70.946,54.861,18.881,7.162,39.876,6.113,59.8,2.789,54.861-9.158,110.5-39.083,131.457-90.6,14.317-35.165,11.191-76.751,31.378-108.907,12.725-20.261,33.9-35.209,42.18-57.657,11.734-31.782-6-65.927-12.46-99.177-7.463-38.35,1.1-79.855,24.4-111.219S898.03,120.7,937.1,120.205c0,0,28.208-2.987,71.394,20.789,53.569,37.014,71.673,110.6,60.328,174.716s-46.708,121.081-82.2,175.67-72.472,110.081-87.8,173.359c-2.466,10.163-4.286,21.149-.352,30.835,4.418,10.868,15.007,17.663,24.3,24.833,82.005,63.359,85.366,186.663,146.281,270.5,19.74,27.173,45.27,49.724,65.1,76.831,24.143,33.007,37.785,75.437,19.212,114.33-15.234,31.9-49.584,54.656-85.2,54.252-1.424-.022-2.847-.073-4.271-.161-14.61-.932-28.883-5.342-43.516-5.592-14.669-.249-29.045,3.684-43.186,7.581-57.459,15.85-115.056,31.738-170.438,53.782-57.87,23.035-113.325,52.784-173.439,69.1S505.573,1378.759,451.989,1347c-46.187-27.372-76.78-77.33-86.232-130.173s.91-108.063,23.211-156.9c16.166-35.407,38.526-68.121,50.37-105.194S450.4,873.058,424.1,844.373C409.038,827.965,387.838,818.961,368.45,808A278.6,278.6,0,0,1,292.9,745.417c-11.477-13.576-21.736-28.34-35.069-40.1-24.781-21.861-57.774-31.393-86.841-47.1A228.312,228.312,0,0,1,86.61,578.978c-20.268-32.34-36.332-71.812-13.018-107.021A81.571,81.571,0,0,1,84.541,458.77Z" transform="translate(-62.076 -120.085)" fill="#6395ce"/>
        <path id="Path_521" data-name="Path 521" d="M66.624,1069.882c2.458,3.75,5.041,7.426,7.36,11.264,26.572,43.912,74.3,62.97,124.038,49.651,10.207-2.729,20.657-5.65,29.309-11.264,16.834-10.912,33.1-8.263,49.944-1.438,16.394,4.249,32.736,8.666,49.188,12.658,5.5,1.328,7.272,4.6,7.177,9.642-.477,24.767,7.911,46.891,20.173,67.871.411.279.969.463,1.225.844,35.326,52.946,108.768,45.233,148.313,8.249,12.079-11.3,23.167-23.644,34.835-35.385,8.483-8.542,16.915-17.157,25.838-25.229,20.892-18.9,43.1-35.6,69.024-47.625,46.422-21.538,91.706-45.38,134.209-74.131a306,306,0,0,0,80.112-78.578c31.745-45.38,37.968-95,24.7-147.9-8.41-33.5-23.453-63.968-42.833-92.323-17.546-25.669-34.71-51.69-53.745-76.237-38.651-49.842-69.97-104.042-97.5-160.473-16.951-34.739-34.578-69.038-54.12-102.376-1.761-3.009-3.119-6.26-4.66-9.4-12.776-17.509-22.007-36.934-30.659-56.688C580.118,291.756,572.354,272.1,558.2,256c-4.307,3.434-8.652,6.818-12.908,10.3-32.472,26.594-68,48.058-108.276,60.188-56.57,17.04-113.713,31.936-172.9,37.1-6.37.558-13.194-.118-18.412,4.939a32.155,32.155,0,0,1-.015,5.944c-7.808,43.017-16.019,85.968-19.667,129.616-2.326,60,13.495,116.245,35.957,170.981,8.571,20.87,19.109,40.874,28.135,61.583,10.171,23.306,13.789,47.251,9.863,72.062-5.606,35.51-6.979,70.858-.572,106.39,1.578,8.74.653,8.747-8.667,8.409-39.92-1.475-78.769-8.409-116.473-21.773-11.411-4.043-23.409-5.357-35.5-6.105-30.058-1.857-53.672,9.738-71.812,33.367-1.5,1.967-3.317,3.691-4.99,5.519-15.418,30.71-14.853,62.646-7.72,95.272C57.253,1043.545,62.478,1056.526,66.624,1069.882Zm491.993-307.3c10.4,10.046,17.832,17.392,25.464,24.539,7.3,6.854,15.051,13.246,22.161,20.283,12.093,11.961,11.983,25.875.2,37.565-10.662,10.582-21.244,21.244-31.936,31.789-9.877,9.745-11.815,9.371-17.061-3.288a15.87,15.87,0,0,1-1.482-7.177C559.02,833.04,561.163,799.754,558.617,762.586Z" transform="translate(314.102 741.407)" fill="#e17c37"/>
        <path id="Path_522" data-name="Path 522" d="M126.759,191c1.174-4.961,4.476-9.261,9.43-10.347a5.842,5.842,0,0,1,3.119.022,7.323,7.323,0,0,1,3.478,3.273c3.42,5.3,5.944,11.418,10.89,15.322s13.605,4.139,16.452-1.482c.646-1.269,1.167-2.935,2.568-3.2,1.079-.205,2.069.587,2.891,1.321a306.856,306.856,0,0,0,60.526,42.342c.793.418,1.68.991,1.717,1.879.037.785-.624,1.4-1.13,2.011-2.723,3.317-1.284,8.263.389,12.218,4.917,11.551,12.424,23.879,24.73,26.352,1.908.382,3.963.543,5.54,1.688,1.607,1.167,2.407,3.126,3.016,5.019,6.758,20.9-.939,44.969-16.548,60.012-8.439,8.138-20.261,13.3-31.885,11.785-7.434-.976-14.339-4.557-20.232-9.187-15.139-11.888-37.036-34.541-23.416-47.17,22.484-20.848,7.6-70.646-19.336-84.192-3.221-1.615-6.883-2.025-10.406-2.767-8.512-1.8-17.128-6.267-20.826-14.148A16.681,16.681,0,0,1,126.759,191Z" transform="translate(355.858 262.523)" fill="#d77062"/>
        <path id="Path_523" data-name="Path 523" d="M215.515,463.655c-12.262-20.98-20.65-43.1-20.173-67.872.1-5.041-1.68-8.314-7.177-9.642-16.452-3.992-32.795-8.41-49.188-12.658-15.08,11.638-18.749,28.171-17.92,45.673.8,16.966,3.361,33.815,5.915,50.678,2.752,18.169,1.989,36.911,2.2,55.4.132,12-.9,24-1.094,36-.125,8.123,1.181,16,6.208,22.814,6.23,8.461,14.823,10.127,23.571,4.183,13.253-9,20.5-22.609,23.321-37.439,5.621-29.478,14.427-57.268,32.941-81.374C215.221,467.985,215.074,465.6,215.515,463.655Z" transform="translate(452.401 1486.018)" fill="#6395ce"/>
        <path id="Path_524" data-name="Path 524" d="M97.1,381.159c-6.392-11.565-6.744-22.272.36-33.932,11.11-18.228,16.628-38.269,18.382-59.726,1.233-15.161-.514-29.992-1.093-44.976-.572-14.911,4.917-21.068,19.813-22.638,7.947-.837,15.983-.866,23.974-1.262.58,21.068,10.2,37.513,26.785,49.709,12.842,9.444,28.436,8.887,40.962.785,24.95-16.144,33.382-50.935,21.736-71.357,17.274-7.419,26.653-5.115,38.364,11.433,21.883,30.916,48.095,57.671,76.78,82.152l.36.3c1.46,1.1,2.862,2.275,4.2,3.5,1.578,1.306,3.148,2.635,4.733,3.941-.073.235-.117.484-.183.719,5.8,6.722,9.643,14.6,10.156,22.573,3.332,51.969-8.417,108.408,18.082,153.245,12.768,21.611,33.007,37.557,52.072,53.9s38,34.5,46.568,58.1c6.891,18.955,4.975,42.246-7.03,57.649a80.129,80.129,0,0,1-1.306,10.068c-2.348,1.864-4.719,3.72-7.045,5.621-32.464,26.594-68,48.058-108.268,60.188-56.571,17.04-113.713,31.936-172.9,37.1-6.37.558-13.194-.118-18.412,4.939-10.9-5.4-17.957-14.317-22.323-25.346-9.51-24.069-14.633-49.049-12.512-74.968,3.331-40.551,3.544-81-.741-121.506-2.957-27.944-7.14-55.426-16.357-82.255A491.233,491.233,0,0,0,97.1,381.159Zm351.575,206.2c3.133,2.363,6.56,4.755,10.061,7.228-7.177-6.707-15.132-12.534-23.174-18.272A167.419,167.419,0,0,0,448.674,587.357Z" transform="translate(375.612 346.754)" fill="#f8ebe5"/>
        <path id="Path_525" data-name="Path 525" d="M131.083,265.826c10.486,47.757,43.112,81.4,72.751,74.667,42.356-9.635,45.255-50.531,34.769-98.289s-43.068-81.183-72.759-74.659S120.59,218.069,131.083,265.826Z" transform="translate(373.835 175.573)" fill="#d77062"/>
        <path id="Path_526" data-name="Path 526" d="M204.1,380.027c10.963-3.552,21.956-6.994,32.875-10.677C290.07,351.415,326.2,317.329,335,260.414c6.355-41.087-4.109-77.969-37.711-105.348-18.338-14.941-39.5-21.662-63.248-16.775-48.293,9.936-60.812,49.585-55.947,82.732,2.334,15.887,7.786,31.1,13.869,45.974,1.526,3.735,3.126,7.133,2.407,11.47-5.247,31.452-16.812,58.772-46.8,74.814-7.94,4.241-15.55,9.18-22.015,15.638-7.646,7.639-11.22,16.79-8.733,27.364,1.673,7.1,1.13,13.554-.543,20.6-3.434,14.391,2.4,27.6,7.169,40.793,3.816,6.4,7.037,13.26,12.82,18.228,7.008,6.025,11.983,5.445,17.538-2.069A34.224,34.224,0,0,0,160.3,448.39c-1.724-13.693-7.36-25.706-15.887-36.493-7.536-9.532-7.287-10.435,3.845-15.844C165.929,387.461,185.162,384.232,204.1,380.027Z" transform="translate(372.995 -14.682)" fill="#212443"/>
        <path id="Path_527" data-name="Path 527" d="M147.534,219.582c8.879,17.626,23.974,27.937,33.712,23.035s10.442-23.174,1.563-40.8-23.967-27.944-33.712-23.035S138.655,201.955,147.534,219.582Z" transform="translate(329.462 244.199)" fill="#d77062"/>
        <path id="Path_528" data-name="Path 528" d="M126.094,203.225c-2.356,17.546,3.676,32.839,13.48,34.152s19.659-11.837,22.015-29.382-3.676-32.839-13.473-34.16S128.457,185.679,126.094,203.225Z" transform="translate(471.785 220.027)" fill="#d77062"/>
      </g>
      <path id="Path_529" data-name="Path 529" d="M130.636,194.036c4.586,9.8,15.506,14.992,25.691,11.624s15.865-14.031,13.708-24.635Z" transform="translate(452.449 346.861)" fill="#fff"/>
      <path id="Path_530" data-name="Path 530" d="M202.4,205.353c4.909-6.509,31.87,16.885,31.87,16.885s-33.213-32.714-30.38-38.291c4.469-8.806,41.637,28.979,41.637,28.979s-39.414-42.158-30.63-48.484,43.046,39.832,43.046,39.832-29.551-45.4-21.112-49.489,44.3,55.947,44.3,55.947,5.269-34.981,12.46-34.365c12.137,1.035,4.058,75.8,4.058,75.8l-31.8,26.234S197.5,211.87,202.4,205.353Z" transform="translate(-202.152 179.283)" fill="#d77062"/>
      <path id="Path_531" data-name="Path 531" d="M177,152.54c-6.017-5.5-28.223,22.448-28.223,22.448s26.63-38.254,22.822-43.215c-6.01-7.837-35.6,36.141-35.6,36.141s30.989-48.689,21.2-53.29-35,47.068-35,47.068,20.7-50.069,11.66-52.535S100.6,172.295,100.6,172.295,89,138.877,82.039,140.807c-11.741,3.251,9.943,75.261,9.943,75.261l36.075,19.945S183.021,158.044,177,152.54Z" transform="translate(827.671 -109.089)" fill="#d77062"/>
      <g id="Group_177" data-name="Group 177" transform="translate(46.15 421.535)">
        <path id="Path_532" data-name="Path 532" d="M263.44,182.264C247.846,198.6,231.98,210.45,209,213.129c-11.675,1.358-11.58-16.944,0-18.294,17.773-2.077,29.683-13.121,41.512-25.508,8.145-8.534,21.068,4.418,12.93,12.937Z" transform="translate(-200.276 -166.532)" fill="#4f7ca6"/>
      </g>
      <g id="Group_178" data-name="Group 178" transform="translate(892.159 102.423)">
        <path id="Path_533" data-name="Path 533" d="M91.5,123.155c28.825-1.446,54.714,11.594,72,34.365,7.118,9.378-8.762,18.507-15.792,9.239-13.429-17.685-34.3-26.41-56.211-25.31-11.763.587-11.734-17.707,0-18.294Z" transform="translate(-82.691 -123.046)" fill="#4f7ca6"/>
      </g>
      <g id="Group_179" data-name="Group 179" transform="translate(660.583 592.018)">
        <path id="Path_534" data-name="Path 534" d="M94.56,192.081A308.5,308.5,0,0,0,243.644,334.729c53.547,24.143,123.092,46.737,131.413,114.491.712,5.827-8.439,5.775-9.151,0C356.55,373,261.784,358.483,207.3,326.341,155.482,295.77,113.749,250.3,86.664,196.7c-2.649-5.24,5.239-9.877,7.9-4.616Z" transform="translate(-86.128 -189.764)" fill="#4f7ca6"/>
      </g>
      <g id="Group_180" data-name="Group 180" transform="translate(940.947 876.643)">
        <path id="Path_535" data-name="Path 535" d="M92.454,231.78a191.925,191.925,0,0,0,18.661,44.235c2.95,5.1-4.953,9.716-7.9,4.616a202.113,202.113,0,0,1-19.586-46.422c-1.6-5.673,7.228-8.1,8.821-2.429Z" transform="translate(-83.441 -228.551)" fill="#4f7ca6"/>
      </g>
      <g id="Group_181" data-name="Group 181" transform="translate(458.673 622.94)">
        <path id="Path_536" data-name="Path 536" d="M204.7,199.6c-8.578,27.232,1.636,53.709,1.394,81.271-.183,20.466-6.26,40.133-14.06,58.868-16.614,39.92-42.87,78.571-37.506,123.693.69,5.834-8.461,5.79-9.151,0-5.071-42.672,17.252-79.987,34.064-117.485,10.156-22.66,18.492-46.312,17.355-71.5-1.189-26.366-9.107-51.272-.917-77.286,1.761-5.592,10.6-3.207,8.82,2.436Z" transform="translate(-144.646 -193.978)" fill="#4f7ca6"/>
      </g>
      <g id="Group_182" data-name="Group 182" transform="translate(445.579 940.398)">
        <path id="Path_537" data-name="Path 537" d="M166.53,241.628a82,82,0,0,1-4.513,34.688c-1.959,5.5-10.8,3.133-8.821-2.436a75.689,75.689,0,0,0,4.19-32.252c-.492-5.871,8.659-5.834,9.143,0Z" transform="translate(-152.908 -237.239)" fill="#4f7ca6"/>
      </g>
      <g id="Group_183" data-name="Group 183" transform="translate(416.738 1076.846)">
        <path id="Path_538" data-name="Path 538" d="M263.547,481.807c-46.319-.792-98.105-27.173-114.726-72.274-18.859-51.155,2.4-104.049,22.338-151.293,2.282-5.408,10.163-.749,7.9,4.616-17.685,41.9-36.7,87.927-24.627,134.026,12.314,47,62.419,74.983,109.12,75.782,5.878.1,5.9,9.246,0,9.144Z" transform="translate(-141.502 -255.833)" fill="#4f7ca6"/>
      </g>
      <g id="Group_184" data-name="Group 184" transform="translate(961.097 985.661)">
        <path id="Path_539" data-name="Path 539" d="M96.64,244.251c34.71,24.84,62.669,64.019,67.086,107.425,1.879,18.441-2.833,38.885-19.329,49.584-20.349,13.194-46.326-3.009-65.758,10.721-4.821,3.4-9.393-4.528-4.616-7.9,11-7.771,22.426-7.148,35.422-6.311,12.622.807,25.97,1.365,35.5-8.784,9.943-10.589,11.088-26.19,9.151-39.8-5.562-39.2-30.344-74.329-62.074-97.034-4.748-3.4-.184-11.338,4.616-7.9Z" transform="translate(-72.002 -243.407)" fill="#4f7ca6"/>
      </g>
      <g id="Group_185" data-name="Group 185" transform="translate(722.025 448.533)">
        <path id="Path_540" data-name="Path 540" d="M233.558,384.3A320.088,320.088,0,0,1,97.793,175.947c-1.027-5.753,7.786-8.226,8.821-2.429A311.088,311.088,0,0,0,238.174,376.4c4.851,3.28.279,11.213-4.616,7.9Z" transform="translate(-97.71 -170.211)" fill="#4f7ca6"/>
      </g>
      <g id="Group_186" data-name="Group 186" transform="translate(369.799 529.579)">
        <path id="Path_541" data-name="Path 541" d="M231.112,184.567c9.378,53.694,6.061,107.043-8.659,159.453-10.941,38.951-24.025,83.164-61.7,104.2-5.144,2.869-9.76-5.027-4.616-7.9,37.183-20.76,49.144-67.152,59.352-105.517A341.746,341.746,0,0,0,222.292,187c-1.005-5.76,7.808-8.233,8.821-2.429Z" transform="translate(-153.892 -181.256)" fill="#4f7ca6"/>
      </g>
      <g id="Group_187" data-name="Group 187" transform="translate(549.671 640.769)">
        <path id="Path_542" data-name="Path 542" d="M254.319,200.753c4.6,35.62-13.877,70.344-48.051,83.443-38.46,14.743-65.134-6.428-83.084-38.849-2.854-5.152,5.041-9.775,7.9-4.616,6.707,12.115,13.752,25.442,25.97,32.9,15.212,9.283,35.15,7.4,50.693.029,28.186-13.355,41.307-42.877,37.432-72.906-.756-5.819,8.4-5.768,9.144,0Z" transform="translate(-122.572 -196.408)" fill="#eac2b0"/>
      </g>
      <g id="Group_188" data-name="Group 188" transform="translate(720.219 870.656)">
        <path id="Path_543" data-name="Path 543" d="M263.423,435.371c10.039-30.057-30.549-46.37-49.937-60.548A407.2,407.2,0,0,1,167.454,335.6,410.2,410.2,0,0,1,93.205,234.64c-2.737-5.2,5.159-9.833,7.9-4.616a401.537,401.537,0,0,0,94.649,119.2c18.045,15.381,38.284,26.946,57.026,41.211,15.315,11.661,26,27.79,19.461,47.361-1.857,5.555-10.692,3.178-8.821-2.429Z" transform="translate(-92.637 -227.735)" fill="#eac2b0"/>
      </g>
      <g id="Group_189" data-name="Group 189" transform="translate(702.893 814.05)">
        <path id="Path_544" data-name="Path 544" d="M126.547,224.438a41.387,41.387,0,0,0,7.28,24.524c3.3,4.895-4.623,9.481-7.9,4.616a50,50,0,0,1-8.527-29.14c.11-5.878,9.261-5.9,9.143,0Z" transform="translate(-117.393 -220.021)" fill="#eac2b0"/>
      </g>
      <g id="Group_190" data-name="Group 190" transform="translate(390.36 1160.464)">
        <path id="Path_545" data-name="Path 545" d="M364.769,274.215c-45.879,100.116-18.793,212.766,35.29,303.694,9.518,16,27.511,33.852,28.333,53.3.917,21.493-9.973,45.512-13.267,66.8-8.167,52.784-2.723,110.294,37.469,149.326a4.616,4.616,0,0,1-2.018,7.639c-24.092,7.419-38.533,29.8-36.229,54.714.33,3.559-4.095,5.562-6.883,3.955a142.674,142.674,0,0,0-150.933,5.115c-1.768,1.182-4.058.558-5.54-.719-35.642-30.652-87.31-35.106-127.84-11.448-5.093,2.979-9.7-4.924-4.616-7.9a119.282,119.282,0,0,1,73.61-15.806,121.008,121.008,0,0,1,33.081,8.431c10.347,4.286,23.563,17.927,33.587,15.058,12.218-3.5,23.409-12.071,36.112-15.63A153.62,153.62,0,0,1,334,885.139a150.876,150.876,0,0,1,78.079,20.6q-3.445,1.97-6.883,3.948c-2.678-29.023,15.227-55,42.951-63.535q-1.013,3.831-2.018,7.647c-34.071-33.081-45.805-80.53-43.266-126.871,1.512-27.672,8.351-53.98,13.935-80.97,3.838-18.5-3.207-29.61-12.791-44.367q-11.349-17.479-21.391-35.774c-49.526-90.554-70.1-199.424-25.75-296.216,2.451-5.35,10.34-.7,7.9,4.616Z" transform="translate(-116.325 -267.228)" fill="#f8ebe5"/>
      </g>
      <g id="Group_191" data-name="Group 191" transform="translate(893.919 1481.824)">
        <path id="Path_546" data-name="Path 546" d="M87.6,409.124c23.27-26.961,46.686-55.829,42.6-93.739-.631-5.841,8.52-5.8,9.143,0,4.337,40.126-20.554,71.563-45.27,100.211-3.853,4.462-10.3-2.033-6.472-6.472Z" transform="translate(-86.431 -311.02)" fill="#cc5b1c"/>
      </g>
      <g id="Group_192" data-name="Group 192" transform="translate(853.434 1577.065)">
        <path id="Path_547" data-name="Path 547" d="M137.97,328.358c9.841,83.759,15.63,169.756-37.117,241.252-3.456,4.682-11.4.125-7.9-4.616,51.815-70.242,45.512-154.536,35.862-236.637-.682-5.834,8.468-5.79,9.151,0Z" transform="translate(-92.086 -323.999)" fill="#cc5b1c"/>
      </g>
      <g id="Group_193" data-name="Group 193" transform="translate(565.817 1872.126)">
        <path id="Path_548" data-name="Path 548" d="M347.7,372.179c-12.945,14.977-26.293,30.271-43.611,40.331-18.36,10.663-39.935,15.961-60.159,21.795-18.507,5.342-38.254,12.468-57.8,9.151-20.1-3.412-54.391-23.967-72.861-9.532-4.586,3.588-11.1-2.847-6.465-6.465,12.5-9.767,26.359-7.052,41.013-3.948,25.618,5.423,45.248,14.787,71.974,8.035,21.611-5.459,43.765-11.514,64.5-19.747,23.915-9.5,40.47-27.041,56.937-46.092,3.853-4.462,10.3,2.033,6.465,6.472Z" transform="translate(-105.216 -364.208)" fill="#cc5b1c"/>
      </g>
      <g id="Group_194" data-name="Group 194" transform="translate(929.36 1534.415)">
        <path id="Path_549" data-name="Path 549" d="M81.987,319.78A566.467,566.467,0,0,0,178.9,417.056c1.629,1.277,1.57,3.889.712,5.54a174.346,174.346,0,0,0-13.95,125.726c1.49,5.7-7.331,8.131-8.82,2.436-5.511-21.039-7.749-42.51-5.7-64.217,1.952-20.723,10.281-38.027,15.2-57.708,2.025-8.116,3.089-6.157-3.7-13.1-3.6-3.677-8.094-6.707-11.983-10.061q-13.022-11.249-25.324-23.306a568.229,568.229,0,0,1-49.8-56.116c-3.581-4.594,2.847-11.11,6.465-6.472Z" transform="translate(-74.471 -318.187)" fill="#cc5b1c"/>
      </g>
      <g id="Group_195" data-name="Group 195" transform="translate(683.129 1768.516)">
        <path id="Path_550" data-name="Path 550" d="M405.554,358.972c-139.309,20.254-169.359,244.474-325,220.779-5.8-.88-3.332-9.694,2.436-8.82,81.528,12.416,136.462-61.48,180.176-117.992,35.957-46.481,78.681-93.878,139.955-102.794,5.761-.837,8.248,7.977,2.436,8.828Z" transform="translate(-77.243 -350.089)" fill="#cc5b1c"/>
      </g>
      <g id="Group_196" data-name="Group 196" transform="translate(816.346 1043.177)">
        <path id="Path_551" data-name="Path 551" d="M68.149,340.567c20.085-40.918,63.373-87.186,112.238-89.27,22.316-.954,39.517,11.3,56.409,24.268,10.127,7.764,20.8,16.467,33.609,19.109,19.417,3.992,38.761-6.1,55.514-14.493,10.5-5.262,19.777,10.516,9.232,15.8-21.406,10.729-45.064,21.839-69.611,16.335-20.371-4.579-34.989-19.887-51.654-31.232-51.082-34.761-108.525,25.09-129.938,68.715-5.188,10.574-20.973,1.314-15.8-9.231Z" transform="translate(-67.122 -251.245)" fill="#cc5b1c"/>
      </g>
      <g id="Group_197" data-name="Group 197" transform="translate(737.138 1134.818)">
        <path id="Path_552" data-name="Path 552" d="M83.326,276.143c15.88-16.819,40.382-16.467,55.91.6,21.7,23.842,26.748,58.126,42.855,85.219,8.527,14.339,21.288,28.854,38.034,33.235,17.869,4.674,34.923-5.621,52.344-8.021,24.583-3.4,47.4,9.283,58.9,30.938,5.518,10.4-10.266,19.652-15.8,9.239-6.692-12.607-17.465-21.156-31.936-22.33-15.19-1.225-29.522,6.9-44.345,9.041-18.925,2.737-36.42-3.706-50.8-15.946-16.592-14.111-26.462-33.293-34.666-53.085-7.2-17.37-29.081-86.122-57.554-55.954-8.1,8.578-21.017-4.374-12.937-12.937Z" transform="translate(-80.767 -263.733)" fill="#cc5b1c"/>
      </g>
    </g>
    <g id="Group_199" data-name="Group 199" transform="translate(633.039 1144.203)">
      <path id="Path_553" data-name="Path 553" d="M150.847,279.014c-41.3,93.24-25.544,201.861,35.759,282.266,13.825,18.14,25.9,36.207,26.4,59.763.609,28.017-6.781,56.563-8.241,84.61-2.943,56.373,6.025,115.4,46.172,157.9a9.249,9.249,0,0,1-4.036,15.286c-32.685,9.855-53.547,40.72-51.588,74.579.675,11.763-17.619,11.719-18.294,0-2.429-42.041,24.891-80.119,65.017-92.22q-2.014,7.65-4.036,15.293c-37.454-39.656-51.551-93.122-52.1-146.618-.33-32.361,5.372-63.769,8.168-95.845,2.921-33.543-15.7-51.808-33.492-77.338-58.038-83.26-66.352-194.757-25.53-286.911,4.763-10.743,20.532-1.446,15.8,9.232Z" transform="translate(-109.654 -265.012)" fill="#f8ebe5"/>
    </g>
    <g id="Group_200" data-name="Group 200" transform="translate(501.406 1812.464)">
      <path id="Path_554" data-name="Path 554" d="M316.366,386.382c-61.128-23.108-131.142-12.35-181.592,29.625-8.989,7.485-22-5.394-12.937-12.937,55.272-45.989,131.868-59.851,199.395-34.328,10.912,4.124,6.179,21.817-4.865,17.641Z" transform="translate(-118.764 -356.077)" fill="#f8ebe5"/>
    </g>
    <g id="Group_201" data-name="Group 201" transform="translate(378.046 1822.932)">
      <path id="Path_555" data-name="Path 555" d="M264.752,401.424c-5.438-16.247-25.31-20.136-40.258-22.566-22.6-3.661-45.563-4.6-67.879,1.116-11.411,2.92-16.276-14.72-4.858-17.642,28.061-7.184,58.464-5.812,86.65.558,19.534,4.417,37.308,13.722,43.986,33.675,3.75,11.191-13.913,15.99-17.641,4.858Z" transform="translate(-145.248 -357.504)" fill="#f8ebe5"/>
    </g>
    <g id="Group_202" data-name="Group 202" transform="translate(340.303 1749.965)">
      <path id="Path_556" data-name="Path 556" d="M186.775,355.621c-12.343,15.741-12.137,35.649-11.631,54.677.543,20.591,1.35,41.168,2.025,61.751l1.915,58.119c.565,17.3-3.816,46.473,10.185,59.176,4.374,3.97-2.113,10.42-6.465,6.472-11.675-10.6-11.506-25.493-12.035-40.221-1.005-27.841-1.835-55.7-2.745-83.546-.829-25.192-2.693-50.6-2.194-75.812.345-17.421,3.574-33.183,14.471-47.089,3.632-4.63,10.061,1.886,6.472,6.472Z" transform="translate(-165.748 -347.561)" fill="#f8ebe5"/>
    </g>
    <g id="Group_203" data-name="Group 203" transform="translate(611.561 1940.012)">
      <path id="Path_557" data-name="Path 557" d="M145.915,380.433c-15.865,33.984-6.223,70.257-2.759,105.737,3.288,33.734-8.586,73.25,13.158,102.471,3.515,4.726-4.425,9.3-7.9,4.623C125.368,562.29,137.52,521.783,134,486.17c-3.706-37.572-12.71-74.549,4.007-110.353,2.5-5.328,10.384-.69,7.9,4.615Z" transform="translate(-128.241 -373.459)" fill="#f8ebe5"/>
    </g>
  </g>
  <g id="Group_208" data-name="Group 208" transform="translate(0 84.603)">
    <g id="Group_207" data-name="Group 207">
      <g id="Group_206" data-name="Group 206" transform="translate(0 96.976)">
        <path id="Path_558" data-name="Path 558" d="M333.245,310.6c6.062-59.711,16.974-118.425,38.541-174.716,14.574-.374,29.126-1.167,43.677-2.047a318.152,318.152,0,0,0-2.789,33.4c-.925,20.033-1.813,40.1-3.882,60.042-4.807,46.385-10.237,92.711-15.616,139.045a37.752,37.752,0,0,0,4.044,21.758c17.039,34.636,31.319,70.616,50.824,104.071,3.508,6,5.614,12.827,8.358,19.27-.25,1.453-.1,3.148-.785,4.337-14.933,25.6-30.263,50.964-42.562,78.005-.374.815-1.446,1.306-2.187,1.952-12.893-11.051-20.708-25.625-28-40.536-12.35-25.273-22.69-51.419-32.633-77.7-10.853-28.685-19.219-58.016-21.6-88.9C326.634,362.317,330.618,336.5,333.245,310.6Z" transform="translate(11.036 -133.833)" fill="#d77062"/>
        <g id="Group_205" data-name="Group 205" transform="translate(0 7.764)">
          <path id="Path_559" data-name="Path 559" d="M195.5,662.311c4.946-43.494,26.895-88.5,74.762-95,26.432-3.581,53.363,4.931,76.252,18.617,52.711,31.5,138.1,131.971,189.95,43.274,17.648-30.189,26.425-67.167,33.778-101.04,16.541-76.171,31.481-152.687,50.106-228.4q3.9-10.886,7.529-21.861c61.619,11.506,124.038,15.587,186.553,18.162,58.713,2.422,116.084-6.171,172.038-24.223,10.009-3.222,20.173-5.966,30.263-8.931,85.578,105.333,143.83,224.624,206.014,344.23,56.438,108.54,142.45,197.3,209.676,298.711,59.535,89.813,133.38,226.539,55.44,327.279-10.941,12.262-21.046,25.295-33.727,35.943a163.773,163.773,0,0,1-43.075,26.491c-7.426,1.115-14.823,2.744-22.3,3.266-74.689,5.166-132.609-27.232-177.659-83.554-28.846-36.067-50.7-76.868-69.324-119.481-34.387-78.7-62.9-159.651-94.084-239.58-21.149-54.193-48.33-104.607-84.558-150.236a140.984,140.984,0,0,0-44.514-37.5c-46.077-24.612-83.414,7.625-100.138,49.871-34.629,87.479-62.39,179.758-130.386,248.481-38.437,38.863-89.908,67.174-144.549,68.605C428.705,1038.433,309.3,933.9,240.985,850.449,211.618,814.579,187.805,729.94,195.5,662.311Z" transform="translate(-70.364 676.538)" fill="#1f2241"/>
          <path id="Path_560" data-name="Path 560" d="M332.886,184.165a63.917,63.917,0,0,1,4.873,4.432c7.067,7.059,14.024,14.339,21.787,20.584A359.161,359.161,0,0,1,406.686,255.2c4.168,4.858,8.681,5.849,14.391,5.981,17.993.4,35.987.66,53.951,2.172,9.936.837,26.014-8.63,31.826,2.069.682,1.255-2.487,9.862-.638,10.486,1.717,24.055,19.219,40.221,43.288,39.979,22.411-.228,37.572-16.981,38.408-42.459,3.207-6.59,8.725-7.169,15.183-6.267,27.9,3.867,56.035,1.152,83.935,2.876,17.685,1.094,35.524-17,47.97-27.533,25.669-21.721,49.775-27.445,76.854-47.207,2.693-1.967,5.1-5.122,10.222-3.2,4.3,16.819,8.74,34.226,13.187,51.625q9.015,46.363,18.037,92.726c4.021,13.686-2.553,22.969-12.82,30.659-4.41,3.31-8.872,6.546-13.421,9.665-23.828,16.35-50.179,27.313-77.808,35.091-8.468,2.385-11.007,6.23-10.574,14.743,1.2,23.563,2.656,47.1,5.951,70.447,5.819,41.226,12.306,82.306,27.276,121.544,13.569,35.561,24.745,72.032,41.748,106.272,6.45,13,3.559,20.055-9.356,27.086-6.575,3.581-13.378,6.729-20.077,10.075-10.09,2.965-20.254,5.709-30.263,8.931C698,789.006,640.63,797.606,581.917,795.184c-67.189-2.766-134.275-7.265-200.379-20.863-34.438-16.651-37.5-23.754-28.076-61.289,10.876-43.354,19.036-87.178,20.4-132.015,1.49-48.667-2.671-97.232-2.759-145.855-.022-12.6-4.814-18.881-15.462-23.989-13.965-6.693-27.753-13.833-40.28-23.292-26.029-19.645-42.121-46.568-56.82-74.755-4.77-9.136-6.78-17.92-4.065-26.579C278.428,250.885,305.184,217.019,332.886,184.165Z" transform="translate(162.153 177.42)" fill="#e8a628"/>
          <path id="Path_561" data-name="Path 561" d="M245.463,538.575a558.133,558.133,0,0,1,43.919-51.558c13.282-13.745,24.913-28.876,37.234-43.428,5.027-5.937,8.454-12.358,8.755-20.261,1.387-35.635,8.755-70.594,11.851-106.089,3.434-39.436,9.687-78.629,15.066-117.882,1.717-12.556-.4-52.469-4.638-64.466,13.363,5.071,30.9,34.24,44.1,31.466a56.508,56.508,0,0,0,.807,12.5c7.9,43.435,16.2,86.812,20.686,130.8,4.851,47.581,2.554,94.23-16.988,138.737-10.09,22.969-20.532,45.791-31.041,68.576a100.663,100.663,0,0,1-8.424,14.207c-32.1,47.089-73.757,84.478-119.628,117.573q-9.015-46.352-18.03-92.726C236.283,551.814,240.664,544.93,245.463,538.575Z" transform="translate(768.286 -134.891)" fill="#d77062"/>
          <path id="Path_562" data-name="Path 562" d="M315.571,351.39c1.71,24.055,19.212,40.221,43.281,39.979,22.411-.228,37.572-16.981,38.408-42.452a37.632,37.632,0,0,1-19.7-39.671c.668-3.955,3.009-6.061,6.039-7.962a59.692,59.692,0,0,0,18.911-18.9c5.577-8.857,8.028-19.52,22.03-21.075,7.617-.844,10.185-10.42,9.973-18.3-.272-10.112-3.442-18.742-14.75-21.5-7.265,4.777-12.482,3.009-14.75-5.3-1.878-6.891-5.68-9.8-12.93-9.606-4.4.117-8.813-2.121-13.267-2.3-20.51-.859-33.785-10.9-40.038-30.424-.205-.653-1.585-.932-2.847-1.622-8.564,3.816-11.6,11.683-13.363,20.129-2.253,10.787-3.662,21.751-6.025,32.5-3.016,13.693-7.1,15.74-21.3,11.8-11.316,6.238-12.314,16.3-9.217,27.13,2.906,10.163,10.1,16.071,21,15.66,5.79-.213,9.393,1.82,12.02,6.758,1.387,2.62,3.493,4.851,5.181,7.316,3.522,5.115,11.426,7.426,10.413,15.41-1.431,11.367-2.568,22.91-10.259,32.3C321.544,344.712,318.506,348.015,315.571,351.39Z" transform="translate(352.804 101.938)" fill="#d77062"/>
          <path id="Path_563" data-name="Path 563" d="M257.172,411.212c-10.941,12.255-21.046,25.288-33.727,35.935a163.76,163.76,0,0,1-43.076,26.491c3.919.836,5.834,3.111,6.223,7.25a197.682,197.682,0,0,0,2.957,22.337c6.458,30.336,26,42.665,55.228,28.876,16.284-7.683,27.629-21.574,40.558-33.235,13.972-12.585,28.641-23.453,45.629-31.4,14.544-6.81,28.876-14.06,41.923-23.593,5.724-4.183,11.154-8.659,14.7-14.874,9.041-15.865.191-33.763-17.935-36a62.231,62.231,0,0,0-20.936,1.2c-24,5.2-48.095,10.01-72.106,15.205C270.154,410.808,263.681,410.985,257.172,411.212Z" transform="translate(1160.328 1498.465)" fill="#6297d4"/>
          <path id="Path_564" data-name="Path 564" d="M491.013,423.483c2.238-10.721,3.985-21.567,6.788-32.134,10.765-40.559,34.042-64.21,78.218-64.349a39.975,39.975,0,0,0,5.893-.88c-13.788-17.906-32.009-26.785-54.538-25.288a79.852,79.852,0,0,0-39.362,13.546c-10.861,7.221-21.193,15.095-31.562,22.976-18.456,14.024-40.03,22.756-60.034,34.16-7.852,4.476-15.976,8.491-22.565,14.779-16.276,15.513-16.2,31.987,1.05,46.231,11.66,9.635,25.419,13.326,40.756,10.685C441.348,438.776,466.9,433.918,491.013,423.483Z" transform="translate(-361.801 915.85)" fill="#6297d4"/>
          <path id="Path_565" data-name="Path 565" d="M303.335,247.1a13.885,13.885,0,0,1,5.2,1.137c.734-43.42,25.119-78.307,55.154-78.307,26.961,0,49.372,28.113,54.222,65.266a12.979,12.979,0,0,1,2.767-.4c9.973,0,18.052,11.477,18.052,25.632s-8.079,25.633-18.052,25.633a13.507,13.507,0,0,1-6.964-1.989c-7.221,31.951-27.856,46.459-50.025,46.459-19.622,0-36.809-14.919-46.6-37.345-3.486,5.108-8.351,8.314-13.752,8.314-10.574,0-19.145-12.182-19.145-27.2S292.761,247.1,303.335,247.1Z" transform="translate(350.913 87.189)" fill="#d77062"/>
        </g>
        <path id="Path_566" data-name="Path 566" d="M291.5,362.557a14.689,14.689,0,0,1,16.636,7.646,360.956,360.956,0,0,0,9.129-46.627c5.335,9.547,16.79,14.346,27.724,14.662s21.589-3.133,31.987-6.531c-1.284,7.588.191,15.785,4.821,21.934s12.556,9.914,20.165,8.755c7.28-1.115,13.517-6.6,16.35-13.4s2.465-14.684-.161-21.567c10.839-.829,20.562-8.344,25.4-18.074s5.152-21.325,2.275-31.811c-1.02-3.72-2.48-7.426-5.093-10.252-4.946-5.349-12.849-6.5-20.1-7.169,10.626-7.647,16.071-21.384,13.04-34.123A34.091,34.091,0,0,0,406.5,200.837a25.417,25.417,0,0,0-14.479,1.629,17.255,17.255,0,0,0-9.562,10.67c2.3-8.234,4.241-17.876,3.97-26.425s-2.891-17.26-8.644-23.593c-5.085-5.6-12.292-8.982-19.725-10.4-18.6-3.559-38.951,5.643-48.572,21.949-10.237,17.355-8.153,39.1-4.733,58.955q3.137,18.173,7.4,36.133c-2.649-5.738-10.787-6.348-15.982-2.744s-7.683,9.936-9.444,16C278.98,309.729,281.387,336.646,291.5,362.557Z" transform="translate(356.959 -18.944)" fill="#e8a628"/>
      </g>
      <path id="Path_567" data-name="Path 567" d="M333.524,171.393c4.9-6.516,31.863,16.878,31.863,16.878s-33.206-32.714-30.38-38.291c4.476-8.806,41.637,28.986,41.637,28.986s-39.414-42.166-30.63-48.484,43.054,39.832,43.054,39.832-29.551-45.409-21.12-49.5,44.3,55.947,44.3,55.947,5.269-34.981,12.46-34.365c12.137,1.035,4.058,75.8,4.058,75.8l-31.8,26.234S328.615,177.9,333.524,171.393Z" transform="translate(-1.938 -120.618)" fill="#d77062"/>
      <path id="Path_568" data-name="Path 568" d="M323.453,172.169c-5.54-5.981-29.991,20.033-29.991,20.033s29.72-35.913,26.337-41.175c-5.342-8.307-38.482,33.051-38.482,33.051s34.93-45.937,25.552-51.338-38.783,44-38.783,44,24.789-48.176,15.983-51.39-38.4,60.159-38.4,60.159-8.784-34.262-15.88-32.919c-11.969,2.26,3.662,75.826,3.662,75.826l34.292,22.866S328.993,178.157,323.453,172.169Z" transform="translate(898.16 -91.366)" fill="#d77062"/>
      <path id="Path_569" data-name="Path 569" d="M252.114,184.042a1056.738,1056.738,0,0,0,42.892,170.849" transform="translate(730.015 281.381)" fill="none" stroke="#d88f25" stroke-miterlimit="10" stroke-width="0.997"/>
      <path id="Path_570" data-name="Path 570" d="M407.26,181.922q-41.1,65.582-82.21,131.164,1.772-1.717,3.53-3.434" transform="translate(82.546 267.944)" fill="none" stroke="#d88f25" stroke-miterlimit="10" stroke-width="0.997"/>
      <path id="Path_571" data-name="Path 571" d="M290.641,187.165c1.812,10.662,10.963,18.566,21.67,18.037s19.028-9.312,19.769-20.107Z" transform="translate(410.22 288.061)" fill="#fff"/>
      <path id="Path_572" data-name="Path 572" d="M279.041,233.173A484.884,484.884,0,0,0,384.03,326.09" transform="translate(443.395 592.785)" fill="none" stroke="#d88f25" stroke-miterlimit="10" stroke-width="0.499"/>
      <path id="Path_573" data-name="Path 573" d="M299.393,221.315a343.218,343.218,0,0,0,37.183,43.494" transform="translate(341.5 517.626)" fill="none" stroke="#d88f25" stroke-miterlimit="10" stroke-width="0.499"/>
      <path id="Path_574" data-name="Path 574" d="M270.352,266.8a257.717,257.717,0,0,1,19.461,48.7c6.568,22.969,9.907,46.73,12.453,70.484a1100.945,1100.945,0,0,1,3.287,197.876" transform="translate(582.668 805.915)" fill="none" stroke="#6395ce" stroke-miterlimit="10" stroke-width="0.249"/>
      <path id="Path_575" data-name="Path 575" d="M280.069,267.847c24.121,103.484,23.1,224.653,4.9,329.333" transform="translate(521.458 812.558)" fill="none" stroke="#6395ce" stroke-miterlimit="10" stroke-width="0.249"/>
      <path id="Path_576" data-name="Path 576" d="M456.381,312.618c-26.535-3.4-52.249-3.39-78.387,2.37-66.587,14.662-97.166,100.681-111.043,158.572" transform="translate(459.763 1081.702)" fill="none" stroke="#6395ce" stroke-miterlimit="10" stroke-width="0.249"/>
      <path id="Path_577" data-name="Path 577" d="M466.814,268.079c-22.206,49.54-46.429,101.569-91.134,132.367-22.323,15.381-51.492,24.48-76.714,14.544" transform="translate(214.396 814.028)" fill="none" stroke="#6395ce" stroke-miterlimit="10" stroke-width="0.249"/>
      <path id="Path_578" data-name="Path 578" d="M248.991,265.676c15.19,29.133,30.578,58.552,52.028,83.436s49.849,45.174,82.24,50.634c5.937,1,12.526,1.79,16.518,6.3" transform="translate(648.161 798.797)" fill="none" stroke="#6395ce" stroke-miterlimit="10" stroke-width="0.249"/>
      <path id="Path_579" data-name="Path 579" d="M200.858,312.05c95.25,75.166,155.16,185.724,206.021,295.893,29.28,63.41,56.644,128.155,95.14,186.436s89.512,110.536,153.817,137.8c27.6,11.711,58.875,18.573,87.56,9.855" transform="translate(657.754 1092.727)" fill="none" stroke="#6395ce" stroke-miterlimit="10" stroke-width="0.249"/>
      <path id="Path_580" data-name="Path 580" d="M476.767,288.484Q457.823,386.1,438.872,483.718c-.748,3.86-1.548,7.845-3.809,11.052-2.825,4.014-7.477,6.238-11.88,8.395-55.807,27.35-106.544,78.7-107.153,140.85" transform="translate(79.223 943.36)" fill="none" stroke="#6395ce" stroke-miterlimit="10" stroke-width="0.249"/>
      <path id="Path_581" data-name="Path 581" d="M652.531,471.443a591.111,591.111,0,0,0-188.38-143.631c-20.547-9.9-42.158-18.727-64.922-20.268s-47.068,5.2-62.221,22.249" transform="translate(-250.483 1062.81)" fill="none" stroke="#6395ce" stroke-miterlimit="10" stroke-width="0.249"/>
      <path id="Path_582" data-name="Path 582" d="M375.792,395.324A524.876,524.876,0,0,0,232.63,479.178c-15.183,12.5-32.736,26.784-52.08,23.189" transform="translate(1174.384 1620.539)" fill="none" stroke="#f8ebe5" stroke-miterlimit="10" stroke-width="0.249"/>
      <path id="Path_583" data-name="Path 583" d="M200.452,390.951a183.809,183.809,0,0,0-10.266,46.3" transform="translate(1279.012 1592.822)" fill="none" stroke="#f8ebe5" stroke-miterlimit="10" stroke-width="0.249"/>
      <path id="Path_584" data-name="Path 584" d="M210.026,390.952A213.291,213.291,0,0,1,192.84,444.58" transform="translate(1249.962 1592.828)" fill="none" stroke="#f8ebe5" stroke-miterlimit="10" stroke-width="0.249"/>
      <path id="Path_585" data-name="Path 585" d="M554.542,300.933c-27.474-.11-47.134,25.009-69.1,41.512-36.757,27.636-87.567,33.939-120.083,66.463" transform="translate(-360.563 1022.265)" fill="none" stroke="#f8ebe5" stroke-miterlimit="10" stroke-width="0.249"/>
      <path id="Path_586" data-name="Path 586" d="M363.026,188.9a585.924,585.924,0,0,0-103.565,73.588" transform="translate(608.081 312.197)" fill="none" stroke="#f8ebe5" stroke-miterlimit="10" stroke-width="0.249"/>
      <path id="Path_587" data-name="Path 587" d="M403.373,200.4a863.752,863.752,0,0,0-129.917,1.937" transform="translate(465.036 375.069)" fill="none" stroke="#f8ebe5" stroke-miterlimit="10" stroke-width="0.249"/>
      <path id="Path_588" data-name="Path 588" d="M359.9,186.233a403.254,403.254,0,0,0-99.852,68.921" transform="translate(606.883 295.268)" fill="none" stroke="#f8ebe5" stroke-miterlimit="10" stroke-width="0.249"/>
      <path id="Path_589" data-name="Path 589" d="M385.556,195.573h-111.6" transform="translate(479.183 354.467)" fill="none" stroke="#f8ebe5" stroke-miterlimit="10" stroke-width="0.249"/>
      <path id="Path_590" data-name="Path 590" d="M396.158,196.451q-47.728-2.1-95.529-1.057l2.194,1.695" transform="translate(272.848 351.131)" fill="none" stroke="#f8ebe5" stroke-miterlimit="10" stroke-width="0.249"/>
      <path id="Path_591" data-name="Path 591" d="M396.881,262.128A305.126,305.126,0,0,0,313.4,184.54" transform="translate(178.401 284.537)" fill="none" stroke="#f8ebe5" stroke-miterlimit="10" stroke-width="0.249"/>
      <path id="Path_592" data-name="Path 592" d="M411.764,204.309l-111.629-6.92" transform="translate(260.867 365.977)" fill="none" stroke="#f8ebe5" stroke-miterlimit="10" stroke-width="0.249"/>
      <path id="Path_593" data-name="Path 593" d="M404.023,262.439a300.015,300.015,0,0,0-89.365-75.048" transform="translate(162.034 302.608)" fill="none" stroke="#f8ebe5" stroke-miterlimit="10" stroke-width="0.249"/>
      <path id="Path_594" data-name="Path 594" d="M371.392,201.11c-3.038,10.3-.668,22.257-6.487,31.283-6.186,9.584-19.035,11.947-30.424,12.6-9.855.565-20.371.345-28.663-5.012-7.14-4.609-11.631-12.512-13.84-20.716s-2.37-16.8-2.517-25.295" transform="translate(379.575 344.307)" fill="none" stroke="#f8ebe5" stroke-miterlimit="10" stroke-width="0.499"/>
    </g>
    <path id="Path_595" data-name="Path 595" d="M380.33,313.5v48.785" transform="translate(-296.19 1101.905)" fill="none" stroke="#f8ebe5" stroke-miterlimit="10" stroke-width="0.249"/>
    <path id="Path_596" data-name="Path 596" d="M384.2,317.454a237.281,237.281,0,0,1,4.821,25.6" transform="translate(-333.255 1126.979)" fill="none" stroke="#f8ebe5" stroke-miterlimit="10" stroke-width="0.249"/>
  </g>
</svg>
