<svg id="dont" xmlns="http://www.w3.org/2000/svg" width="17" height="17" viewBox="0 0 17 17">
  <circle id="Ellipse_5" data-name="Ellipse 5" cx="8.5" cy="8.5" r="8.5" fill="#f15249"/>
  <path id="Path_514" data-name="Path 514" d="M435.331,445.071l4.585,4.585a8.456,8.456,0,0,0,7.4-7.347L442.7,437.7Z" transform="translate(-430.397 -432.736)" fill="#ad0e0e"/>
  <path id="Path_515" data-name="Path 515" d="M378.593,374.109a1,1,0,0,1,0,1.394l-.751.751a1,1,0,0,1-1.394,0l-5.9-5.9a1,1,0,0,1,0-1.394l.778-.778a1,1,0,0,1,1.394,0Z" transform="translate(-366.071 -363.732)" fill="#fff"/>
  <path id="Path_516" data-name="Path 516" d="M640.973,638.8l-2.172,2.172,3.137,3.11a1,1,0,0,0,1.394,0l.778-.778a1,1,0,0,0,0-1.394Z" transform="translate(-631.561 -631.561)" fill="#d6d6d6"/>
  <path id="Path_517" data-name="Path 517" d="M376.448,370.549a1,1,0,0,1,1.394,0l.778.778a1,1,0,0,1,0,1.394l-5.926,5.872a1,1,0,0,1-1.394,0l-.751-.751a1,1,0,0,1,0-1.394Z" transform="translate(-366.071 -366.071)" fill="#fff"/>
</svg>
