<svg xmlns="http://www.w3.org/2000/svg" xmlns:xlink="http://www.w3.org/1999/xlink" width="3187" height="692" viewBox="0 0 3187 692">
  <defs>
    <clipPath id="clip-path">
      <rect id="Rectangle_137" data-name="Rectangle 137" width="3187" height="692" transform="translate(5319 -470)" fill="#69b047" stroke="#707070" stroke-width="1"/>
    </clipPath>
  </defs>
  <g id="contact-resources" transform="translate(-5319 470)" clip-path="url(#clip-path)">
    <path id="Path_810" data-name="Path 810" d="M48.117,2677.809c20.356-3.393,88.21,74.639,1146.736-57.676s2072.946,0,2072.946,0,47.5,444.446,16.964,542.834-887.8,173.028-1624.024,84.817S536.668,3400.456,48.117,3332.6,48.117,2677.809,48.117,2677.809Z" transform="translate(5269 -2971)" fill="#69b047"/>
    <g id="Group_288" data-name="Group 288" transform="translate(5379.681 -107.644)">
      <path id="Path_62" data-name="Path 62" d="M242.261,564.156c-14.274-47.324-10.351-103.367,0-151.136,1.463-6.754-8.91-9.642-10.379-2.865-10.812,49.908-14.915,107.419,0,156.86C233.88,573.629,244.27,570.809,242.261,564.156Z" transform="translate(-222.173 -308.392)" fill="#529732"/>
      <path id="Path_63" data-name="Path 63" d="M238.357,411.505c-.107-6.917-10.869-6.94-10.762,0,.822,53.791,10.407,107.138,7,161-.439,6.917,10.323,6.895,10.762,0C248.764,518.643,239.185,465.3,238.357,411.505Z" transform="translate(-197.079 -308.311)" fill="#529732"/>
      <path id="Path_64" data-name="Path 64" d="M256.3,547.194c-10.947-44.262-10.936-89.757-10.311-135.067.1-6.929-10.666-6.929-10.762,0-.642,46.277-.484,92.752,10.688,137.931C247.584,556.779,257.963,553.931,256.3,547.194Z" transform="translate(-162.713 -305.433)" fill="#529732"/>
      <path id="Path_65" data-name="Path 65" d="M253.945,415.236c.124-6.929-10.638-6.929-10.762,0-.861,46.891,9.467,93.089,7,140-.366,6.923,10.4,6.906,10.767,0C263.417,508.326,253.089,462.127,253.945,415.236Z" transform="translate(-125.166 -291.043)" fill="#529732"/>
      <path id="Path_66" data-name="Path 66" d="M261.369,408.4c-.017-6.923-10.784-6.934-10.767,0,.174,66.517,3.248,132.984,3.5,199.5.028,6.929,10.79,6.94,10.767,0C264.611,541.38,261.544,474.914,261.369,408.4Z" transform="translate(-90.591 -322.701)" fill="#529732"/>
      <path id="Path_67" data-name="Path 67" d="M267.963,409.538c-1.4-6.777-11.781-3.906-10.379,2.865a685.47,685.47,0,0,1,13.807,170.064c-.321,6.923,10.441,6.912,10.762,0C284.837,524.522,279.681,466.323,267.963,409.538Z" transform="translate(-58.877 -311.274)" fill="#529732"/>
      <path id="Path_68" data-name="Path 68" d="M275.045,413.373c-.1-6.923-10.857-6.94-10.762,0,.675,49.2,7.964,97.9,10.5,147,.355,6.889,11.122,6.934,10.762,0C283.009,511.275,275.721,462.571,275.045,413.373Z" transform="translate(-27.269 -299.676)" fill="#529732"/>
      <path id="Path_69" data-name="Path 69" d="M282.907,407.662c-1.537-6.754-11.916-3.895-10.379,2.859,12.653,55.8,7.109,113.391,6.8,170.07-.039,6.923,10.728,6.934,10.762,0C290.4,522.889,295.791,464.465,282.907,407.662Z" transform="translate(10.178 -319.896)" fill="#529732"/>
      <path id="Path_70" data-name="Path 70" d="M288.12,409.642c.079-6.929-10.683-6.934-10.762,0-.647,58.013,13.936,114.241,21,171.494.839,6.788,11.612,6.872,10.762,0C302.062,523.923,287.472,467.6,288.12,409.642Z" transform="translate(33.153 -316.945)" fill="#529732"/>
      <path id="Path_71" data-name="Path 71" d="M294.943,409.02c-.011-6.923-10.778-6.94-10.762,0,.112,51.8,15.231,102.14,14,154-.163,6.929,10.6,6.923,10.767,0C310.179,511.137,295.061,460.824,294.943,409.02Z" transform="translate(64.829 -319.824)" fill="#529732"/>
      <path id="Path_72" data-name="Path 72" d="M302.4,406.533c-.045-6.923-10.812-6.94-10.762,0,.422,58.508,7.525,116.611,10.5,174.995.355,6.895,11.122,6.934,10.767,0C309.93,523.144,302.827,465.041,302.4,406.533Z" transform="translate(99.366 -331.335)" fill="#529732"/>
      <path id="Path_73" data-name="Path 73" d="M325.384,540.563c-11.42-43.7-3.715-89.729-17.5-133-2.1-6.574-12.5-3.766-10.379,2.859,13.756,43.182,6.079,89.3,17.5,133C316.756,550.12,327.14,547.283,325.384,540.563Z" transform="translate(125.197 -319.802)" fill="#529732"/>
      <path id="Path_74" data-name="Path 74" d="M316.707,404.665c-.022-6.923-10.79-6.934-10.762,0A1155.816,1155.816,0,0,0,316.639,560.1c.951,6.833,11.324,3.923,10.379-2.865C319.954,506.586,316.909,455.789,316.707,404.665Z" transform="translate(165.563 -339.97)" fill="#529732"/>
      <path id="Path_75" data-name="Path 75" d="M323.547,400.934c-.107-6.917-10.874-6.94-10.762,0,.991,60.984,14.375,120.95,14,182-.039,6.928,10.722,6.94,10.767,0C337.928,521.884,324.538,461.919,323.547,400.934Z" transform="translate(197.221 -357.239)" fill="#529732"/>
      <path id="Path_76" data-name="Path 76" d="M330.394,399.071c.017-6.929-10.745-6.934-10.767,0-.2,64.547,15.022,127.918,14,192.494-.107,6.928,10.655,6.934,10.767,0C345.41,526.989,330.191,463.618,330.394,399.071Z" transform="translate(228.879 -365.873)" fill="#529732"/>
      <path id="Path_77" data-name="Path 77" d="M350.814,564.394c-18.293-53.42-13.869-111-13.807-166.569.006-6.923-10.756-6.934-10.767,0-.056,56.532-4.418,115.074,14.2,169.428C342.664,573.771,353.065,570.974,350.814,564.394Z" transform="translate(257.263 -371.629)" fill="#529732"/>
      <path id="Path_78" data-name="Path 78" d="M345.371,394.716c.124-6.928-10.638-6.928-10.761,0-1.148,64.429,11.538,128.07,10.5,192.5-.107,6.929,10.655,6.929,10.767,0C356.915,522.786,344.228,459.145,345.371,394.716Z" transform="translate(297.895 -386.019)" fill="#529732"/>
      <path id="Path_79" data-name="Path 79" d="M362.419,581.271C344.9,521.936,351.984,458.2,352.113,397.2c.011-6.923-10.75-6.934-10.767,0-.129,62.015-7.126,126.584,10.694,186.927C354,590.761,364.389,587.941,362.419,581.271Z" transform="translate(322.655 -374.508)" fill="#529732"/>
      <path id="Path_80" data-name="Path 80" d="M375.125,579.007C358.3,521.051,355.144,458.485,357.818,398.44c.31-6.923-10.458-6.912-10.762,0-2.713,60.917.613,124.6,17.69,183.426C366.671,588.508,377.061,585.683,375.125,579.007Z" transform="translate(351.949 -368.743)" fill="#529732"/>
      <path id="Path_81" data-name="Path 81" d="M365.214,400.317c-.034-6.929-10.8-6.94-10.767,0A1119.242,1119.242,0,0,0,365.141,548.74c.946,6.833,11.319,3.929,10.379-2.859A1097.049,1097.049,0,0,1,365.214,400.317Z" transform="translate(390.053 -360.117)" fill="#529732"/>
      <path id="Path_82" data-name="Path 82" d="M385.372,599.162c-17.347-66.883-10.447-136.772-10.312-205.068.017-6.923-10.75-6.934-10.761,0-.141,69.309-6.906,140.059,10.694,207.927C376.727,608.725,387.111,605.883,385.372,599.162Z" transform="translate(429.202 -388.898)" fill="#529732"/>
      <path id="Path_83" data-name="Path 83" d="M380.487,395.872c-1.216-6.8-11.595-3.923-10.379,2.865,10.491,58.57,10.34,117.77,10.311,177.066-.006,6.923,10.756,6.934,10.762,0C391.215,515.51,391.153,455.41,380.487,395.872Z" transform="translate(462.083 -374.606)" fill="#529732"/>
    </g>
    <g id="Group_289" data-name="Group 289" transform="translate(8254.336 -332.932)">
      <path id="Path_84" data-name="Path 84" d="M201.417,404.067c-7.1.857-14.969,4.9-22.054,10.4-11.621,2.6-22.834,7.537-26.4,19.135-6.2,20.184,13.317,30.613,30.55,29.393,17.428-1.232,30.839-10.028,37.515-26.524C226.92,421.912,220.237,401.8,201.417,404.067Z" transform="translate(-70.62 -301.612)" fill="#529732"/>
      <path id="Path_85" data-name="Path 85" d="M179.636,434.809a6.807,6.807,0,0,0,.666,2.027c5.312,28.758,56.393,36.887,61.662,3.207C248.5,398.254,173.747,397.509,179.636,434.809Z" transform="translate(9.109 -290.502)" fill="#529732"/>
      <path id="Path_86" data-name="Path 86" d="M222.263,444.827c-.725-10.834-7.693-16.844-16.474-18.812a7.243,7.243,0,0,0-5.76-4.073c-12.541-1.532-25.62,2.915-31.957,14.459-5.246,9.556-4.747,22.121,2.412,30.577C187.971,487.65,224,470.845,222.263,444.827Z" transform="translate(-33.604 -250.156)" fill="#529732"/>
      <path id="Path_87" data-name="Path 87" d="M220.064,386.47c-7.787-4.018-16.532-5.487-23.812-2.7-6.684,2.557-11.555,8.286-16.131,13.8-29.147,35.13,33.458,57.663,55.617,30.149C247.586,413,235.766,394.564,220.064,386.47Z" transform="translate(-10.527 -364.067)" fill="#529732"/>
      <path id="Path_88" data-name="Path 88" d="M230.909,398.362c-4.108-28.251-33.894-22.234-52.8-13.2-18.422,8.8-50.664,38.672-24.81,58.217,6.119,4.622,13.9,5.491,21.906,4.006a7.1,7.1,0,0,0,7.225.666C204.513,438.016,235.363,428.986,230.909,398.362Z" transform="translate(-94.191 -377.647)" fill="#529732"/>
      <path id="Path_89" data-name="Path 89" d="M167.681,422.808c-13.812-1.637-31.435,4.544-31.205,21.022.362,25.85,54.791,32.861,60.82,10.051a15.447,15.447,0,0,0-.51-8.274C192.849,432.407,180.943,424.379,167.681,422.808Z" transform="translate(-114.983 -247.541)" fill="#529732"/>
      <path id="Path_90" data-name="Path 90" d="M145,404.162c-9.953,4.342-15.4,13.8-13.753,24.588,4.283,28.1,37.616,21.3,49.195,2.058C193.552,409.018,160.831,397.256,145,404.162Z" transform="translate(-130.959 -306.547)" fill="#529732"/>
    </g>
  </g>
</svg>
