<?xml version="1.0" encoding="utf-8"?>
<!-- Generator: Adobe Illustrator 17.0.0, SVG Export Plug-In . SVG Version: 6.00 Build 0)  -->
<!DOCTYPE svg PUBLIC "-//W3C//DTD SVG 1.1//EN" "http://www.w3.org/Graphics/SVG/1.1/DTD/svg11.dtd">
<svg version="1.1" id="Capa_1" xmlns="http://www.w3.org/2000/svg" xmlns:xlink="http://www.w3.org/1999/xlink" x="0px" y="0px"
	 width="1500px" height="1500px" viewBox="0 0 1500 1500" enable-background="new 0 0 1500 1500" xml:space="preserve">
<g>
	<g>
		<g>
			<circle fill="#7C7C7C" cx="1130.859" cy="615.234" r="58.594"/>
			<path fill="#7C7C7C" d="M1265.625,117.188h-76.172V58.594c0-32.361-26.232-58.594-58.594-58.594s-58.594,26.232-58.594,58.594
				v58.594H805.664V58.594C805.664,26.232,779.432,0,747.07,0s-58.594,26.232-58.594,58.594v58.594H424.805V58.594
				C424.805,26.232,398.572,0,366.211,0s-58.594,26.232-58.594,58.594v58.594h-73.242C105.141,117.188,0,222.328,0,351.563v914.063
				C0,1394.859,105.141,1500,234.375,1500h448.242c32.361,0,58.594-26.232,58.594-58.594s-26.232-58.594-58.594-58.594H234.375
				c-64.617,0-117.188-52.57-117.188-117.188V351.563c0-64.617,52.57-117.188,117.188-117.188h73.242v58.594
				c0,32.361,26.232,58.594,58.594,58.594s58.594-26.232,58.594-58.594v-58.594h263.672v58.594
				c0,32.361,26.232,58.594,58.594,58.594c32.361,0,58.594-26.232,58.594-58.594v-58.594h266.602v58.594
				c0,32.361,26.232,58.594,58.594,58.594s58.594-26.232,58.594-58.594v-58.594h76.172c64.617,0,117.188,52.57,117.188,117.188
				v333.984c0,32.361,26.232,58.594,58.594,58.594S1500,717.908,1500,685.547V351.563
				C1500,222.328,1394.859,117.188,1265.625,117.188z"/>
			<path fill="#7C7C7C" d="M1145.508,791.016c-195.469,0-354.492,159.023-354.492,354.492S950.039,1500,1145.508,1500
				S1500,1340.977,1500,1145.508S1340.977,791.016,1145.508,791.016z M1145.508,1382.813
				c-130.849,0-237.305-106.453-237.305-237.305s106.456-237.305,237.305-237.305s237.305,106.453,237.305,237.305
				S1276.356,1382.813,1145.508,1382.813z"/>
			<path fill="#7C7C7C" d="M1230.469,1086.914h-26.367v-61.523c0-32.361-26.232-58.594-58.594-58.594s-58.594,26.232-58.594,58.594
				v120.117c0,32.361,26.232,58.594,58.594,58.594h84.961c32.361,0,58.594-26.232,58.594-58.594S1262.83,1086.914,1230.469,1086.914
				z"/>
			<circle fill="#7C7C7C" cx="875.977" cy="615.234" r="58.594"/>
			<circle fill="#7C7C7C" cx="621.094" cy="870.117" r="58.594"/>
			<circle fill="#7C7C7C" cx="366.211" cy="615.234" r="58.594"/>
			<circle fill="#7C7C7C" cx="366.211" cy="870.117" r="58.594"/>
			<circle fill="#7C7C7C" cx="366.211" cy="1125" r="58.594"/>
			<circle fill="#7C7C7C" cx="621.094" cy="1125" r="58.594"/>
			<circle fill="#7C7C7C" cx="621.094" cy="615.234" r="58.594"/>
		</g>
	</g>
</g>
</svg>
